<svg id="Capa_1" enable-background="new 0 0 512 512" height="70" viewBox="0 0 512 512" width="70" xmlns="http://www.w3.org/2000/svg"><g><path d="m489.822 175.191-95.345-95.345 21.224-21.227-21.211-21.211-21.224 21.227-42.438-42.438-21.211 21.211 42.438 42.442-21.2 21.204-21.209-21.209-84.873 84.844 21.211 21.211-21.237 21.237-52.942-52.937-21.211 21.211 31.71 31.699-105.861 106.202 105.732 105.791 106.219-105.901 31.769 31.78c14.707 14.502 33.926 21.738 53.115 21.738 19.219 0 38.379-7.266 52.939-21.812l63.545-63.53c14.328-14.15 22.238-33.018 22.238-53.115s-7.91-38.98-22.178-53.072zm-222.627 31.919 21.211 21.211 84.873-84.844-21.213-21.213 21.2-21.202 63.633 63.638-21.198 21.198-21.211-21.211-84.844 84.858 21.211 21.211-21.233 21.233-63.664-63.646zm201.416 52.984-63.604 63.604c-17.461 17.432-46.055 17.402-63.691 0l-10.488-10.488 21.24-21.24 21.211 21.211 84.844-84.858-21.211-21.211 21.196-21.196 10.562 10.562c8.584 8.481 13.33 19.761 13.33 31.787 0 12.009-4.746 23.289-13.389 31.829z"/><path d="m63.23 368.814-21.339 63.63-41.891 42.148 21.211 21.211 41.955-42.213 63.522-21.275 13.185-13.099-63.556-63.589z"/></g></svg>