<svg id="Layer_1" color="#9F8B79"  enable-background="new 0 0 124 124" height="70" viewBox="0 0 124 124" width="70" xmlns="http://www.w3.org/2000/svg"><path d="m112.249 85.237v-46.534c2.161-.649 3.751-2.644 3.751-5.028 0-2.906-2.349-5.27-5.238-5.27-1.342 0-2.554.525-3.482 1.363l.025-.041-40.22-23.214-.022.039c.103-.413.175-.837.175-1.282 0-2.906-2.35-5.27-5.238-5.27s-5.238 2.364-5.238 5.27c0 .438.069.857.169 1.264l-.016-.02-39.89 23.306s.006.012.012.024c-.956-1.02-2.3-1.665-3.8-1.665-2.888 0-5.238 2.364-5.238 5.27 0 2.383 1.59 4.378 3.751 5.028v46.761c-2.16.648-3.75 2.643-3.75 5.026 0 2.906 2.349 5.27 5.238 5.27 1.495 0 2.837-.642 3.792-1.657l-.004.015 39.899 23.595c-.786 3.249 1.706 6.513 5.075 6.513 3.32 0 5.818-3.19 5.106-6.412l40.152-23.435c.93.85 2.152 1.382 3.504 1.382 2.888 0 5.238-2.364 5.238-5.27 0-2.384-1.59-4.379-3.751-5.028zm-6.563-52.832c-.039.904-.108 1.631.001 2.543l-20.152 11.651-22.049-12.826v-23.475c.823-.247 1.567-.674 2.167-1.262l-.009.016zm-47.099-23.171c.555.484 1.206.846 1.927 1.063v23.475l-21.872 12.724-20.286-11.948c.152-.715.156-1.458.008-2.174zm7.036 105.706c-.594-.575-1.327-.994-2.137-1.237v-23.476l23.513-13.677v-27.35l-23.513 13.657v26.979h-2.973v-26.985l-23.512-13.858v27.557l23.513 13.677v23.475c-.762.229-1.451.618-2.024 1.144l-40.195-23.286c.106-.417.179-.846.179-1.296 0-2.383-1.59-4.378-3.75-5.027v-46.762c.834-.251 1.59-.684 2.193-1.284v.003l20.963 12.306 1.503-2.557 22.623 13.334 22.798-13.242 1.486 2.565 21.016-11.976-.026-.043c.568.514 1.246.896 1.997 1.121v46.534c-2.845.855-4.026 3.624-3.595 6.285z"/></svg>