<svg height="70" viewBox="-15 0 512 512.00014" width="70" xmlns="http://www.w3.org/2000/svg"><path d="m155.730469 167.125c-6.089844-.695312-12.085938 1.019531-16.882813 4.832031-4.800781 3.816407-7.828125 9.269531-8.523437 15.359375l-.507813 4.4375c-.488281 4.261719 2.570313 8.113282 6.835938 8.601563 4.261718.484375 8.113281-2.570313 8.601562-6.835938l.507813-4.4375c.226562-1.964843 1.203125-3.726562 2.753906-4.957031 1.546875-1.230469 3.476563-1.785156 5.449219-1.558594 3.109375.355469 5.671875 2.640625 6.375 5.6875l3.460937 14.980469c.832031 3.59375 4.03125 6.023437 7.566407 6.023437.578124 0 1.167968-.066406 1.757812-.203124 4.179688-.964844 6.785156-5.140626 5.820312-9.320313l-3.464843-14.980469c-2.183594-9.441406-10.121094-16.527344-19.75-17.628906zm0 0"/><path d="m481.898438 7.527344c-.242188-4.285156-3.949219-7.5546878-8.195313-7.320313-43.703125 2.46875-54.390625 30.851563-63.824219 55.890625-.480468 1.28125-.964844 2.5625-1.453125 3.847656-6.710937 17.625-23.097656 21.351563-32.492187 21.984376l2.320312-12.546876c1.214844-2.984374 4.074219-11.457031 2.683594-22.53125-1.5-11.957031-8.425781-29.246093-32.917969-43.730468-3.691406-2.183594-8.457031-.960938-10.644531 2.734375-2.183594 3.691406-.957031 8.457031 2.734375 10.640625 15 8.871094 23.515625 19.492187 25.3125 31.570312.632813 4.25.292969 7.988282-.242187 10.761719-36.535157-2.953125-84.222657-1.113281-127.550782 18.410156-2.5625-3.410156-6.421875-7.566406-12.003906-11.308593-18.707031-12.546876-41.917969-10.519532-58.09375-6.613282-29.292969 7.070313-58.179688 2.234375-73.601562-12.324218-10.003907-9.445313-13.644532-22.109376-10.828126-37.640626.765626-4.222656-2.035156-8.265624-6.257812-9.03125-4.226562-.769531-8.265625 2.035157-9.03125 6.257813-3.765625 20.738281 1.578125 38.617187 15.449219 51.714844 19.4375 18.351562 53.121093 24.527343 87.917969 16.128906 30.714843-7.417969 45.792968 2.796875 52.253906 9.96875-4.128906 2.3125-8.210938 4.785156-12.207032 7.476563-6.128906 4.121093-11.503906 8.320312-16.210937 12.421874-19.804687-18.34375-43.390625-12.761718-64.417969-7.773437-10.527344 2.496094-21.359375 5.0625-32.023437 5.046875-17.917969-.050781-31.085938-4.53125-39.136719-13.316406-10.023438-10.9375-9.003906-25.507813-8.972656-25.890625.390625-4.253907-2.734375-8.03125-6.992188-8.441407-4.273437-.40625-8.070312 2.714844-8.480468 6.988282-.085938.867187-1.878907 21.425781 12.800781 37.640625 11.097656 12.253906 28.167969 18.5 50.738281 18.5625h.230469c12.367187 0 24.085937-2.78125 35.421875-5.46875 21.863281-5.183594 36.769531-7.898438 49.621094 3.460937-5.601563 6-9.613282 11.324219-12.277344 15.253906-5.136719-2.398437-10.726563-4.035156-16.664063-4.714843-14.3125-1.636719-28.417969 2.398437-39.699219 11.367187-11.285156 8.964844-18.402343 21.789063-20.039062 36.109375l-.851562 7.417969c-26.480469.304688-46.484376-6.441406-58.882813-12.394531-14.464844-6.945313-22.070313-14.355469-22.144531-14.429688-3.035156-3.011719-7.941406-3.007812-10.96875.023438-3.035156 3.035156-3.035156 7.953125 0 10.988281 1.339844 1.335938 32.066406 31.375 90.0625 31.375.136718 0 .277344-.003906.414062-.003906-.070312 8.851562 2.554688 17.523437 7.453125 24.820312-14.703125 7.921875-49.695312 23.101563-91.046875 15.589844-4.214844-.765625-8.265625 2.03125-9.035156 6.253906-.765625 4.222656 2.035156 8.265625 6.257812 9.035156 8.890626 1.613282 17.484376 2.308594 25.699219 2.308594 37.21875 0 66.457031-14.21875 78.496094-21.144531 2.378906 3.339844 4.011719 7.164063 4.769531 11.222656-2.605468 6.589844-14.480468 31.09375-47.269531 31.914063-21.847656.546875-40.414063 9.894531-52.28125 26.324218-13.375 18.515626-16.5625 43.910157-8.742187 69.671876 1.015624 3.355468 4.097656 5.515624 7.429687 5.515624.75 0 1.507813-.109374 2.261719-.335937 4.105468-1.246094 6.425781-5.585937 5.179687-9.691406-6.398437-21.078125-4.039062-41.511719 6.46875-56.058594 8.960938-12.40625 23.191407-19.46875 40.074219-19.890625 26.164062-.652344 43.28125-13.851562 53.066406-26.957031 1.453125 2.082031 3.152344 3.972656 5.0625 5.632812-.773437 6.0625-5.257812 20.121094-29.328125 31.140625-21.328125 9.761719-36.367187 25.40625-42.347656 44.042969-5.210937 16.25-3.167969 33.214844 5.921875 49.058594 8.175781 14.257812 9.261719 28.652343 3.140625 41.625-6.929687 14.691406-22.910156 26.492187-39.765625 29.359375-4.230469.722656-7.078125 4.734375-6.355469 8.964844.640625 3.789062 3.929688 6.46875 7.648438 6.46875.433593 0 .871093-.039063 1.3125-.113282 21.976562-3.738281 42.078125-18.671875 51.21875-38.046875 5.84375-12.390625 9.945312-32.164062-3.71875-55.988281-6.855469-11.953125-8.445313-24.601562-4.605469-36.578125 4.628906-14.429687 16.710938-26.742187 34.023438-34.664063 25.800781-11.8125 34.445312-27.628906 37.246093-38.308593.742188.140625 1.496094.269531 2.261719.355469 1.191406.136718 2.378906.203124 3.554688.203124 12.828124 0 24.375-7.964843 28.828124-20.285156l4.382813-12.128906c1.457031-4.035156-.628906-8.488281-4.667969-9.949219-4.03125-1.457031-8.488281.632813-9.949218 4.667969l-4.378907 12.128906c-2.402343 6.648438-8.976562 10.726563-16.003906 9.925782-6.988281-.800782-12.472656-6.234376-13.339844-13.214844l-.621093-5.015625c-1.261719-10.175781-6.082032-19.621094-13.578126-26.613281-.03125-.03125-.0625-.058594-.09375-.089844-.015624-.015625-.027343-.027344-.042968-.042969-6.578125-6.082031-9.898438-15.027344-8.878906-23.929687l2.105468-18.394532c1.164063-10.191406 6.230469-19.324218 14.265625-25.707031 8.035157-6.386719 18.074219-9.257813 28.265625-8.09375 21.046875 2.410156 36.210938 21.492187 33.804688 42.539063l-4.136719 36.15625c-.488281 4.265624 2.570313 8.117187 6.835937 8.605468 4.261719.484375 8.113282-2.574218 8.601563-6.839844l3.929687-34.320312c.382813-.554688.898438-1.277344 1.5625-2.152344 5.480469-1.796875 21.496094-6.652344 43.40625-9.851562 4.25-.621094 7.1875-4.566406 6.566407-8.8125-.621094-4.25-4.566407-7.183594-8.8125-6.566406-6.933594 1.015624-13.292969 2.179687-18.972657 3.371093 2.976563-2.316406 6.246094-4.683593 9.84375-7.058593 3.292969-2.179688 6.96875-4.425782 11.019532-6.683594 17.824218-4.222656 33.78125-5.777344 48.75-4.738282 4.261718.289063 7.992187-2.933593 8.292968-7.214843.265626-3.808594-2.269531-7.164063-5.847656-8.0625 16.046875-4.128907 34.628906-7.230469 55.957032-8.488281-.441407 10.300781.457031 19.632812 2.363281 28.125-2.207031-1.476563-4.449219-2.878907-6.734375-4.191407-3.722656-2.136719-8.472656-.851562-10.609375 2.867188-2.136719 3.722656-.855469 8.472656 2.867187 10.609375 4.371094 2.511718 8.582032 5.390625 12.628906 8.597656-14.632812-3.824219-29.070312-6.511719-36.902343-7.851562-4.234375-.722657-8.246094 2.117187-8.96875 6.347656-.722657 4.230468 2.117187 8.246094 6.347656 8.96875 9.945313 1.703125 43.15625 7.808594 61.988281 16.363281 9.496094 11.761719 20.367188 20.882813 29.429688 28.484375 9.121094 7.652344 17.734375 14.878906 19.136718 20.265625.597657 2.300781.269532 4.316406-1.070312 6.535156-5.515625 9.136719-25.476562 16.726563-36.753906 19.363281-3.695313.855469-6.234375 4.257813-6 8.046876.167968 2.726562 1.917968 26.507812 12.078125 37.503906-1.070313 3.449218-8.394531 11.164062-16.203125 17.054687l-31.457032 7.320313c-4.179687.96875-6.78125 5.148437-5.808593 9.328125.835937 3.585937 4.03125 6.011719 7.5625 6.011719.582031 0 1.175781-.066407 1.769531-.207032l26.125-6.078125c1.984375 6.308594 3.695312 12.625 4.195312 15.984375-2.296874 1.601563-6.425781 4.09375-9.386718 5.878906-4.792969 2.886719-9.746094 5.875-13.578125 8.65625-3.066407 2.222657-11.117188 8.0625-7.691407 15.550782.214844.726562.472657 2.03125.722657 3.757812-2.367188-1.84375-4.976563-3.539062-7.839844-5.050781-3.792969-2.007813-8.496094-.558594-10.5 3.238281-2.007813 3.792969-.554687 8.496094 3.238281 10.5 7.257813 3.835938 15.671875 10.898438 14.820313 22.789063-.308594 1.917969-.675781 3.832031-1.125 5.722656-5.144531-7.113281-15.351563-15.449219-35.515625-18.625-35.902344-5.65625-65.996094 15.722656-76.09375 24.007813l-53.292969-17.492188c-4.078125-1.339844-8.464844.882812-9.804687 4.960938-1.339844 4.078124.882812 8.464843 4.960937 9.804687l55.089844 18.082031c-12.820313 8.027344-22.714844 23.957032-30.917969 49.675782-1.304688 4.089843.953125 8.460937 5.042969 9.765624.785156.25 1.578125.367188 2.363281.367188 3.289062 0 6.347656-2.109375 7.398438-5.410156 7.460937-23.382813 16.125-37.261719 26.488281-42.429688 8.625-4.300781 18.40625-2.433594 29.410156 1.085938l2.960937.972656c2.054688.691406 4.144532 1.417969 6.277344 2.167969 12.769532 4.472656 25.976563 9.101562 39.644532 7.527343 10.605468-1.21875 19.640624-5.550781 26.671874-12.699218.171876-.167969.332032-.34375.492188-.527344 2.953125-3.101562 5.554688-6.699219 7.75-10.800781 3.984375-7.457031 6.273438-15.773438 7.546875-23.648438.015625-.09375.03125-.1875.046875-.28125 1.011719-6.382812 1.363281-12.460937 1.402344-17.539062.0625-7.308594-.574219-16.15625-1.765625-21.910157 3.222656-2.523437 9.898437-6.550781 13.816406-8.914062 10.605469-6.394531 14.359375-8.789062 16.050781-12.425781.972656-2.09375 2.929688-6.289063-4.589844-29.144531 7.289063-5.898438 18.566407-16.542969 19.339844-26.441407.324219-4.15625-1.101562-8.042969-4.015625-10.9375-3.710937-3.679687-6.300781-13.527343-7.503906-21.871093 10.941406-3.308594 31.6875-11.117188 39.867187-24.644532 3.492188-5.773437 4.46875-12.171875 2.816407-18.503906-2.652344-10.183594-12.15625-18.15625-24.1875-28.25-9.265625-7.773438-19.433594-16.3125-27.933594-26.964844-.292969-.476562-.640625-.917968-1.035156-1.328125-.792969-1.023437-1.570313-2.074219-2.328125-3.136719-.238282-.449218-.519532-.882812-.851563-1.289062-.097656-.113281-.191406-.226562-.285156-.339844-10.238281-15.054687-16.785156-34.179687-13.828125-60.445312l3.003906-16.238282c15.570313-.058593 40.191406-6.605468 49.917969-32.15625.496094-1.304687.988281-2.605468 1.476563-3.902343 9.25-24.554688 16.554687-43.953125 50.15625-45.851563 4.277343-.242187 7.554687-3.910156 7.3125-8.195312zm-161.128907 452.949218c-10.121093 1.160157-21.101562-2.683593-32.726562-6.757812-3.210938-1.125-6.445313-2.253906-9.6875-3.289062l-23.25-7.632813c12.082031-7.96875 32.75-18.203125 55.5-14.621094 14.011719 2.207031 23.910156 7.878907 27.160156 15.5625 1.625 3.847657 1.078125 7.09375-.050781 9.019531-4.480469 4.382813-10.074219 6.925782-16.945313 7.71875zm-94.574219-316.664062c-11.109374 7.445312-19.464843 14.832031-25.488281 21.007812-2.808593-10.066406-8.484375-19.054687-16.191406-25.910156 5.113281-7.476562 16.433594-21.582031 36.207031-34.703125 44.671875-29.644531 99.777344-33.113281 140.847656-30.082031l-5.757812 31.148438c-52.84375 2.703124-90.308594 16.238281-115.167969 29.808593-.351562.15625-.683593.339844-1 .546875-4.992187 2.761719-9.472656 5.519532-13.449219 8.183594zm0 0"/><path d="m175.636719 40.363281c16.84375 7.539063 39.746093 4.675781 66.234375-8.289062 27.285156-13.351563 49.359375 13.914062 50.332031 15.148437 1.535156 1.949219 3.8125 2.96875 6.113281 2.96875 1.675782 0 3.363282-.539062 4.785156-1.652344 3.378907-2.644531 3.976563-7.527343 1.328126-10.910156-10.464844-13.371094-38.433594-34.660156-69.390626-19.511718-21.894531 10.710937-40.734374 13.578124-53.050781 8.058593-7.746093-3.46875-12.921875-10.175781-15.820312-20.503906-1.160157-4.132813-5.449219-6.539063-9.582031-5.382813-4.128907 1.160157-6.539063 5.449219-5.378907 9.582032 4.164063 14.835937 12.382813 25.09375 24.429688 30.492187zm0 0"/><path d="m314.835938 147.671875c3.292968.800781 6.558593 1.757813 9.714843 2.851563.84375.292968 1.703125.429687 2.546875.429687 3.21875 0 6.226563-2.015625 7.339844-5.226563 1.40625-4.054687-.742188-8.480468-4.796875-9.886718-3.621094-1.253906-7.375-2.355469-11.144531-3.269532-4.179688-1.015624-8.371094 1.554688-9.382813 5.722657-1.011719 4.171875 1.550781 8.371093 5.722657 9.378906zm0 0"/><path d="m292.167969 156.796875c-6.875-.222656-13.941407-.175781-21 .128906-4.289063.1875-7.613281 3.816407-7.425781 8.101563.183593 4.175781 3.625 7.433594 7.757812 7.433594.113281 0 .230469-.003907.34375-.007813 6.667969-.289063 13.335938-.332031 19.824219-.125 4.273437.117187 7.878906-3.226563 8.015625-7.515625.140625-4.289062-3.226563-7.878906-7.515625-8.015625zm0 0"/><path d="m201.210938 286.257812c-7.730469-2.398437-14.332032-4.835937-23.34375-9.574218-3.796876-1.996094-8.496094-.539063-10.492188 3.257812-2 3.800782-.539062 8.496094 3.257812 10.496094 10.066407 5.292969 17.402344 8.003906 25.976563 10.660156.765625.238282 1.542969.351563 2.304687.351563 3.316407 0 6.386719-2.136719 7.417969-5.472657 1.273438-4.097656-1.019531-8.449218-5.121093-9.71875zm0 0"/><path d="m257.652344 291.816406c-11.941406 1.738282-24.117188 1.648438-36.191406-.265625-4.242188-.675781-8.21875 2.21875-8.890626 6.457031-.671874 4.238282 2.21875 8.21875 6.457032 8.890626 7.140625 1.128906 14.3125 1.699218 21.46875 1.699218 6.496094 0 12.972656-.46875 19.394531-1.402344 4.246094-.617187 7.1875-4.558593 6.570313-8.804687-.617188-4.25-4.5625-7.191406-8.808594-6.574219zm0 0"/><path d="m300.890625 277.054688c-7.148437 3.960937-14.609375 7.242187-22.164063 9.753906-4.074218 1.351562-6.277343 5.75-4.921874 9.824218 1.082031 3.257813 4.117187 5.320313 7.371093 5.320313.8125 0 1.640625-.128906 2.453125-.398437 8.460938-2.816407 16.800782-6.480469 24.789063-10.902344 3.753906-2.078125 5.113281-6.804688 3.035156-10.558594s-6.804687-5.117188-10.5625-3.039062zm0 0"/><path d="m364.054688 216.3125c4.566406.734375 7.773437 4.910156 7.304687 9.507812-1.8125 17.765626-5.117187 29.503907-11.007813 47.789063-1.0625 3.292969-4.113281 5.390625-7.394531 5.390625-.910156 0-1.835937-.160156-2.742187-.503906-3.929688-1.472656-5.851563-5.945313-4.5625-9.9375 1.175781-3.660156 2.238281-7.019532 3.195312-10.191406-5.125 5.769531-10.878906 11.328124-17.097656 16.429687-1.445312 1.1875-3.191406 1.765625-4.925781 1.765625-2.292969 0-4.566407-1.007812-6.105469-2.957031-2.644531-3.347657-1.933594-8.257813 1.355469-10.96875 14.933593-12.304688 27.074219-27.753907 32.546875-41.070313 1.535156-3.730468 5.453125-5.890625 9.433594-5.253906zm0 0"/><path d="m347.960938 284.796875c-3.714844-2.144531-8.46875-.875-10.617188 2.839844-2.722656 4.710937-5.777344 9.179687-9.082031 13.28125-2.691407 3.34375-2.164063 8.234375 1.179687 10.925781 1.433594 1.15625 3.15625 1.71875 4.867188 1.71875 2.269531 0 4.523437-.992188 6.058594-2.894531 3.800781-4.722657 7.3125-9.851563 10.433593-15.253907 2.148438-3.714843.875-8.46875-2.839843-10.617187zm0 0"/><path d="m309.398438 318.867188c-12.410157 9.03125-27.671876 15.75-45.363282 19.976562-4.171875.996094-6.75 5.1875-5.753906 9.363281.851562 3.566407 4.039062 5.964844 7.550781 5.964844.597657 0 1.203125-.066406 1.8125-.210937 19.695313-4.707032 36.820313-12.285157 50.894531-22.527344 3.472657-2.527344 4.238282-7.386719 1.710938-10.855469-2.523438-3.46875-7.382812-4.238281-10.851562-1.710937zm0 0"/><path d="m197.300781 349.972656c-.464843 4.265625 2.613281 8.101563 6.878907 8.570313 5.714843.625 11.59375.9375 17.613281.9375 8.175781 0 16.601562-.578125 25.207031-1.726563 4.253906-.570312 7.242188-4.476562 6.671875-8.730468-.566406-4.253907-4.476563-7.238282-8.730469-6.671876-13.699218 1.828126-26.84375 2.078126-39.070312.742188-4.289063-.460938-8.101563 2.617188-8.570313 6.878906zm0 0"/><path d="m186.175781 355.195312c3.464844 0 6.625-2.335937 7.523438-5.84375 1.0625-4.160156-1.441407-8.390624-5.601563-9.457031-10.804687-2.765625-20.773437-6.9375-29.625-12.394531-3.652344-2.25-8.441406-1.117188-10.691406 2.539062-2.253906 3.652344-1.117188 8.4375 2.535156 10.691407 10.1875 6.28125 21.601563 11.0625 33.929688 14.21875.644531.167969 1.292968.246093 1.929687.246093zm0 0"/><path d="m130.773438 325.15625c1.523437 1.59375 3.566406 2.394531 5.613281 2.394531 1.929687 0 3.863281-.714843 5.371093-2.15625 3.101563-2.964843 3.207032-7.886719.242188-10.984375-2.097656-2.195312-3.152344-3.617187-3.203125-3.6875-2.496094-3.472656-7.328125-4.277344-10.816406-1.792968-3.492188 2.488281-4.308594 7.339843-1.820313 10.835937.164063.230469 1.667969 2.316406 4.613282 5.390625zm0 0"/><path d="m292.410156 379.824219c-4.289062.117187-7.671875 3.683593-7.5625 7.972656.113282 4.222656 3.570313 7.566406 7.765625 7.566406h.207031c11.21875-.296875 22.585938 1.40625 22.695313 1.425781.398437.058594.792969.089844 1.183594.089844 3.773437 0 7.085937-2.753906 7.671875-6.597656.648437-4.242188-2.265625-8.207031-6.507813-8.855469-.515625-.082031-12.820312-1.933593-25.453125-1.601562zm0 0"/><path d="m262.511719 383.023438c-6.882813 1.234374-14.046875 2.832031-21.289063 4.75-4.148437 1.101562-6.621094 5.355468-5.523437 9.503906.925781 3.480468 4.070312 5.78125 7.507812 5.78125.660157 0 1.328125-.085938 1.996094-.261719 6.835937-1.8125 13.578125-3.316406 20.050781-4.476563 4.222656-.757812 7.035156-4.792968 6.277344-9.019531-.757812-4.222656-4.800781-7.035156-9.019531-6.277343zm0 0"/><path d="m212.796875 408.042969c4.285156-.246094 7.558594-3.917969 7.3125-8.203125s-3.941406-7.546875-8.203125-7.308594c-15.285156.878906-30.207031-.8125-44.363281-5.027344-4.113281-1.222656-8.4375 1.121094-9.664063 5.234375-1.222656 4.109375 1.117188 8.4375 5.230469 9.664063 13.175781 3.917968 26.917969 5.894531 40.972656 5.894531 2.890625 0 5.796875-.085937 8.714844-.253906zm0 0"/><path d="m144.109375 377.664062c-4.410156-2.496093-6.800781-4.328124-6.847656-4.363281-3.378907-2.632812-8.25-2.03125-10.890625 1.339844-2.644532 3.378906-2.050782 8.265625 1.328125 10.910156.324219.25 3.308593 2.558594 8.757812 5.640625 1.207031.683594 2.523438 1.007813 3.820313 1.007813 2.707031 0 5.339844-1.417969 6.769531-3.945313 2.113281-3.734375.796875-8.476562-2.9375-10.589844zm0 0"/></svg>