<svg height="70" viewBox="0 0 60 60" width="70" xmlns="http://www.w3.org/2000/svg"><g id="Page-1" fill="none" fill-rule="evenodd"><g id="008---Tattooed-Chest" fill="rgb(0,0,0)" fill-rule="nonzero"><path id="Shape" d="m1 60h7c.45867939-.0000121.85854091-.3120689.97-.757l2-8c.5898991-3.051707.8796142-6.1538361.865-9.262.034-1.23.066-2.391.145-2.786.208-1.042.459-2.078.725-3.174.242-1 .495-2.05.725-3.158.3259323 1.6992227.5165304 3.4216271.57 5.151-.0070765 2.619548-.207622 5.2349959-.6 7.825-.7065675 4.3878835-.8376738 8.8491964-.39 13.271.0558999.5051326.4817877.8880015.99.89h32c.5097412.0000349.9379285-.3833521.994-.89.4476738-4.4218036.3165675-8.8831165-.39-13.271-.3924271-2.5903342-.5929727-5.2061182-.6-7.826.0534618-1.7287115.2440604-3.4504521.57-5.149.231 1.107.483 2.157.725 3.157.266 1.1.517 2.132.725 3.177.0948604.9246568.1432546 1.8534917.145 2.783-.0146142 3.1081639.2751009 6.210293.865 9.262l2 8c.1110937.4434883.5088126.7551583.966.757h7c.5522847 0 1-.4477153 1-1v-8c-.0924686-4.0839196-.7528014-8.1351045-1.962-12.037 2.066-8.6.722-18.944-1.076-25.238-1.814-6.347-9.489-8.167-13.612-9.145-.834-.2-1.555-.369-2.034-.529-1.5472696-.59712504-2.7704155-1.81990779-3.368-3.367-.1359555-.40819365-.5177607-.68367333-.948-.684h-14c-.4302393.00032667-.8120445.27580635-.948.684-.5882114 1.55317215-1.8146532 2.77924988-3.368 3.367-.479.16-1.2.331-2.034.529-4.123.978-11.8 2.8-13.612 9.145-1.17005337 4.2569497-1.85968455 8.6315459-2.056 13.042-.0053497.044123-.00768844.0885592-.007.133-.22623146 4.0472422.10588745 8.1063612.987 12.063-1.20919865 3.9018955-1.86953136 7.9530804-1.962 12.037v8c0 .2652165.10535684.5195704.29289322.7071068s.44189029.2928932.70710678.2928932zm51.781-2-1.811-7.243c-.3371139-1.5080312-.5465218-3.0417933-.626-4.585 2.427.662 3.656 3.288 3.656 7.828-.0451975 1.4263415.3710978 2.8291898 1.187 4zm-49.838-30.338c1.14332162-.4131345 2.14514928-1.1436917 2.888-2.106.20617542-.2968374.23613901-.6818253.07837384-1.0069882s-.47870618-.539896-.83946502-.5616637-.70519081.1528177-.90090882.4566519c-.30900103.3804814-.68481964.7014013-1.109.947.26209815-3.7592976.89858323-7.4830703 1.9-11.116.20815091-.7175363.52662291-1.3983376.944-2.018 1.24119163 1.2809532 1.98444372 2.9628447 2.096 4.743.00002989 1.003444-.15928737 2.000527-.472 2.954-.437 1.508-.85 2.933.543 6.418.6251102 1.2838971.58253282 2.7924061-.114 4.039-.823 1.323-2.543 2.215-4.895 2.561-.04133333-.506-.07266667-1.0133333-.094-1.522 1.37273456-.2583969 2.65847578-.8577675 3.739-1.743.38658818-.3856403.38926855-1.0110603.006-1.4-.3829113-.3916228-1.00875532-.4049576-1.408-.03-.71207283.5288386-1.52416374.9074968-2.387 1.113-.00133333-.5773333.007-1.1533333.025-1.728zm-.943 23.338c.02827516-2.3296331.27941986-4.6512147.75-6.933.278.308.447.53.451.534.21435935.2858125.5649147.4355547.91961524.3928203s.65965882-.2714531.8-.6c.14034119-.3285469.09474411-.7070078-.11961524-.9928203-.461865-.5903333-.97630431-1.1375736-1.537-1.635.369-1.481.678-2.426.686-2.449.06036825-.180481.06765692-.3744984.021-.559-.30632774-1.2521272-.54005058-2.5209084-.7-3.8 2.988-.427 5.238-1.642 6.386-3.489 1.0326723-1.7867775 1.1348107-3.9633693.274-5.839-1.139-2.845-.876-3.749-.48-5.117.36420671-1.135412.5494247-2.3206046.549-3.513-.12271858-2.3608814-1.11224907-4.5934673-2.779-6.27 2.717-2.493 7-3.52 9.891-4.2.88-.208 1.641-.389 2.2-.576 1.9173482-.68676513 3.4815863-2.10991225 4.346-3.954h12.684c.8645466 1.84140349 2.427076 3.26250634 4.342 3.949.563.187 1.324.368 2.2.576 3.851.914 10.194 2.432 11.966 7.24-3.56 2-2.878 7.142-2.844 7.377.0708539.4939454.4950029.8600619.994.858.0475134.0001204.0949724-.0032217.142-.01.5462689-.0774114.9266304-.582621.85-1.129-.006-.04-.459-3.511 1.446-5.076 1.3154972 5.3605875 1.8417077 10.8844511 1.562 16.397-1.1426466-.677536-1.8875886-1.865346-2-3.189-.001933-.5522847-.4512153-.998433-1.0035-.9965s-.998433.4512153-.9965 1.0035c.1289966 2.3690069 1.6110823 4.451791 3.807 5.35-.1623358 1.4844127-.4218934 2.9565748-.777 4.407-.0466569.1845016-.0393683.378519.021.559 1.1863687 3.7859137 1.8422759 7.7179915 1.949 11.684v6.9c-1.3540457-.8139131-2.1291935-2.3254514-2-3.9 0-5.817-2.04-9.284-5.766-9.893-.03-.768-.051-1.506-.07-2.181-.023-.85-.045-1.547-.078-2.108 1.7445953-1.4445947 2.8019716-3.5557187 2.914-5.818 0-.5522847-.4477153-1-1-1s-1 .4477153-1 1c-.0787659 1.2450003-.5409085 2.4351138-1.323 3.407-.139-.61-.284-1.224-.438-1.857-.8582298-3.0996265-1.361458-6.2867386-1.5-9.5v-.019-.023-.058c-.007-.112-.006-.232-.006-.351.308199-1.7849331.7154955-3.551331 1.22-5.291.1359245-.5135185-.1533674-1.0436959-.6587548-1.2072818s-1.0504798.0965144-1.2412452.5922818c-.5863489 2.0031324-1.0495482 4.0402741-1.387 6.1-1.182 2.684-1.819 3.192-2.038 3.281-4.556 1.848-11.174-.868-11.238-.9-.5094827-.2131819-1.0953181.0270173-1.3085.5365s.0270173 1.0953181.5365 1.3085c2.635048 1.0504127 5.4352702 1.6259632 8.271 1.7 1.5342252.0271075 3.0593193-.2414476 4.492-.791.1889529-.0811408.3675487-.1845384.532-.308-.075.486-.15.968-.239 1.486-.3829797 1.9385993-.6083827 3.9050227-.674 5.88.0058049 2.7139132.2127047 5.4236657.619 8.107.628436 3.9362328.7898871 7.9329027.481 11.907h-30.2c-.3102094-3.97394-.150101-7.9706091.477-11.907.407596-2.6829033.6158328-5.3923211.623-8.106-.0641369-1.9758727-.2882028-3.9433049-.67-5.883-.089-.518-.164-1-.238-1.486.1645312.1236133.3431048.2273337.532.309 1.4321754.5487652 2.9565261.8169695 4.49.79 2.8360455-.0741083 5.6365836-.6496541 8.272-1.7.5094827-.2131819.7496819-.7990173.5365-1.3085s-.7990173-.7496819-1.3085-.5365c-.065.028-6.684 2.745-11.237.9-.22-.09-.857-.6-2.039-3.282-.3374518-2.0597259-.8006511-4.0968676-1.387-6.1-.1907654-.4957674-.7358578-.7558677-1.2412452-.5922818s-.7946793.6937633-.6587548 1.2072818c.5047509 1.742714.9123779 3.5121024 1.221 5.3 0 .121 0 .249-.009.423-.1368055 3.2209896-.6400491 6.4159155-1.5 9.523-.271 1.117-.526 2.172-.741 3.252-.12810318 1.0363246-.18956283 2.0798026-.184 3.124.01446046 2.9626728-.25544349 5.9198959-.806 8.831l-1.813 7.242h-4.062c.44139424-1.6372774 1.32338559-3.1221357 2.55-4.293 2.07732165-1.8325548 2.55047405-4.8868061 1.125-7.262-.19828239-.297245-.5400812-.4661283-.89664411-.4430332s-.67371953.2346599-.83200002.555c-.1582805.3203401-.13363829.7007882.06464413.9980332.063.094 1.518 2.345-.875 4.738-.92991092.9177323-1.7043561 1.9806102-2.293 3.147z"/><path id="Shape" d="m29.687 51.052c-.5238394.1731886-.8084393.7379135-.636 1.262.2095065.5285818.2513998 1.108804.12 1.662-.0544991.0206437-.1129237.0288436-.171.024-.5522847 0-1 .4477153-1 1s.4477153 1 1 1c.7017328.0352524 1.3741049-.2849606 1.789-.852.856-1.187.283-3.094.159-3.464-.0826409-.2515737-.2622458-.4597744-.498977-.5784216-.2367313-.1186473-.5110186-.1379326-.762023-.0535784z"/><path id="Shape" d="m30 19c2.7614237 0 5-2.2385763 5-5s-2.2385763-5-5-5-5 2.2385763-5 5c.0033061 2.7600532 2.2399468 4.9966939 5 5zm0-8c1.6568542 0 3 1.3431458 3 3s-1.3431458 3-3 3-3-1.3431458-3-3 1.3431458-3 3-3z"/><path id="Shape" d="m24 11c.5522847 0 1-.4477153 1-1 0-.55228475-.4477153-1-1-1-1.086 0-2.835-.249-3.294-.707-.3923789-.37897221-1.0160848-.37355237-1.4018186.01218142-.3857338.3857338-.3911536 1.00943969-.0121814 1.40181858 1.231 1.231 4.138 1.293 4.708 1.293z"/><path id="Shape" d="m20.119 15.161c.6977508.0036428 1.3943559-.0569461 2.081-.181.3606322-.0593016.6601885-.3106176.7812685-.6554537s.0443954-.728259-.2-1-.6175689-.388511-.9732685-.3045463c-.043.008-4.388.8-5.972-1.575-.1982824-.297245-.5400812-.4661283-.8966441-.4430332s-.6737195.23466-.832.555c-.1582805.3203401-.1336383.7007882.0646441.9980332 1.447 2.176 4.09 2.606 5.947 2.606z"/><path id="Shape" d="m22.318 17.269c-.008.007-.874.731-3.318.731-.5522847 0-1 .4477153-1 1s.4477153 1 1 1c3.25 0 4.491-1.077 4.707-1.293.376705-.3790362.3820322-.9894468.012-1.375-.375083-.3921152-.9922368-.4198673-1.401-.063z"/><path id="Shape" d="m36 11c.57 0 3.477-.062 4.707-1.293.3789722-.39237889.3735524-1.01608478-.0121814-1.40181858-.3857338-.38573379-1.0094397-.39115363-1.4018186-.01218142-.459.458-2.208.707-3.293.707-.5522847 0-1 .44771525-1 1 0 .5522847.4477153 1 1 1z"/><path id="Shape" d="m38.194 13.019c-.5347815-.09286-1.0459983.2578411-1.1518727.790199-.1058743.5323578.2322552 1.0519753.7618727 1.170801.6853208.1238768 1.380582.1844653 2.077.181 1.857 0 4.5-.43 5.951-2.606.306518-.4595009.1825009-1.080482-.277-1.387s-1.080482-.1825009-1.387.277c-1.602 2.401-5.932 1.582-5.974 1.574z"/><path id="Shape" d="m41 18c-2.374 0-3.259-.683-3.315-.729-.3973315-.3792316-1.0261618-.3670116-1.4084598.0273705-.3822979.394382-.3749492 1.0232882.0164598 1.4086295.216.216 1.457 1.293 4.707 1.293.5522847 0 1-.4477153 1-1s-.4477153-1-1-1z"/><path id="Shape" d="m30 40c.5522847 0 1-.4477153 1-1v-4c0-.5522847-.4477153-1-1-1s-1 .4477153-1 1v4c0 .5522847.4477153 1 1 1z"/><path id="Shape" d="m30 47c.5522847 0 1-.4477153 1-1v-3c0-.5522847-.4477153-1-1-1s-1 .4477153-1 1v3c0 .5522847.4477153 1 1 1z"/><circle id="Oval" cx="53" cy="25" r="1"/><path id="Shape" d="m25.553 46.105c-1.4377822.6153836-2.9892637.920364-4.553.895-.5522847 0-1 .4477153-1 1s.4477153 1 1 1c1.8733406.0260283 3.7305707-.3490319 5.447-1.1.4942949-.2468713.6948713-.8477051.448-1.342s-.8477051-.6948713-1.342-.448z"/><path id="Shape" d="m25.553 39.1c-1.4374097.6170985-2.9889056.9237856-4.553.9-.5522847 0-1 .4477153-1 1s.4477153 1 1 1c1.8733406.0260283 3.7305707-.3490319 5.447-1.1.4942949-.2468713.6948713-.8477051.448-1.342s-.8477051-.6948713-1.342-.448z"/><path id="Shape" d="m33.553 47.9c1.7164293.7509681 3.5736594 1.1260283 5.447 1.1.5522847 0 1-.4477153 1-1s-.4477153-1-1-1c-1.5645321.0179441-3.1158098-.288498-4.556-.9-.494571-.2460428-1.0949571-.044571-1.341.45-.2460428.494571-.044571 1.0949571.45 1.341z"/><path id="Shape" d="m33.553 40.9c1.7164293.7509681 3.5736594 1.1260283 5.447 1.1.5522847 0 1-.4477153 1-1s-.4477153-1-1-1c-1.5645321.0179441-3.1158098-.288498-4.556-.9-.3199313-.1591618-.7004719-.1355521-.9982757.0619357-.2978039.1974877-.4676275.5388504-.4455.8955.0221274.3566496.2328444.6744025.5527757.8335643z"/></g></g></svg>