<svg xmlns="http://www.w3.org/2000/svg" version="1.1" xmlns:xlink="http://www.w3.org/1999/xlink" xmlns:svgjs="http://svgjs.com/svgjs" width="20" height="20" x="0" y="0" viewBox="0 0 513 513" style="enable-background:new 0 0 512 512" xml:space="preserve" class=""><g><g><path d="m70.949 110.124c7.594 2.777 16.396-1.196 19.175-9.073 0 0 6.277-17.55 6.277-17.55h35.807l6.141 17.473c2.747 7.815 11.312 11.922 19.125 9.177 7.815-2.747 11.925-11.31 9.178-19.125l-28.47-81c-2.111-6.006-7.784-10.026-14.152-10.026h-19.062c-6.337 0-11.99 3.982-14.124 9.949l-28.969 81c-2.789 7.8 1.274 16.385 9.074 19.175zm43.511-77.118 7.204 20.496h-14.534z" fill="#c1bfbf" data-original="#000000" class=""></path><path d="m175.322 30h5.589v66c0 8.284 6.716 15 15 15s15-6.716 15-15v-66h5.59c8.284 0 15-6.716 15-15s-6.716-15-15-15h-41.179c-19.864.73-19.883 29.264 0 30z" fill="#c1bfbf" data-original="#000000" class=""></path><path d="m257.322 30h5.589v66c0 8.284 6.716 15 15 15s15-6.716 15-15v-66h5.59c8.284 0 15-6.716 15-15s-6.716-15-15-15h-41.179c-19.864.73-19.883 29.264 0 30z" fill="#c1bfbf" data-original="#000000" class=""></path><path d="m363.5 111c24.813 0 45-20.187 45-45v-21c-2.259-59.611-87.745-59.606-90 .001 0-.001 0 20.999 0 20.999 0 24.813 20.187 45 45 45zm-15-66c.751-19.867 29.247-19.872 30 0v21c0 8.271-6.729 15-15 15s-15-6.729-15-15z" fill="#c1bfbf" data-original="#000000" class=""></path><path d="m467.5 0c-24.813 0-45 20.187-45 45v21c2.259 59.611 87.745 59.606 90-.001v-20.999c0-24.813-20.186-45-45-45zm15 66c-.751 19.867-29.247 19.872-30 0v-21c0-8.271 6.729-15 15-15s15 6.729 15 15z" fill="#c1bfbf" data-original="#000000" class=""></path><path d="m29.161 498c0 8.284 6.716 15 15 15h108v-187c0-8.284 6.716-15 15-15h180.339c8.284 0 15 6.716 15 15v187h108c8.284 0 15-6.716 15-15v-267h-456.339z" fill="#c1bfbf" data-original="#000000" class=""></path><path d="m272.331 341h60.169v172h-60.169z" fill="#c1bfbf" data-original="#000000" class=""></path><path d="m182.161 341h60.17v172h-60.17z" fill="#c1bfbf" data-original="#000000" class=""></path><path d="m15.5 30h5.589v64c0 8.284 6.716 15 15 15s15-6.716 15-15v-64h5.59c8.284 0 15-6.716 15-15s-6.716-15-15-15h-41.179c-19.863.73-19.882 29.264 0 30z" fill="#c1bfbf" data-original="#000000" class=""></path><path d="m497.5 141h-482c-8.284 0-15 6.716-15 15v30c0 8.284 6.716 15 15 15h482c8.284 0 15-6.716 15-15v-30c0-8.284-6.715-15-15-15z" fill="#c1bfbf" data-original="#000000" class=""></path></g></g></svg>