<svg height="70" viewBox="0 0 56 56" width="70" xmlns="http://www.w3.org/2000/svg"><g id="Page-1" fill="none" fill-rule="evenodd"><g id="008---Tattooed-Chest" fill="rgb(0,0,0)" fill-rule="nonzero"><circle id="Oval" cx="28" cy="12" r="3"/><path id="Shape" d="m50.592 55.243c.1114591.4449311.5113206.7569879.97.757h1.625c-.8159022-1.1708102-1.2321975-2.5736585-1.187-4 0-4.54-1.229-7.166-3.656-7.828.0794782 1.5432067.2888861 3.0769688.626 4.585z"/><path id="Shape" d="m4.713 26.311c.38326855.3889397.38058818 1.0143597-.006 1.4-1.08093774.8837956-2.36664567 1.4817753-3.739 1.739.022.5086667.05333333 1.016.094 1.522 2.352-.346 4.072-1.238 4.895-2.561.69653282-1.2465939.7391102-2.7551029.114-4.039-1.393-3.485-.98-4.91-.543-6.418.31271263-.953473.47202989-1.950556.472-2.954-.1110121-1.7798925-.85354018-3.4617505-2.094-4.743-.41737709.6196624-.73584909 1.3004637-.944 2.018-1.00141677 3.6329297-1.63790185 7.3567024-1.9 11.116.42418036-.2455987.79999897-.5665186 1.109-.947.19571801-.3038342.54014998-.4784196.90090882-.4566519s.68169985.2365008.83946502.5616637.12780158.7101508-.07837384 1.0069882c-.74285072.9623083-1.74467838 1.6928655-2.888 2.106-.018.5746667-.02633333 1.152-.025 1.732.86283626-.2055032 1.67492717-.5841614 2.387-1.113.39898305-.3736463 1.0233179-.3603248 1.406.03z"/><path id="Shape" d="m3.168 45.555c-.19828242-.297245-.22292463-.6776931-.06464413-.9980332.15828049-.3203401.47543711-.5319049.83200002-.555s.69836172.1457882.89664411.4430332c1.42547405 2.3751939.95232165 5.4294452-1.125 7.262-1.22661441 1.1708643-2.10860576 2.6557226-2.55 4.293h3.281c.45867939-.0000121.85854091-.3120689.97-.757l1.622-6.486c.55055651-2.9111041.82046046-5.8683272.806-8.831-.00564845-1.0448645.05581136-2.0890133.184-3.126.215-1.08.47-2.135.741-3.252.85995091-3.1070845 1.3631945-6.3020104 1.5-9.523.008-.174.009-.3.009-.423-.30862212-1.7878976-.71624914-3.557286-1.221-5.3-.1359245-.5135185.15336744-1.0436959.65875483-1.2072818.50538737-.1635859 1.05047977.0965144 1.24124517.5922818.5863489 2.0031324 1.0495482 4.0402741 1.387 6.1 1.182 2.684 1.819 3.192 2.039 3.282 4.553 1.848 11.172-.869 11.237-.9.3295775-.1379045.7076909-.089506.9919084.1269642.2842176.2164702.43136.5681252.386.9225-.0453599.3543747-.2763309.6576313-.6059084.7955358-2.6354164 1.0503459-5.4359545 1.6258917-8.272 1.7-1.5334739.0269695-3.0578246-.2412348-4.49-.79-.1888952-.0816663-.3674688-.1853867-.532-.309.074.485.149.968.238 1.486.3826298 1.9406261.6073653 3.9090686.672 5.886-.0058433 2.7135798-.212743 5.4229971-.619 8.106-.5699566 3.6303697-.754649 7.3108091-.551 10.98.0383224.5235899.4750114.9284006 1 .927h28.34c.5249886.0014006.9616776-.4034101 1-.927.203649-3.6691909.0189566-7.3496303-.551-10.98-.4062953-2.6833343-.6131951-5.3930868-.619-8.107.0641907-1.9755379.2882564-3.9426335.67-5.882.089-.518.164-1 .239-1.486-.1644513.1234616-.3430471.2268592-.532.308-1.4326807.5495524-2.9577748.8181075-4.492.791-2.8357298-.0740368-5.635952-.6495873-8.271-1.7-.3295775-.1379045-.5605485-.4411611-.6059084-.7955358-.04536-.3543748.1017824-.7060298.386-.9225.2842175-.2164702.6623309-.2648687.9919084-.1269642.064.028 6.682 2.744 11.238.9.219-.089.856-.6 2.038-3.281.3374518-2.0597259.8006511-4.0968676 1.387-6.1.1907654-.4957674.7358578-.7558677 1.2412452-.5922818s.7946793.6937633.6587548 1.2072818c-.5045045 1.739669-.911801 3.5060669-1.22 5.291 0 .119 0 .239.006.351v.058.023.019c.138542 3.2132614.6417702 6.4003735 1.5 9.5.154.633.3 1.247.438 1.857.7831472-.9708454 1.2466821-2.1602473 1.327-3.405 0-.5522847.4477153-1 1-1s1 .4477153 1 1c-.1120284 2.2622813-1.1694047 4.3734053-2.914 5.818.033.561.055 1.258.078 2.108.019.675.04 1.413.07 2.181 3.726.609 5.766 4.076 5.766 9.893-.1291935 1.5745486.6459543 3.0860869 2 3.9v-6.9c-.1067241-3.9660085-.7626313-7.8980863-1.949-11.684-.0603683-.180481-.0676569-.3744984-.021-.559.3551066-1.4504252.6146642-2.9225873.777-4.407-2.1959177-.898209-3.6780034-2.9809931-3.807-5.35-.001933-.5522847.4442153-1.001567.9965-1.0035s1.001567.4442153 1.0035.9965c.1124114 1.323654.8573534 2.511464 2 3.189.279674-5.5135956-.2468756-11.0384918-1.563-16.4-1.905 1.565-1.452 5.036-1.446 5.076.0766304.546379-.3037311 1.0515886-.85 1.129-.0466242.0077345-.0937476.0120792-.141.013-.4963906-.0008552-.9170168-.3657101-.988-.857-.034-.235-.716-5.373 2.844-7.377-1.772-4.808-8.115-6.326-11.966-7.24-.88-.208-1.641-.389-2.2-.576-1.7374135-.61013555-3.1896451-1.83812558-4.08-3.45-.1786283-.30939322-.5087435-.49999092-.866-.5h-11.488c-.3572565.00000908-.6873717.19060678-.866.5-.8898419 1.60886717-2.3396501 2.83483408-4.074 3.445-.563.187-1.324.368-2.2.576-2.887.685-7.174 1.712-9.891 4.205 1.66618131 1.678159 2.65432766 3.91226 2.775 6.274-.00042924 1.1918297-.18631985 2.3763341-.551 3.511-.4 1.368-.659 2.272.48 5.117.86081067 1.8756307.75867227 4.0522225-.274 5.839-1.148 1.847-3.4 3.062-6.386 3.489.15994942 1.2790916.39367226 2.5478728.7 3.8.04665692.1845016.03936825.378519-.021.559-.008.023-.317.968-.686 2.449.56108851.497698 1.07586519 1.0452758 1.538 1.636.33137081.4418278.24182774 1.0686291-.20000004 1.3999999-.44182778.3313709-1.0686291.2418279-1.39999996-.1999999 0 0-.173-.226-.451-.534-.47030757 2.2821453-.72111771 4.6040646-.749 6.934v4.44c.5886439-1.1663898 1.36308908-2.2292677 2.293-3.147 2.393-2.393.938-4.644.875-4.738zm27.937-8c.246303-.493126.8452012-.6939514 1.339-.449 1.4406288.6094449 2.9918898.9138407 4.556.894.5522847 0 1 .4477153 1 1s-.4477153 1-1 1c-1.8733406.0260283-3.7305707-.3490319-5.447-1.1-.2396347-.1175569-.4223276-.3260363-.5074098-.5790292s-.065492-.5295008.0544098-.7679708zm0 7c.246303-.493126.8452012-.6939514 1.339-.449 1.4406288.6094449 2.9918898.9138407 4.556.894.5522847 0 1 .4477153 1 1s-.4477153 1-1 1c-1.8733406.0260283-3.7305707-.3490319-5.447-1.1-.2396347-.1175569-.4223276-.3260363-.5074098-.5790292s-.065492-.5295008.0544098-.7679708zm19.895-22.555c.5522847 0 1 .4477153 1 1s-.4477153 1-1 1-1-.4477153-1-1 .4477153-1 1-1zm-29.293-5.293c-.216.216-1.457 1.293-4.707 1.293-.5522847 0-1-.4477153-1-1s.4477153-1 1-1c2.444 0 3.31-.724 3.318-.731.4086145-.3562248 1.0250325-.328486 1.4.063.3703071.3852829.3654238.9956909-.011 1.375zm5.293 16.293c0-.5522847.4477153-1 1-1s1 .4477153 1 1v4c0 .5522847-.4477153 1-1 1s-1-.4477153-1-1zm0 8c0-.5522847.4477153-1 1-1s1 .4477153 1 1v3c0 .5522847-.4477153 1-1 1s-1-.4477153-1-1zm-2.553 4.9c-1.7164293.7509681-3.5736594 1.1260283-5.447 1.1-.5522847 0-1-.4477153-1-1s.4477153-1 1-1c1.5640944.0237856 3.1155903-.2829015 4.553-.9.4942949-.2468713 1.0951287-.0462949 1.342.448s.0462949 1.0951287-.448 1.342zm0-7c-1.7164293.7509681-3.5736594 1.1260283-5.447 1.1-.5522847 0-1-.4477153-1-1s.4477153-1 1-1c1.5640944.0237856 3.1155903-.2829015 4.553-.9.4942949-.2468713 1.0951287-.0462949 1.342.448s.0462949 1.0951287-.448 1.342zm4.342 14.253c-.4160055.565153-1.0881907.8833983-1.789.847-.5522847 0-1-.4477153-1-1s.4477153-1 1-1c.0580763.0048436.1165009-.0033563.171-.024.1313998-.553196.0895065-1.1334182-.12-1.662-.1739697-.5246705.1103295-1.0910303.635-1.265.5246705-.1739696 1.0910303.1103295 1.265.635.121.37.694 2.277-.162 3.464zm10.211-35.153c-3.25 0-4.491-1.077-4.707-1.293-.391409-.3853413-.3987577-1.0142475-.0164598-1.4086295.382298-.3943821 1.0111283-.4066021 1.4084598-.0273705.056.046.941.729 3.315.729.5522847 0 1 .4477153 1 1s-.4477153 1-1 1zm3.168-8.555c.306518-.45950091.9274991-.58351804 1.387-.277s.583518.9274991.277 1.387c-1.451 2.176-4.094 2.606-5.951 2.606-.6977536.0037108-1.3943649-.0568786-2.081-.181-.5296175-.1188257-.867747-.6384432-.7618727-1.170801.1058744-.5323579.6170912-.883059 1.1518727-.790199.046.008 4.376.827 5.978-1.574zm-8.168-2.445c1.086 0 2.835-.249 3.294-.707.3923789-.37897221 1.0160848-.37355237 1.4018186.01218142.3857338.3857338.3911536 1.00943969.0121814 1.40181858-1.231 1.231-4.138 1.293-4.708 1.293-.5522847 0-1-.44771525-1-1s.4477153-1 1-1zm-6 0c2.7614237 0 5 2.23857625 5 5 0 2.7614237-2.2385763 5-5 5s-5-2.2385763-5-5c.0033061-2.76005315 2.2399468-4.99669388 5-5zm-10.707-.707c.3904999-.39038194 1.0235001-.39038194 1.414 0 .459.458 2.208.707 3.293.707.5522847 0 1 .44771525 1 1s-.4477153 1-1 1c-.57 0-3.477-.062-4.707-1.293-.3903819-.39049985-.3903819-1.02350015 0-1.414zm-4.848 2.875c.2206502-.14722824.4907558-.20075724.7508787-.14880768s.488948.20512081.6361213.42580768c1.584 2.377 5.929 1.583 5.972 1.575.3556996-.0839647.7288731.0328053.9732685.3045463s.32108.6551639.2 1-.4206363.5961521-.7812685.6554537c-.6853298.1238096-1.3805847.1843975-2.077.181-1.857 0-4.5-.43-5.951-2.606-.1472282-.2206502-.2007572-.4907558-.1488077-.75087868.0519496-.26012289.2051208-.48894802.4258077-.63612132z"/></g></g></svg>