<svg xmlns="http://www.w3.org/2000/svg" version="1.1" xmlns:xlink="http://www.w3.org/1999/xlink" xmlns:svgjs="http://svgjs.com/svgjs" width="70" height="70" x="0" y="0" viewBox="0 0 682.66669 682.66669" style="enable-background:new 0 0 512 512" xml:space="preserve" class=""><g><defs id="defs2581"><clipPath clipPathUnits="userSpaceOnUse" id="clipPath2599"><path d="M 0,512 H 512 V 0 H 0 Z" id="path2597" fill="#9e8a78" data-original="#000000"></path></clipPath></defs><g id="g2583" transform="matrix(1.3333333,0,0,-1.3333333,0,682.66667)"><g id="g2585" transform="translate(339.5273,340.9937)"><path d="M 0,0 -54.099,31.234 -16.372,96.579 37.727,65.344 Z" style="stroke-width:15;stroke-linecap:round;stroke-linejoin:round;stroke-miterlimit:10;stroke-dasharray:none;stroke-opacity:1" id="path2587" fill="none" stroke="#9e8a78" stroke-width="15" stroke-linecap="round" stroke-linejoin="round" stroke-miterlimit="10" stroke-dasharray="none" stroke-opacity="" data-original="#000000" class=""></path></g><g id="g2589" transform="translate(393.627,309.7593)"><path d="m 0,0 -54.1,31.234 37.727,65.345 54.1,-31.234 z" style="stroke-width:15;stroke-linecap:round;stroke-linejoin:round;stroke-miterlimit:10;stroke-dasharray:none;stroke-opacity:1" id="path2591" fill="none" stroke="#9e8a78" stroke-width="15" stroke-linecap="round" stroke-linejoin="round" stroke-miterlimit="10" stroke-dasharray="none" stroke-opacity="" data-original="#000000" class=""></path></g><g id="g2593"><g id="g2595" clip-path="url(#clipPath2599)"><g id="g2601" transform="translate(336.7979,342.5698)"><path d="m 0,0 -48.64,28.082 c -1.507,0.87 -3.435,0.354 -4.305,-1.154 l -8.298,-14.372 c -0.87,-1.508 -0.354,-3.436 1.153,-4.306 l 48.64,-28.083 c 1.508,-0.87 3.435,-0.353 4.305,1.154 L 1.153,-4.306 C 2.024,-2.798 1.508,-0.871 0,0 Z" style="stroke-width:15;stroke-linecap:round;stroke-linejoin:round;stroke-miterlimit:10;stroke-dasharray:none;stroke-opacity:1" id="path2603" fill="none" stroke="#9e8a78" stroke-width="15" stroke-linecap="round" stroke-linejoin="round" stroke-miterlimit="10" stroke-dasharray="none" stroke-opacity="" data-original="#000000" class=""></path></g><g id="g2605" transform="translate(390.8965,311.3354)"><path d="m 0,0 -48.639,28.082 c -1.507,0.871 -3.435,0.354 -4.306,-1.154 l -8.298,-14.372 c -0.87,-1.508 -0.354,-3.436 1.154,-4.306 l 48.64,-28.082 c 1.507,-0.871 3.435,-0.354 4.305,1.154 L 1.154,-4.306 C 2.024,-2.798 1.508,-0.871 0,0 Z" style="stroke-width:15;stroke-linecap:round;stroke-linejoin:round;stroke-miterlimit:10;stroke-dasharray:none;stroke-opacity:1" id="path2607" fill="none" stroke="#9e8a78" stroke-width="15" stroke-linecap="round" stroke-linejoin="round" stroke-miterlimit="10" stroke-dasharray="none" stroke-opacity="" data-original="#000000" class=""></path></g><g id="g2609" transform="translate(385.9746,427.7461)"><path d="m 0,0 -48.64,28.082 c -1.507,0.871 -3.435,0.354 -4.305,-1.154 l -8.298,-14.372 c -0.87,-1.508 -0.354,-3.436 1.153,-4.306 l 48.64,-28.082 c 1.508,-0.871 3.435,-0.354 4.305,1.154 L 1.153,-4.306 C 2.024,-2.798 1.508,-0.87 0,0 Z" style="stroke-width:15;stroke-linecap:round;stroke-linejoin:round;stroke-miterlimit:10;stroke-dasharray:none;stroke-opacity:1" id="path2611" fill="none" stroke="#9e8a78" stroke-width="15" stroke-linecap="round" stroke-linejoin="round" stroke-miterlimit="10" stroke-dasharray="none" stroke-opacity="" data-original="#000000" class=""></path></g><g id="g2613" transform="translate(440.0732,396.5122)"><path d="m 0,0 -48.639,28.082 c -1.507,0.87 -3.435,0.354 -4.306,-1.154 l -8.298,-14.372 c -0.87,-1.508 -0.354,-3.436 1.154,-4.306 l 48.64,-28.083 c 1.507,-0.87 3.435,-0.353 4.305,1.154 L 1.154,-4.306 C 2.024,-2.798 1.508,-0.871 0,0 Z" style="stroke-width:15;stroke-linecap:round;stroke-linejoin:round;stroke-miterlimit:10;stroke-dasharray:none;stroke-opacity:1" id="path2615" fill="none" stroke="#9e8a78" stroke-width="15" stroke-linecap="round" stroke-linejoin="round" stroke-miterlimit="10" stroke-dasharray="none" stroke-opacity="" data-original="#000000" class=""></path></g><g id="g2617" transform="translate(391.7285,368.9395)"><path d="M 0,0 27.05,-15.617" style="stroke-width:15;stroke-linecap:round;stroke-linejoin:round;stroke-miterlimit:10;stroke-dasharray:none;stroke-opacity:1" id="path2619" fill="none" stroke="#9e8a78" stroke-width="15" stroke-linecap="round" stroke-linejoin="round" stroke-miterlimit="10" stroke-dasharray="none" stroke-opacity="" data-original="#000000" class=""></path></g><g id="g2621" transform="translate(337.6289,400.1733)"><path d="M 0,0 27.05,-15.617" style="stroke-width:15;stroke-linecap:round;stroke-linejoin:round;stroke-miterlimit:10;stroke-dasharray:none;stroke-opacity:1" id="path2623" fill="none" stroke="#9e8a78" stroke-width="15" stroke-linecap="round" stroke-linejoin="round" stroke-miterlimit="10" stroke-dasharray="none" stroke-opacity="" data-original="#000000" class=""></path></g><g id="g2625" transform="translate(379.1523,347.1582)"><path d="M 0,0 27.05,-15.617" style="stroke-width:15;stroke-linecap:round;stroke-linejoin:round;stroke-miterlimit:10;stroke-dasharray:none;stroke-opacity:1" id="path2627" fill="none" stroke="#9e8a78" stroke-width="15" stroke-linecap="round" stroke-linejoin="round" stroke-miterlimit="10" stroke-dasharray="none" stroke-opacity="" data-original="#000000" class=""></path></g><g id="g2629" transform="translate(325.0537,378.3921)"><path d="M 0,0 27.05,-15.617" style="stroke-width:15;stroke-linecap:round;stroke-linejoin:round;stroke-miterlimit:10;stroke-dasharray:none;stroke-opacity:1" id="path2631" fill="none" stroke="#9e8a78" stroke-width="15" stroke-linecap="round" stroke-linejoin="round" stroke-miterlimit="10" stroke-dasharray="none" stroke-opacity="" data-original="#000000" class=""></path></g><g id="g2633" transform="translate(319.8916,494.2778)"><path d="m 0,0 -16.793,9.695 c -1.829,1.056 -4.168,0.43 -5.224,-1.4 L -30.48,-6.364 c -1.057,-1.829 -0.43,-4.169 1.399,-5.225 l 157.391,-90.869 c 1.829,-1.056 4.168,-0.43 5.224,1.4 l 8.464,14.659 c 1.056,1.83 0.429,4.169 -1.4,5.225 L 30.311,-17.5" style="stroke-width:15;stroke-linecap:round;stroke-linejoin:round;stroke-miterlimit:10;stroke-dasharray:none;stroke-opacity:1" id="path2635" fill="none" stroke="#9e8a78" stroke-width="15" stroke-linecap="round" stroke-linejoin="round" stroke-miterlimit="10" stroke-dasharray="none" stroke-opacity="" data-original="#000000" class=""></path></g><g id="g2637" transform="translate(279.291,401.2603)"><path d="m 0,0 -23.241,13.418 -22.487,-38.949 23.241,-13.418 z" style="stroke-width:15;stroke-linecap:round;stroke-linejoin:round;stroke-miterlimit:10;stroke-dasharray:none;stroke-opacity:1" id="path2639" fill="none" stroke="#9e8a78" stroke-width="15" stroke-linecap="round" stroke-linejoin="round" stroke-miterlimit="10" stroke-dasharray="none" stroke-opacity="" data-original="#000000" class=""></path></g><g id="g2641" transform="translate(230.7759,317.2285)"><path d="M 0,0 -23.241,13.418 -35.813,-8.356 -12.572,-21.774 Z" style="stroke-width:15;stroke-linecap:round;stroke-linejoin:round;stroke-miterlimit:10;stroke-dasharray:none;stroke-opacity:1" id="path2643" fill="none" stroke="#9e8a78" stroke-width="15" stroke-linecap="round" stroke-linejoin="round" stroke-miterlimit="10" stroke-dasharray="none" stroke-opacity="" data-original="#000000" class=""></path></g><g id="g2645" transform="translate(224.0005,292.1074)"><path d="m 0,0 -34.833,20.111 c -4.116,2.377 -9.379,0.966 -11.756,-3.15 L -54.857,2.639 -5.119,-26.077 3.15,-11.755 C 5.526,-7.639 4.116,-2.376 0,0 Z" style="stroke-width:15;stroke-linecap:round;stroke-linejoin:round;stroke-miterlimit:10;stroke-dasharray:none;stroke-opacity:1" id="path2647" fill="none" stroke="#9e8a78" stroke-width="15" stroke-linecap="round" stroke-linejoin="round" stroke-miterlimit="10" stroke-dasharray="none" stroke-opacity="" data-original="#000000" class=""></path></g><g id="g2649" transform="translate(181.0439,200.7773)"><path d="m 0,0 -49.493,28.575 c -0.068,0.039 -0.154,0.016 -0.194,-0.052 l -8.198,-14.199 c -2.376,-4.116 -0.966,-9.379 3.15,-11.756 l 34.834,-20.111 c 4.116,-2.376 9.379,-0.966 11.755,3.15 l 8.198,14.2 C 0.091,-0.126 0.068,-0.039 0,0 Z" style="stroke-width:15;stroke-linecap:round;stroke-linejoin:round;stroke-miterlimit:10;stroke-dasharray:none;stroke-opacity:1" id="path2651" fill="none" stroke="#9e8a78" stroke-width="15" stroke-linecap="round" stroke-linejoin="round" stroke-miterlimit="10" stroke-dasharray="none" stroke-opacity="" data-original="#000000" class=""></path></g><g id="g2653" transform="translate(211.4292,270.333)"><path d="m 0,0 -34.834,20.111 c -4.116,2.376 -9.379,0.966 -11.755,-3.15 l -3.966,-6.869 c -2.377,-4.116 -0.966,-9.379 3.15,-11.756 l 34.833,-20.111 c 4.116,-2.376 9.379,-0.966 11.755,3.15 l 3.966,6.87 C 5.526,-7.639 4.116,-2.376 0,0 Z" style="stroke-width:15;stroke-linecap:round;stroke-linejoin:round;stroke-miterlimit:10;stroke-dasharray:none;stroke-opacity:1" id="path2655" fill="none" stroke="#9e8a78" stroke-width="15" stroke-linecap="round" stroke-linejoin="round" stroke-miterlimit="10" stroke-dasharray="none" stroke-opacity="" data-original="#000000" class=""></path></g><g id="g2657" transform="translate(198.8574,248.5581)"><path d="m 0,0 -34.833,20.111 c -4.117,2.377 -9.379,0.967 -11.756,-3.15 l -3.966,-6.869 c -2.376,-4.116 -0.966,-9.379 3.15,-11.755 l 34.833,-20.111 c 4.116,-2.377 9.379,-0.966 11.756,3.149 l 3.966,6.87 C 5.526,-7.639 4.116,-2.376 0,0 Z" style="stroke-width:15;stroke-linecap:round;stroke-linejoin:round;stroke-miterlimit:10;stroke-dasharray:none;stroke-opacity:1" id="path2659" fill="none" stroke="#9e8a78" stroke-width="15" stroke-linecap="round" stroke-linejoin="round" stroke-miterlimit="10" stroke-dasharray="none" stroke-opacity="" data-original="#000000" class=""></path></g><g id="g2661" transform="translate(186.2856,226.7837)"><path d="m 0,0 -34.833,20.111 c -4.116,2.377 -9.379,0.966 -11.755,-3.15 l -3.967,-6.869 c -2.376,-4.116 -0.966,-9.379 3.15,-11.755 l 34.834,-20.111 c 4.115,-2.377 9.379,-0.967 11.755,3.149 l 3.966,6.87 C 5.526,-7.639 4.116,-2.376 0,0 Z" style="stroke-width:15;stroke-linecap:round;stroke-linejoin:round;stroke-miterlimit:10;stroke-dasharray:none;stroke-opacity:1" id="path2663" fill="none" stroke="#9e8a78" stroke-width="15" stroke-linecap="round" stroke-linejoin="round" stroke-miterlimit="10" stroke-dasharray="none" stroke-opacity="" data-original="#000000" class=""></path></g><g id="g2665" transform="translate(267.6709,407.9692)"><path d="M 0,0 38.14,66.06" style="stroke-width:15;stroke-linecap:round;stroke-linejoin:round;stroke-miterlimit:10;stroke-dasharray:none;stroke-opacity:1" id="path2667" fill="none" stroke="#9e8a78" stroke-width="15" stroke-linecap="round" stroke-linejoin="round" stroke-miterlimit="10" stroke-dasharray="none" stroke-opacity="" data-original="#000000" class=""></path></g><g id="g2669" transform="translate(355.584,266.1069)"><path d="m 0,0 10.428,-6.021 c 4.369,-2.522 9.957,-1.025 12.48,3.345 l 10.483,18.155 c 1.055,1.83 0.428,4.169 -1.401,5.225 l -173.705,100.289 c -1.83,1.056 -4.169,0.429 -5.225,-1.4 l -21.142,-36.618 c -1.643,-2.845 -0.668,-6.484 2.178,-8.127 l 63.423,-36.617 c 2.845,-1.643 6.484,-0.668 8.127,2.178 l 2.088,3.619 c 2.21,3.828 7.106,5.139 10.933,2.929 L -30.311,17.5" style="stroke-width:15;stroke-linecap:round;stroke-linejoin:round;stroke-miterlimit:10;stroke-dasharray:none;stroke-opacity:1" id="path2671" fill="none" stroke="#9e8a78" stroke-width="15" stroke-linecap="round" stroke-linejoin="round" stroke-miterlimit="10" stroke-dasharray="none" stroke-opacity="" data-original="#000000" class=""></path></g><g id="g2673" transform="translate(419.3691,184.627)"><path d="M 0,0 V -54.11 C 0,-66.2 -9.801,-76 -21.89,-76 c -12.089,0 -21.889,9.8 -21.889,21.89 v 48.727 c 0,-16.263 -13.184,-29.448 -29.448,-29.448 -16.262,0 -29.446,13.185 -29.446,29.448" style="stroke-width:15;stroke-linecap:round;stroke-linejoin:round;stroke-miterlimit:10;stroke-dasharray:none;stroke-opacity:1" id="path2675" fill="none" stroke="#9e8a78" stroke-width="15" stroke-linecap="round" stroke-linejoin="round" stroke-miterlimit="10" stroke-dasharray="none" stroke-opacity="" data-original="#000000" class=""></path></g><g id="g2677" transform="translate(474.71,138.8511)"><path d="m 0,0 h -33.452 c -12.089,0 -21.889,9.8 -21.889,21.89 0,12.089 9.8,21.889 21.889,21.889 H 0 c 12.089,0 21.89,-9.8 21.89,-21.889 C 21.89,9.8 12.089,0 0,0 Z" style="stroke-width:15;stroke-linecap:round;stroke-linejoin:round;stroke-miterlimit:10;stroke-dasharray:none;stroke-opacity:1" id="path2679" fill="none" stroke="#9e8a78" stroke-width="15" stroke-linecap="round" stroke-linejoin="round" stroke-miterlimit="10" stroke-dasharray="none" stroke-opacity="" data-original="#000000" class=""></path></g><g id="g2681" transform="translate(476.3252,51.2935)"><path d="m 0,0 h -33.452 c -12.089,0 -21.89,9.8 -21.89,21.889 0,12.09 9.801,21.89 21.89,21.89 H 0 c 12.089,0 21.889,-9.8 21.889,-21.89 C 21.889,9.8 12.089,0 0,0 Z" style="stroke-width:15;stroke-linecap:round;stroke-linejoin:round;stroke-miterlimit:10;stroke-dasharray:none;stroke-opacity:1" id="path2683" fill="none" stroke="#9e8a78" stroke-width="15" stroke-linecap="round" stroke-linejoin="round" stroke-miterlimit="10" stroke-dasharray="none" stroke-opacity="" data-original="#000000" class=""></path></g><g id="g2685" transform="translate(454.4678,7.5142)"><path d="m 0,0 h -33.451 c -12.09,0 -21.89,9.8 -21.89,21.89 0,12.089 9.8,21.889 21.89,21.889 H 0 c 12.089,0 21.89,-9.8 21.89,-21.889 C 21.89,9.8 12.089,0 0,0 Z" style="stroke-width:15;stroke-linecap:round;stroke-linejoin:round;stroke-miterlimit:10;stroke-dasharray:none;stroke-opacity:1" id="path2687" fill="none" stroke="#9e8a78" stroke-width="15" stroke-linecap="round" stroke-linejoin="round" stroke-miterlimit="10" stroke-dasharray="none" stroke-opacity="" data-original="#000000" class=""></path></g><g id="g2689" transform="translate(482.6104,95.0723)"><path d="m 0,0 h -33.451 c -12.09,0 -21.89,9.8 -21.89,21.889 v 0.001 c 0,12.089 9.8,21.889 21.89,21.889 H 0 c 12.09,0 21.89,-9.8 21.89,-21.889 V 21.889 C 21.89,9.8 12.09,0 0,0 Z" style="stroke-width:15;stroke-linecap:round;stroke-linejoin:round;stroke-miterlimit:10;stroke-dasharray:none;stroke-opacity:1" id="path2691" fill="none" stroke="#9e8a78" stroke-width="15" stroke-linecap="round" stroke-linejoin="round" stroke-miterlimit="10" stroke-dasharray="none" stroke-opacity="" data-original="#000000" class=""></path></g><g id="g2693" transform="translate(131.9863,200.0684)"><path d="m 0,0 -8.25,-14.291 c 3.457,-3.893 4.22,-9.705 1.474,-14.462 -2.746,-4.757 -8.162,-7.002 -13.262,-5.954 l -5.527,-9.574 c -6.975,-12.08 -9.594,-26.186 -7.421,-39.965 13.019,5.008 23.925,14.329 30.9,26.409 l 25.565,44.281 z" style="stroke-width:15;stroke-linecap:round;stroke-linejoin:round;stroke-miterlimit:10;stroke-dasharray:none;stroke-opacity:1" id="path2695" fill="none" stroke="#9e8a78" stroke-width="15" stroke-linecap="round" stroke-linejoin="round" stroke-miterlimit="10" stroke-dasharray="none" stroke-opacity="" data-original="#000000" class=""></path></g><g id="g2697" transform="translate(474.71,182.6299)"><path d="m 0,0 h -55.341 v 21.89 c 0,12.089 -9.801,21.889 -21.889,21.889 h -32.061 c -27.435,0 -52.513,-10.094 -71.721,-26.772 -7.489,-6.502 -17.169,-9.92 -27.086,-9.92 l -91.791,-0.002" style="stroke-width:15;stroke-linecap:round;stroke-linejoin:round;stroke-miterlimit:10;stroke-dasharray:none;stroke-opacity:1" id="path2699" fill="none" stroke="#9e8a78" stroke-width="15" stroke-linecap="round" stroke-linejoin="round" stroke-miterlimit="10" stroke-dasharray="none" stroke-opacity="" data-original="#000000" class=""></path></g><g id="g2701" transform="translate(128.8569,44.21)"><path d="m 0,0 137.755,-0.003 c 9.917,0 19.597,-3.419 27.086,-9.921 19.208,-16.678 44.286,-26.772 71.721,-26.772 h 89.04" style="stroke-width:15;stroke-linecap:round;stroke-linejoin:round;stroke-miterlimit:10;stroke-dasharray:none;stroke-opacity:1" id="path2703" fill="none" stroke="#9e8a78" stroke-width="15" stroke-linecap="round" stroke-linejoin="round" stroke-miterlimit="10" stroke-dasharray="none" stroke-opacity="" data-original="#000000" class=""></path></g><g id="g2705" transform="translate(126.0083,189.7144)"><path d="m 0,0 -118.508,-0.002 v -145.501 l 86.357,-0.001" style="stroke-width:15;stroke-linecap:round;stroke-linejoin:round;stroke-miterlimit:10;stroke-dasharray:none;stroke-opacity:1" id="path2707" fill="none" stroke="#9e8a78" stroke-width="15" stroke-linecap="round" stroke-linejoin="round" stroke-miterlimit="10" stroke-dasharray="none" stroke-opacity="" data-original="#000000" class=""></path></g><g id="g2709" transform="translate(99.0752,115.8535)"><path d="m 0,0 c 0.249,-2.48 1.335,-4.893 3.26,-6.775 l 37.748,-36.907 v 0.001 c 5.889,-5.92 14.284,-9.344 23.46,-8.545 14.419,1.257 25.883,13.117 26.695,27.567 0.556,9.895 -3.792,18.796 -10.833,24.51 -0.805,0.653 -0.805,1.862 0,2.515 C 87.371,8.08 91.719,16.98 91.163,26.875 90.351,41.326 78.887,53.186 64.468,54.442 56.416,55.144 48.966,52.591 43.283,47.956" style="stroke-width:15;stroke-linecap:round;stroke-linejoin:round;stroke-miterlimit:10;stroke-dasharray:none;stroke-opacity:1" id="path2711" fill="none" stroke="#9e8a78" stroke-width="15" stroke-linecap="round" stroke-linejoin="round" stroke-miterlimit="10" stroke-dasharray="none" stroke-opacity="" data-original="#000000" class=""></path></g></g></g></g></g></svg>