<?xml version="1.0"?>
<svg xmlns="http://www.w3.org/2000/svg" viewBox="0 0 512 512" width="70" height="70"><g id="Icons_copy" data-name="Icons copy"><path d="M492.719,26.858a8.005,8.005,0,0,0-3.578-3.577L466.514,11.968a8,8,0,0,0-10.733,3.577L445.048,37.011,400.71,81.348l-5.656-5.657a40,40,0,0,0-56.569,0,8,8,0,0,0,0,11.315l16.971,16.97-26.638,26.638a150.382,150.382,0,0,0-48.831-16.7l.418-.835a63.65,63.65,0,0,1,41.536-33.317l-3.882-15.522a79.717,79.717,0,0,0-27.653,12.948l-11.75-17.625-13.312,8.876,13.032,19.548A79.73,79.73,0,0,0,266.1,105.92l-3.132,6.258c-2.316-.105-4.636-.178-6.964-.178-1.478,0-2.952.027-4.424.069L248.4,101.481A114.883,114.883,0,0,0,232,67.9V40H216v9.817a114.45,114.45,0,0,0-45.8-25.509l-4.4,15.384A98.928,98.928,0,0,1,193.42,52.427L181.47,56.41l5.06,15.18L208.113,64.4A97.675,97.675,0,0,1,220.892,80H208V96h21.442a99.671,99.671,0,0,1,3.635,10.077l2.2,7.328a149.523,149.523,0,0,0-52.118,17.182l-26.611-26.611,16.971-16.97a8,8,0,0,0,0-11.315,40,40,0,0,0-56.569,0l-5.656,5.657L66.952,37.011,56.219,15.545a8,8,0,0,0-10.733-3.577L22.859,23.281a8.005,8.005,0,0,0-3.578,3.577L7.967,49.485a8,8,0,0,0,3.577,10.734L33.011,70.953l44.337,44.336-5.657,5.657a40,40,0,0,0,0,56.569,8,8,0,0,0,11.314,0l16.971-16.971,25.762,25.763a151,151,0,0,0-19.052,52.36l-1.316-.346a99.811,99.811,0,0,1-10.2-3.281l-.748-21.427-15.99.559.45,12.881a97.716,97.716,0,0,1-16.041-12.226l6.436-21.819L53.931,188.48l-3.563,12.08a98.879,98.879,0,0,1-13.687-27.154l-15.222,4.928a114.424,114.424,0,0,0,27.09,44.886l-9.813.342.557,15.991,27.889-.974A114.832,114.832,0,0,0,101.308,253.8l3.619.95a151.167,151.167,0,0,0,.025,17.4,79.776,79.776,0,0,0-16.084,12.081l-19.99-12.341L60.473,285.5,78.5,296.625a79.642,79.642,0,0,0-11.97,28.088l15.65,3.334a63.6,63.6,0,0,1,24.858-38.234c.247,1.386.506,2.772.793,4.157l5.49,26.555C108.908,327.994,104,338.667,104,352a31.978,31.978,0,0,0,.175,3.256L23.088,436.343h0A7.976,7.976,0,0,0,20.745,442v45.255a8,8,0,0,0,8,8H74a7.979,7.979,0,0,0,5.657-2.343h0l91.456-91.456a17.617,17.617,0,0,1,5.126,8.484,203.078,203.078,0,0,1,3.931,21.146c-13.007,6.912-30.736,20.931-36.015,47.347l15.69,3.134a50.606,50.606,0,0,1,22.263-33.061c1.854,21.055,1.892,39.2,1.892,39.5a8,8,0,0,0,8,8H320a8,8,0,0,0,8-8c0-.291.035-18.435,1.89-39.5a50.6,50.6,0,0,1,22.265,33.062l15.69-3.134c-5.279-26.417-23.009-40.436-36.016-47.348a203.134,203.134,0,0,1,3.932-21.145,17.617,17.617,0,0,1,5.126-8.484l91.456,91.456h0A7.979,7.979,0,0,0,438,495.255h45.255a8,8,0,0,0,8-8V442a7.976,7.976,0,0,0-2.344-5.657h0l-81.087-81.087A31.978,31.978,0,0,0,408,352c0-13.329-4.9-24-9.316-31.474l5.491-26.563c.329-1.6.625-3.207.9-4.822l1.55.407a99.811,99.811,0,0,1,10.2,3.281l.748,21.429,15.99-.559-.45-12.882a97.727,97.727,0,0,1,16.04,12.227l-6.435,21.819,15.346,4.528,3.563-12.079a98.943,98.943,0,0,1,13.687,27.153l15.222-4.93a114.449,114.449,0,0,0-27.091-44.884l9.814-.342-.557-15.991-27.888.974a114.85,114.85,0,0,0-34.128-15.221l-3.675-.964a150.444,150.444,0,0,0,.154-17.452,79.785,79.785,0,0,0,15.961-12.009l19.991,12.341,8.4-13.615-18.022-11.126a79.666,79.666,0,0,0,11.97-28.089l-15.65-3.334a63.591,63.591,0,0,1-24.609,38.052,151.565,151.565,0,0,0-18.961-51.562l25.769-25.769L429,177.515a8,8,0,0,0,11.314,0,40,40,0,0,0,0-56.569l-5.657-5.657,44.337-44.336,21.467-10.734a8,8,0,0,0,3.577-10.734ZM378.083,126.6l-83.021,83.021-9.853-1.095-3.893-7.786L366.77,115.29ZM169.225,139.284a151.647,151.647,0,0,0-12.673,9.954L133.917,126.6,145.23,115.29ZM32.4,36.4l13.087-6.543,5.158,10.315L36.17,54.644,25.856,49.486ZM49.064,64.378,60.378,53.064l39.6,39.6L88.662,103.975Zm29.245,95.205a24.047,24.047,0,0,1,4.7-27.322L128.26,87.006a24.044,24.044,0,0,1,27.323-4.7ZM111.29,149.23,122.6,137.917l22.473,22.473A152.45,152.45,0,0,0,134.8,172.742ZM124.383,380.3,70.686,434H48.059l63.133-63.133A45.474,45.474,0,0,0,124.383,380.3ZM66,479.255H36.745V450H66Zm16-11.314V445.314l58.442-58.442q1.545.549,3.076,1.088c4.658,1.642,9.234,3.257,13.434,5.029Zm289.558-81.069L430,445.314v22.627l-74.952-74.952c4.2-1.772,8.776-3.387,13.434-5.029Q370.011,387.422,371.558,386.872Zm103.7,92.383H446V450h29.255ZM463.941,434H441.314l-53.7-53.7a45.474,45.474,0,0,0,13.191-9.436ZM390.889,251.8a134.461,134.461,0,0,1-.388,26.426c-.475,4.175-1.147,8.384-2,12.5l-2.395,11.585C380.458,294.468,376,287.409,376,280H360c0,13.763,8.051,24.755,15.836,35.386,2.585,3.529,5.259,7.179,7.613,10.891C389.363,335.624,392,343.558,392,352c0,9.65-9.235,13.961-28.836,20.87-17.8,6.274-37.974,13.384-42.925,33.19-6.251,25-7.76,58.709-8.124,73.94H296V440H280v40H264V440H248v40H232V440H216v40H199.885c-.364-15.231-1.873-48.938-8.124-73.94-4.951-19.806-25.125-26.916-42.925-33.19C129.235,365.961,120,361.65,120,352c0-8.442,2.637-16.376,8.545-25.715,2.36-3.72,5.034-7.37,7.619-10.9C143.949,304.755,152,293.763,152,280H136c0,7.41-4.458,14.468-10.111,22.314l-2.395-11.585A135.4,135.4,0,0,1,316.976,142.455l-43.2,43.2-10.618-21.236-14.31,7.156,20.841,41.683-18.124,12.083,8.876,13.312,21.575-14.383,64.016,7.113,6.382,19.144,15.178-5.06-8-24a7.979,7.979,0,0,0-3.929-4.562l18.872-18.871A135.029,135.029,0,0,1,390.889,251.8Zm-55.1-37.649-20.364-2.263,73.97-73.97L400.71,149.23Zm97.9-54.567L356.417,82.31a24.044,24.044,0,0,1,27.323,4.7L429,132.261a24.047,24.047,0,0,1,4.7,27.322ZM412.024,92.662l39.6-39.6,11.314,11.314-39.6,39.6ZM475.83,54.644,461.356,40.171l5.158-10.315L479.6,36.4l6.543,13.087Z"/><path d="M239.568,325.952l4-32v0A24,24,0,0,0,219.75,266.98H188A24.03,24.03,0,0,0,164.192,288l-4,32A24,24,0,0,0,184,346.98h31.75A24.04,24.04,0,0,0,239.568,325.952Zm-11.877-33.981-4,32a8.015,8.015,0,0,1-7.941,7.011H184a8,8,0,0,1-7.932-9l4-32a8.005,8.005,0,0,1,7.932-7h31.75a8,8,0,0,1,7.941,8.991Z"/><path d="M347.809,288A24.031,24.031,0,0,0,324,266.98H292.25a24,24,0,0,0-23.818,26.972l4,32A24.04,24.04,0,0,0,296.25,346.98H328A24,24,0,0,0,351.808,320Zm-13.815,40.274A7.887,7.887,0,0,1,328,330.98H296.25a8.017,8.017,0,0,1-7.942-7.012l-4-32a8,8,0,0,1,7.941-8.991H324a8.005,8.005,0,0,1,7.932,7l4,32A7.894,7.894,0,0,1,333.994,328.273Z"/><path d="M274.907,364.7a23.248,23.248,0,0,0-37.819.008L226.7,379.256A23.231,23.231,0,0,0,245.6,416h20.8a23.23,23.23,0,0,0,18.9-36.736Zm-2.075,31.379A7.063,7.063,0,0,1,266.4,400H245.6a7.231,7.231,0,0,1-5.878-11.443L250.107,374A7.248,7.248,0,0,1,261.888,374l10.4,14.568A7.059,7.059,0,0,1,272.832,396.074Z"/></g></svg>
