<svg height="70" viewBox="0 0 512 512" width="70" xmlns="http://www.w3.org/2000/svg"><g id="Solid"><path d="m66.52 50.52h16v56h-16z" transform="matrix(.707 -.707 .707 .707 -33.696 75.691)"/><path d="m75.976 149.23a23.923 23.923 0 0 0 2.333 10.353l77.274-77.273a24.044 24.044 0 0 0 -27.323 4.7l-45.255 45.251a23.838 23.838 0 0 0 -7.029 16.969z"/><path d="m36.745 450h29.255v29.255h-29.255z"/><path d="m111.192 370.867-63.133 63.133h22.627l53.7-53.7a45.474 45.474 0 0 1 -13.194-9.433z"/><path d="m111.29 149.23 23.51 23.512a152.45 152.45 0 0 1 10.275-12.352l-22.475-22.473z"/><path d="m50.644 40.171-5.158-10.315-13.087 6.543-6.543 13.087 10.314 5.158z"/><path d="m400.71 149.23-11.313-11.313-73.97 73.97 20.364 2.263z"/><path d="m436.024 149.23a23.838 23.838 0 0 0 -7.024-16.969l-45.26-45.255a24.044 24.044 0 0 0 -27.323-4.7l77.274 77.273a23.923 23.923 0 0 0 2.333-10.349z"/><path d="m143.518 387.96q-1.529-.538-3.076-1.088l-58.442 58.442v22.627l74.952-74.952c-4.2-1.772-8.776-3.389-13.434-5.029z"/><path d="m486.144 49.486-6.543-13.087-13.087-6.543-5.158 10.315 14.474 14.473z"/><path d="m169.225 139.284-24-23.994-11.308 11.31 22.635 22.635a151.647 151.647 0 0 1 12.673-9.951z"/><path d="m409.48 70.52h56v16h-56z" transform="matrix(.707 -.707 .707 .707 72.608 332.336)"/><path d="m281.316 200.743 3.893 7.786 9.853 1.095 83.021-83.021-11.313-11.313z"/><path d="m400.808 370.867a45.474 45.474 0 0 1 -13.191 9.436l53.7 53.7h22.627z"/><path d="m368.482 387.96c-4.658 1.642-9.234 3.257-13.434 5.029l74.952 74.952v-22.627l-58.442-58.442q-1.545.549-3.076 1.088z"/><path d="m392 352c0-8.442-2.637-16.376-8.551-25.723-2.354-3.712-5.028-7.362-7.613-10.891-7.785-10.631-15.836-21.623-15.836-35.386h16c0 7.409 4.458 14.468 10.11 22.314l2.395-11.585c.849-4.12 1.521-8.329 2-12.5a134 134 0 0 0 -15.969-80.188l-18.876 18.867a7.979 7.979 0 0 1 3.929 4.562l8 24-15.178 5.06-6.382-19.144-64.016-7.113-21.575 14.383-8.876-13.312 18.124-12.083-20.841-41.683 14.31-7.156 10.618 21.236 43.2-43.2a135.352 135.352 0 0 0 -193.479 148.271l2.395 11.585c5.653-7.846 10.111-14.904 10.111-22.314h16c0 13.763-8.051 24.755-15.836 35.386-2.585 3.529-5.259 7.179-7.619 10.9-5.908 9.338-8.545 17.272-8.545 25.714 0 9.65 9.235 13.961 28.836 20.87 17.8 6.274 37.974 13.384 42.925 33.19 6.251 25 7.76 58.709 8.124 73.94h16.115v-40h16v40h16v-40h16v40h16v-40h16v40h16.115c.364-15.231 1.873-48.938 8.124-73.94 4.951-19.806 25.125-26.916 42.925-33.19 19.601-6.909 28.836-11.22 28.836-20.87zm-176.25-5.02h-31.75a24 24 0 0 1 -23.808-26.987l4-32a24.03 24.03 0 0 1 23.808-21.013h31.75a24 24 0 0 1 23.818 26.969l-4 32a24.04 24.04 0 0 1 -23.818 21.031zm71.311 56.411a23.143 23.143 0 0 1 -20.661 12.609h-20.8a23.231 23.231 0 0 1 -18.9-36.744l10.388-14.556a23.248 23.248 0 0 1 37.819-.008l10.4 14.569a23.134 23.134 0 0 1 1.754 24.13zm58.931-64.533a24 24 0 0 1 -17.992 8.122h-31.75a24.04 24.04 0 0 1 -23.818-21.029l-4-32a24 24 0 0 1 23.818-26.971h31.75a24.031 24.031 0 0 1 23.809 21.02l4 32a24 24 0 0 1 -5.817 18.858z"/><path d="m446 450h29.255v29.255h-29.255z"/><path d="m331.932 289.982a8.005 8.005 0 0 0 -7.932-7h-31.75a8 8 0 0 0 -7.941 8.991l4 32a8.017 8.017 0 0 0 7.942 7.012h31.749a8 8 0 0 0 7.933-8.993z"/><path d="m219.75 282.98h-31.75a8.005 8.005 0 0 0 -7.932 7l-4 32a8 8 0 0 0 7.932 9h31.75a8.015 8.015 0 0 0 7.941-7.011l4-32a8 8 0 0 0 -7.941-8.991z"/><path d="m261.888 374a7.248 7.248 0 0 0 -11.781.008l-10.385 14.553a7.231 7.231 0 0 0 5.878 11.439h20.8a7.231 7.231 0 0 0 5.883-11.436z"/><path d="m429.825 199.823a63.591 63.591 0 0 1 -24.609 38.052l1.954 17.78a79.785 79.785 0 0 0 15.961-12.009l19.991 12.341 8.4-13.615-18.022-11.126a79.666 79.666 0 0 0 11.97-28.089z"/><path d="m463.45 304.651 9.814-.342-.557-15.991-27.888.974a114.85 114.85 0 0 0 -34.128-15.221l-3.675-.964-1.936 16.034 1.55.407a99.811 99.811 0 0 1 10.2 3.281l.748 21.429 15.99-.559-.45-12.882a97.727 97.727 0 0 1 16.04 12.227l-6.435 21.819 15.346 4.528 3.563-12.079a98.943 98.943 0 0 1 13.687 27.153l15.222-4.93a114.449 114.449 0 0 0 -27.091-44.884z"/><path d="m144.155 478.433 15.69 3.134a50.606 50.606 0 0 1 22.263-33.061l-1.938-17.42c-13.007 6.914-30.736 20.931-36.015 47.347z"/><path d="m331.83 431.086-1.938 17.42a50.606 50.606 0 0 1 22.263 33.061l15.69-3.134c-5.279-26.416-23.008-40.433-36.015-47.347z"/><path d="m82.175 328.047a63.6 63.6 0 0 1 24.858-38.234l-2.081-17.669a79.776 79.776 0 0 0 -16.084 12.081l-19.99-12.341-8.405 13.616 18.027 11.125a79.642 79.642 0 0 0 -11.97 28.088z"/><path d="m38.736 223.562.557 15.991 27.889-.974a114.832 114.832 0 0 0 34.126 15.221l3.619.95 1.759-16.08-1.316-.346a99.811 99.811 0 0 1 -10.2-3.281l-.748-21.427-15.99.559.45 12.881a97.716 97.716 0 0 1 -16.041-12.226l6.436-21.819-15.346-4.531-3.563 12.08a98.879 98.879 0 0 1 -13.687-27.154l-15.222 4.928a114.424 114.424 0 0 0 27.09 44.886z"/><path d="m181.47 56.41 5.06 15.18 21.583-7.19a97.675 97.675 0 0 1 12.779 15.6h-12.892v16h21.442a99.671 99.671 0 0 1 3.635 10.077l2.2 7.328 16.3-1.336-3.177-10.588a114.883 114.883 0 0 0 -16.4-33.581v-27.9h-16v9.817a114.45 114.45 0 0 0 -45.8-25.509l-4.4 15.384a98.928 98.928 0 0 1 27.62 12.735z"/><path d="m262.964 112.178 17.441.9a63.65 63.65 0 0 1 41.536-33.317l-3.882-15.522a79.717 79.717 0 0 0 -27.653 12.948l-11.75-17.625-13.312 8.876 13.032 19.548a79.73 79.73 0 0 0 -12.276 17.934z"/></g></svg>