<svg id="Layer_1_1_" enable-background="new 0 0 64 64" height="70" viewBox="0 0 64 64" width="70" xmlns="http://www.w3.org/2000/svg"><path d="m36.079 42.484c.421-.168.838-.348 1.249-.546.751-.362 1.492-.816 2.267-1.39l-1.189-1.607c-.673.497-1.309.889-1.944 1.194-1.478.712-3.119 1.206-4.708 1.685-.567.171-1.132.341-1.688.52-4.672 1.503-9.574 1.889-14.183 1.116-3.033-.509-6.337-1.354-7.842-3.761l-1.695 1.061c.989 1.582 2.478 2.613 4.161 3.325-.12.821-.472 2.171-1.512 2.691l.895 1.789c1.665-.833 2.295-2.591 2.533-3.821.427.121.856.23 1.289.326-.108.916-.482 2.713-1.788 4.019l1.414 1.414c1.651-1.651 2.175-3.82 2.341-5.056.679.111 1.364.191 2.053.255.1 1.267.082 3.874-1.508 5.464l1.414 1.414c2.054-2.054 2.207-5.091 2.108-6.769.284.008.566.035.851.035.252 0 .507-.024.76-.03.377 1.17.944 3.879-.965 6.007l1.488 1.336c2.332-2.602 1.991-5.714 1.53-7.447.412-.036.824-.095 1.236-.147.121 2.036.493 6.217 1.559 7.96l1.707-1.043c-.724-1.185-1.142-4.755-1.281-7.23.31-.059.62-.117.929-.184.078 1.852.634 5.199 3.415 7.567l1.297-1.523c-2.424-2.064-2.714-5.213-2.72-6.55.375-.106.754-.195 1.126-.315.024-.008.049-.015.073-.022.305 1.919 1.36 5.388 5.037 6.913l.766-1.848c-2.976-1.235-3.696-4.25-3.871-5.658.497-.15.996-.307 1.497-.469.461 1.87 1.874 4.355 5.209 5.456l.627-1.898c-2.903-.959-3.711-3.108-3.937-4.233z"/><path d="m17.025 30.027c2.615-.652 5.664-.699 9.318-.145.873.134 1.666.288 2.422.47l.469-1.943c-.812-.196-1.658-.36-2.589-.503-3.921-.598-7.228-.54-10.106.182-4.87 1.219-8.718 4.659-10.292 9.202l1.891.654c1.351-3.902 4.674-6.862 8.887-7.917z"/><path d="m61.707 45.293-21-21-.172-.172c-2.013-2.013-4.688-3.121-7.535-3.121-.266 0-.52.105-.707.293l-.293.293-1.56-1.56c2.032-.137 4.105-.047 6.231.38l6.162 1.232c.477.096.953-.165 1.129-.62.176-.453-.001-.968-.418-1.218l-3.945-2.366c-4.302-2.753-11.229-3.175-16.186-2.37-4.584.744-8.492 2.239-12.63 3.822-2.07.792-4.211 1.611-6.438 2.324-1.588.509-2.515 2.175-2.11 3.791.214.854.779 1.588 1.551 2.012.472.259.999.392 1.529.392.338 0 .676-.054 1.002-.163 2.055-.685 3.842-1.377 5.57-2.048 1.707-.661 3.472-1.346 5.48-2.016 3.426-1.141 6.916-2.304 10.53-2.866l2.689 2.688-.293.293c-.188.187-.293.441-.293.707 0 2.847 1.108 5.522 3.121 7.535l.172.172 21 21c.195.195.451.293.707.293s.512-.098.707-.293l1.293-1.293 3.293 3.293c.191.191.447.293.707.293.129 0 .259-.024.383-.076.374-.154.617-.52.617-.924v-4c0-.266-.105-.52-.293-.707l-1.293-1.293 1.293-1.293c.391-.391.391-1.023 0-1.414zm-34-28-1.229 1.229c-3.35.63-6.574 1.703-9.744 2.76-2.055.685-3.842 1.377-5.57 2.048-1.707.661-3.472 1.346-5.48 2.016-.313.104-.646.074-.936-.085s-.493-.423-.573-.744c-.149-.598.193-1.213.78-1.401 2.28-.729 4.447-1.559 6.543-2.36 4.039-1.545 7.854-3.005 12.235-3.716 1.307-.212 2.795-.332 4.343-.332 3.234 0 6.729.522 9.376 1.816l-.389-.078c-2.934-.586-5.74-.588-8.456-.251zm4.302 7.112 1.396-1.396c1.908.088 3.702.793 5.156 2.016l-4.537 4.537c-1.223-1.454-1.927-3.249-2.015-5.157zm22.991 26.181-19.586-19.586 4.586-4.586 19.586 19.586zm5 1-1.586-1.586.586-.586 1 1z"/></svg>