<svg id="Capa_1" enable-background="new 0 0 512 512" height="70" viewBox="0 0 512 512" width="70" xmlns="http://www.w3.org/2000/svg"><g><g><path d="m495.484 132.129h-104.217c-18.82-76.924-88.427-132.129-168.299-132.129h-49.548c-95.621 0-173.42 77.799-173.42 173.419v148.645c0 56.403 43.759 102.689 99.097 106.934v83.002h198.193v-83.002c55.337-4.245 99.097-50.531 99.097-106.934v-140.387h99.097c9.109 0 16.516-7.407 16.516-16.516v-16.516c0-9.108-7.408-16.516-16.516-16.516zm-272.516-115.613c70.904 0 132.897 48.062 151.288 115.613h-56.65c-13.726-20.43-36.815-33.032-61.606-33.032h-82.581c-22.767 0-41.29-18.523-41.29-41.29v-35.593c13.18-3.609 26.979-5.698 41.29-5.698zm107.355 148.645v-16.516h16.516v16.516zm-94.935 297.778c6.54 9.811 10.438 20.951 11.751 32.545h-97.891c1.305-11.603 5.211-22.734 11.751-32.545l5.83-8.745-11.173-16.764c-4.583-6.862-7.011-14.873-7.011-23.156 0-5.326 1.007-10.537 2.989-15.509l7.953-19.894c1.85.24 3.7.429 5.574.578v.421c0 18.217 14.815 33.032 33.032 33.032s33.032-14.815 33.032-33.032v-.421c1.875-.14 3.724-.339 5.574-.578l7.953 19.894c1.982 4.971 2.989 10.182 2.989 15.509 0 8.283-2.428 16.293-7.019 23.164l-11.165 16.756zm-20.678-83.068c0 9.109-7.407 16.516-16.516 16.516s-16.516-7.407-16.516-16.516zm8.258-16.516h-49.548c-50.085 0-90.839-40.754-90.839-90.839v-82.581c0-40.985 33.338-74.323 74.323-74.323h99.096c16.054 0 31.191 6.805 41.992 18.226-10.595 2.444-20.497 7.54-28.639 14.807h-9.224c-15.517 0-30.109 6.037-41.084 17.02l-1.916 1.916 11.677 11.677 1.916-1.916c7.862-7.862 18.3-12.181 29.407-12.181h9.224c11.768 10.496 27.227 16.516 43.033 16.516h1.42v90.839c0 50.085-40.753 90.839-90.838 90.839zm90.838-214.71v16.516h-1.42c-9.588 0-19.027-2.94-26.93-8.258 7.903-5.318 17.342-8.258 26.93-8.258zm-213.991 263.878c-46.567-3.857-83.299-42.917-83.299-90.459v-148.645c0-66.089 41.133-122.649 99.097-145.73v30.117c0 17.532 7.878 33.239 20.249 43.85-21.892 5.219-40.712 18.333-53.281 36.212v-9.001c0-15.88 7.886-30.613 21.099-39.416l-9.158-13.741c-17.821 11.867-28.457 31.752-28.457 53.157v143.649c0 43.528 26.087 81.012 63.414 97.842-15.675 8.505-26.914 24.006-29.664 42.165zm15.798 8.638c0-16.59 9.951-31.009 24.287-37.541l-3.601 9.01c-2.766 6.929-4.17 14.212-4.17 21.644 0 11.553 3.386 22.734 9.794 32.322l5.062 7.597c-8.192 12.445-13.089 26.574-14.435 41.29h-16.937zm165.161 74.323h-16.937c-1.346-14.716-6.243-28.845-14.435-41.29l5.062-7.589c6.408-9.596 9.794-20.777 9.794-32.33 0-7.432-1.404-14.716-4.17-21.636l-3.601-9.01c14.336 6.524 24.287 20.942 24.287 37.533zm99.097-173.419c0 47.542-36.732 86.602-83.299 90.459-2.75-18.151-13.997-33.652-29.663-42.157 37.326-16.838 63.414-54.322 63.414-97.85v-90.839h49.548zm-16.516-156.904v-16.516h132.129l.017 16.516z"/><path d="m278.85 224.462 12.189 12.189 11.677-11.677-11.892-11.892c2.337-3.328 4.278-6.986 5.607-10.983l.429-1.272-15.657-5.26-.429 1.288c-3.567 10.678-13.518 17.854-24.774 17.854s-21.207-7.176-24.774-17.87l-.429-1.272-15.657 5.26.429 1.255c1.338 4.005 3.278 7.672 5.615 11l-11.9 11.9 11.677 11.677 12.189-12.189c4.418 2.816 9.332 4.831 14.592 5.871v17.4h16.516v-17.408c5.26-1.04 10.174-3.055 14.592-5.871z"/><path d="m163.237 224.462 12.189 12.189 11.677-11.677-11.892-11.892c2.337-3.328 4.278-6.986 5.607-10.983l.429-1.272-15.657-5.26-.429 1.288c-3.567 10.678-13.518 17.854-24.774 17.854s-21.207-7.176-24.774-17.87l-.429-1.272-15.657 5.26.429 1.255c1.338 4.005 3.278 7.672 5.615 11l-11.9 11.9 11.677 11.677 12.189-12.189c4.418 2.816 9.332 4.831 14.592 5.871v17.4h16.516v-17.408c5.261-1.04 10.174-3.055 14.592-5.871z"/><path d="m106.851 177.342c7.862-7.862 18.3-12.181 29.407-12.181s21.545 4.319 29.407 12.181l1.916 1.916 11.677-11.677-1.916-1.916c-10.975-10.983-25.567-17.02-41.084-17.02s-30.109 6.037-41.084 17.02l-1.916 1.916 11.677 11.677z"/><path d="m214.71 313.806h-49.548v16.516h49.548c18.217 0 33.032-14.815 33.032-33.032h-16.516c0 9.109-7.408 16.516-16.516 16.516z"/></g></g></svg>