<svg id="Capa_1" enable-background="new 0 0 511.991 511.991" height="70" viewBox="0 0 511.991 511.991" width="70" xmlns="http://www.w3.org/2000/svg"><g><g><path d="m317.782 273.65v-97.1h-1.518c-16.904 0-33.42-6.435-45.999-17.655h-9.86c-11.873 0-23.03 4.617-31.434 13.02l-2.048 2.048-12.482-12.482 2.048-2.048c11.731-11.74 27.329-18.193 43.916-18.193h9.86c8.713-7.768 19.296-13.206 30.613-15.827-11.546-12.208-27.726-19.482-44.887-19.482h-105.927c-43.81 0-79.446 35.636-79.446 79.446v88.273c0 53.537 43.563 97.1 97.1 97.1h52.964c53.538 0 97.1-43.562 97.1-97.1zm-105.009-75.288-.459-1.342 16.737-5.623.459 1.359c3.813 11.431 14.45 19.102 26.482 19.102s22.668-7.671 26.482-19.085l.459-1.377 16.737 5.623-.459 1.359c-1.43 4.281-3.504 8.183-5.994 11.74l12.711 12.711-12.482 12.482-13.029-13.029c-4.723 3.01-9.975 5.164-15.598 6.276v18.608h-17.655v-18.606c-5.614-1.103-10.875-3.266-15.598-6.276l-13.029 13.029-12.482-12.482 12.72-12.72c-2.507-3.557-4.581-7.468-6.002-11.749zm-128.693-38.928c11.731-11.74 27.329-18.193 43.916-18.193s32.184 6.453 43.916 18.193l2.048 2.048-12.482 12.482-2.048-2.048c-8.404-8.404-19.561-13.02-31.434-13.02s-23.03 4.617-31.434 13.02l-2.048 2.048-12.482-12.482zm57.157 69.126v18.608h-17.655v-18.608c-5.614-1.103-10.875-3.266-15.598-6.276l-13.029 13.029-12.482-12.482 12.72-12.72c-2.498-3.557-4.573-7.477-6.003-11.758l-.459-1.342 16.737-5.623.459 1.368c3.813 11.431 14.45 19.102 26.482 19.102s22.668-7.671 26.482-19.085l.459-1.377 16.737 5.623-.459 1.359c-1.43 4.281-3.504 8.183-5.994 11.74l12.711 12.711-12.482 12.482-13.029-13.029c-4.722 3.012-9.975 5.166-15.597 6.278zm17.654 106.881v-17.655h52.964c9.736 0 17.655-7.918 17.655-17.655h17.655c0 19.473-15.836 35.309-35.309 35.309h-52.965z"/><path d="m194.2 406.059c9.737 0 17.655-7.918 17.655-17.655h-35.309c0 9.737 7.918 17.655 17.654 17.655z"/><path d="m317.782 141.241h-1.518c-10.248 0-20.338 3.143-28.786 8.827 8.448 5.685 18.537 8.827 28.786 8.827h1.518z"/><path d="m167.718 88.277h88.273c26.499 0 51.181 13.47 65.852 35.309h60.555c-19.659-72.207-85.925-123.582-161.716-123.582h-52.964c-15.298 0-30.048 2.233-44.136 6.091v38.046c0 24.337 19.8 44.136 44.136 44.136z"/><path d="m370.746 141.241h141.245v17.655h-141.245z"/><path d="m335.437 141.241h17.655v17.655h-17.655z"/><path d="m52.964 273.65v-153.55c0-22.889 11.37-44.136 30.41-56.83l9.789 14.689c-14.115 9.419-22.545 25.175-22.545 42.141v9.622c13.426-19.111 33.553-33.129 56.954-38.708-13.223-11.343-21.644-28.133-21.644-46.873v-32.193c-61.959 24.672-105.928 85.13-105.928 155.775v158.891c0 50.819 39.264 92.572 89.041 96.694 2.939-19.402 14.962-35.971 31.708-45.063-39.9-17.999-67.785-58.066-67.785-104.595z"/><path d="m256.512 392.412 3.849 9.631c2.957 7.406 4.458 15.192 4.458 23.136 0 12.349-3.619 24.301-10.469 34.559l-5.411 8.112c8.757 13.303 13.991 28.406 15.43 44.136h18.105v-79.446c-.001-17.733-10.638-33.145-25.962-40.128z"/><path d="m335.437 273.65c0 46.529-27.885 86.596-67.785 104.586 16.745 9.092 28.759 25.661 31.708 45.063 49.777-4.113 89.041-45.867 89.041-96.685v-150.064h-52.964z"/><path d="m123.582 425.179c0-7.945 1.501-15.73 4.458-23.127l3.849-9.631c-15.324 6.974-25.961 22.386-25.961 40.12v79.446h18.105c1.439-15.73 6.673-30.834 15.43-44.136l-5.411-8.121c-6.851-10.249-10.47-22.201-10.47-34.551z"/><path d="m247.164 425.179c0-5.694-1.077-11.264-3.195-16.578l-8.501-21.265c-1.977.256-3.955.459-5.958.618v.45c0 19.473-15.836 35.309-35.309 35.309s-35.309-15.836-35.309-35.309v-.45c-2.004-.15-3.981-.362-5.958-.618l-8.501 21.265c-2.119 5.314-3.196 10.884-3.196 16.578 0 8.854 2.595 17.416 7.503 24.752l11.934 17.919-6.232 9.348c-6.991 10.487-11.158 22.395-12.561 34.788h104.63c-1.395-12.402-5.57-24.301-12.561-34.788l-6.223-9.348 11.943-17.911c4.899-7.344 7.494-15.906 7.494-24.76z"/></g></g></svg>