<?xml version="1.0" encoding="iso-8859-1"?>
<!-- Generator: Adobe Illustrator 19.0.0, SVG Export Plug-In . SVG Version: 6.00 Build 0)  -->
<svg version="1.1" id="Layer_1" xmlns="http://www.w3.org/2000/svg" xmlns:xlink="http://www.w3.org/1999/xlink" x="0px" y="0px"
	 viewBox="0 0 70.001 70.001" style="enable-background:new 0 0 70.001 70.001;" xml:space="preserve">
<g>
	<g>
		<path d="M256.001,227.658c-15.628,0-28.344,12.715-28.344,28.344c0,15.629,12.715,28.345,28.344,28.345
			c15.628,0,28.344-12.715,28.344-28.345C284.344,240.373,271.63,227.658,256.001,227.658z M256.001,269.345
			c-7.357,0-13.343-5.986-13.343-13.344c0-7.358,5.986-13.343,13.343-13.343c7.357,0,13.343,5.985,13.343,13.343
			C269.344,263.359,263.359,269.345,256.001,269.345z"/>
	</g>
</g>
<g>
	<g>
		<path d="M441.643,282.952l20.904-9.071c7.237-3.14,11.732-9.991,11.732-17.88c0-7.889-4.495-14.74-11.731-17.88l-21.313-9.248
			c27.367-13.492,50.512-33.844,67.369-59.404c3.769-5.713,4.446-12.921,1.812-19.281c-2.634-6.359-8.21-10.977-14.915-12.352
			c-29.753-6.106-60.26-4.225-88.948,5.381l8.141-20.623c2.896-7.337,1.231-15.36-4.347-20.939
			c-5.578-5.578-13.602-7.241-20.939-4.348l-21.655,8.548c7.831-26.812,9.038-55.092,3.401-82.574
			c-1.376-6.705-5.994-12.28-12.353-14.914c-6.359-2.636-13.567-1.957-19.281,1.812c-19.885,13.115-36.519,29.866-49.44,49.788
			c-2.254,3.475-1.265,8.119,2.21,10.373c3.476,2.256,8.119,1.266,10.374-2.211c10.858-16.74,24.599-31.021,40.879-42.524
			l-39.406,95.134c-0.815-2.876-1.802-5.711-3-8.473l-27.256-62.811c-3.14-7.236-9.991-11.731-17.88-11.731
			c-7.889,0-14.74,4.495-17.881,11.731l-9.477,21.841c-13.421-24.643-32.573-45.558-56.161-61.117
			c-5.714-3.768-12.921-4.448-19.281-1.812c-6.359,2.634-10.977,8.209-12.353,14.915c-5.654,27.559-4.444,55.763,3.397,82.571
			l-21.651-8.546c-7.336-2.896-15.359-1.229-20.939,4.348c-5.578,5.578-7.243,13.601-4.347,20.939l8.141,20.624
			c-28.689-9.606-59.196-11.486-88.947-5.381c-6.705,1.375-12.281,5.992-14.915,12.352c-2.634,6.359-1.957,13.567,1.812,19.281
			c16.857,25.56,40.003,45.911,67.37,59.404l-21.313,9.248c-7.237,3.14-11.732,9.991-11.732,17.88
			c0,7.888,4.495,14.739,11.731,17.88l20.904,9.071c-27.19,13.492-50.187,33.773-66.961,59.207
			c-3.769,5.713-4.446,12.921-1.812,19.281c2.634,6.359,8.21,10.977,14.915,12.352c11.45,2.35,23.009,3.517,34.536,3.517
			c18.485,0,36.882-3.011,54.583-8.958l-8.312,21.058c-2.896,7.338-1.231,15.36,4.347,20.939c3.765,3.766,8.645,5.748,13.675,5.748
			c2.422,0,4.879-0.46,7.263-1.4l21.665-8.552c-7.836,26.814-9.053,55.068-3.41,82.577c1.376,6.704,5.994,12.279,12.352,14.913
			c2.564,1.063,5.265,1.586,7.951,1.586c3.977,0,7.919-1.148,11.33-3.397c20.771-13.698,37.959-31.32,51.086-52.375
			c2.191-3.515,1.119-8.141-2.396-10.332c-3.515-2.19-8.141-1.117-10.333,2.396c-11.072,17.758-25.318,32.833-42.381,44.886
			l39.406-95.135c0.815,2.876,1.802,5.711,3,8.473l27.256,62.811c3.14,7.236,9.991,11.731,17.881,11.731
			c7.889,0,14.74-4.495,17.881-11.731l9.473-21.833c13.421,24.642,32.577,45.551,56.165,61.108c3.411,2.25,7.353,3.397,11.33,3.397
			c2.686,0,5.388-0.523,7.951-1.586c6.359-2.634,10.976-8.209,12.352-14.914c5.653-27.555,4.459-55.759-3.379-82.564l21.633,8.539
			c2.385,0.941,4.841,1.4,7.263,1.4c5.03-0.001,9.91-1.983,13.675-5.748c5.578-5.578,7.243-13.602,4.347-20.939l-8.312-21.058
			c17.702,5.948,36.097,8.958,54.583,8.958c11.525,0,23.088-1.167,34.536-3.517c6.705-1.375,12.281-5.992,14.915-12.352
			c2.634-6.359,1.957-13.567-1.812-19.281C491.83,316.726,468.832,296.446,441.643,282.952z M423.119,221.013l-23.384-10.147
			c-2.854-1.239-5.785-2.255-8.761-3.084l102.169-42.32C476.216,188.967,449.646,209.341,423.119,221.013z M487.419,151.596
			l-101.268,41.947c1.267-2.347,2.416-4.765,3.401-7.261l9.814-24.861C426.487,150.652,458.627,146.803,487.419,151.596z
			 M357.401,31.345c4.697,27.422,2.013,55.545-7.837,81.691l-23.845,9.413c-2.59,1.023-5.095,2.221-7.524,3.546L357.401,31.345z
			 M301.583,165.556c5.491-13.258,16.296-23.885,29.646-29.154l63.688-25.141c2.474-0.976,4.198,0.375,4.824,1.001
			c0.626,0.627,1.978,2.351,1.001,4.824l-25.141,63.687c-5.269,13.349-15.895,24.154-29.154,29.647l-39.886,16.521
			c-1.313-2.275-2.778-4.45-4.374-6.517l58.935-58.936c2.929-2.93,2.929-7.678,0-10.607c-2.929-2.928-7.678-2.928-10.606,0
			l-58.937,58.935c-2.068-1.597-4.243-3.062-6.517-4.374L301.583,165.556z M299.345,256c0,23.901-19.443,43.345-43.344,43.345
			c-23.9,0-43.344-19.445-43.344-43.345c0-23.901,19.445-43.344,43.344-43.344S299.345,232.1,299.345,256z M251.882,55.427
			c1.059-2.439,3.233-2.702,4.119-2.702c0.886,0,3.061,0.263,4.119,2.702l27.257,62.811c5.712,13.164,5.839,28.319,0.348,41.578
			l-16.512,39.865c-2.508-0.678-5.083-1.192-7.71-1.534V114.84c0-4.143-3.358-7.5-7.5-7.5c-4.142,0-7.5,3.357-7.5,7.5v83.307
			c-2.628,0.342-5.202,0.856-7.71,1.535l-16.512-39.865c-5.491-13.259-5.365-28.414,0.348-41.578L251.882,55.427z M220.839,89.282
			l-9.974,22.985c-1.198,2.762-2.185,5.597-3,8.473l-39.403-95.129C191.33,41.786,209.307,63.642,220.839,89.282z M154.603,31.353
			l39.202,94.642c-2.428-1.325-4.933-2.523-7.523-3.546l-23.84-9.41C152.581,86.861,149.892,58.829,154.603,31.353z
			 M112.583,161.289l2.758,6.987c2.656,6.88,8.826,4.579,9.73,4.223c3.853-1.521,5.743-5.878,4.222-9.73l-18.032-45.681
			c-0.977-2.474,0.375-4.197,1.001-4.824c0.626-0.626,2.349-1.977,4.824-1.001l63.688,25.14
			c13.349,5.271,24.155,15.896,29.646,29.155l16.521,39.886c-2.274,1.313-4.449,2.777-6.517,4.374l-58.936-58.936
			c-2.928-2.927-7.677-2.929-10.606,0c-2.929,2.93-2.929,7.678,0,10.607l58.935,58.936c-1.597,2.068-3.062,4.243-4.374,6.518
			l-39.886-16.521c-11.597-4.804-21.159-13.589-26.924-24.739c-1.902-3.68-6.427-5.122-10.107-3.218
			c-6.86,3.548-2.864,10.75-2.69,11.073L24.583,151.597C53.284,146.824,85.518,150.62,112.583,161.289z M18.868,165.465
			l102.161,42.316c-2.976,0.829-5.908,1.845-8.762,3.084l-23.046,10.001C62.756,209.172,35.787,188.873,18.868,165.465z
			 M55.426,260.122c-2.439-1.059-2.703-3.233-2.703-4.119c0-0.887,0.263-3.062,2.703-4.12l62.811-27.257
			c13.166-5.713,28.32-5.84,41.578-0.348l39.865,16.512c-0.678,2.509-1.193,5.083-1.535,7.711h-83.307c-4.142,0-7.5,3.357-7.5,7.5
			s3.358,7.5,7.5,7.5h83.308c0.342,2.628,0.856,5.202,1.535,7.71l-39.866,16.513c-13.257,5.49-28.413,5.363-41.577-0.348
			L55.426,260.122z M89.076,291.074l23.19,10.063c2.685,1.165,5.439,2.127,8.232,2.929L18.867,346.165
			C35.796,322.739,62.575,302.729,89.076,291.074z M24.609,360.021l101.507-42.046c-1.375,2.497-2.614,5.076-3.667,7.745
			l-9.392,23.793C86.14,359.882,53.006,364.586,24.609,360.021z M154.601,480.655c-4.702-27.442-2-55.535,7.856-81.696l23.824-9.405
			c2.59-1.022,5.095-2.221,7.524-3.546L154.601,480.655z M210.418,346.447c-5.491,13.258-16.296,23.885-29.646,29.154
			l-63.688,25.141c-2.471,0.977-4.198-0.374-4.824-1.001s-1.978-2.351-1.001-4.824l25.141-63.688
			c5.269-13.348,15.895-24.153,29.154-29.646l39.886-16.521c1.313,2.275,2.778,4.45,4.374,6.518l-58.936,58.936
			c-2.929,2.93-2.929,7.678,0,10.607c1.464,1.464,5.191,4.56,10.606,0l58.936-58.936c2.068,1.597,4.243,3.062,6.517,4.374
			L210.418,346.447z M260.12,456.576c-1.059,2.439-3.233,2.702-4.119,2.702c-0.886,0-3.061-0.263-4.119-2.702l-27.257-62.811
			c-5.712-13.164-5.839-28.319-0.348-41.578l16.513-39.865c2.508,0.678,5.083,1.192,7.71,1.534v83.307c0,4.143,3.358,7.5,7.5,7.5
			c4.142,0,7.5-3.357,7.5-7.5v-83.307c2.628-0.342,5.202-0.856,7.71-1.534l16.513,39.865c5.491,13.259,5.365,28.414-0.348,41.578
			L260.12,456.576z M291.163,422.721l9.973-22.985c1.198-2.762,2.185-5.597,3-8.473l39.403,95.128
			C320.671,470.216,302.695,448.36,291.163,422.721z M357.398,480.65l-39.202-94.641c2.428,1.325,4.933,2.523,7.523,3.546
			l23.84,9.41C359.421,425.142,362.111,453.173,357.398,480.65z M399.74,399.74c-0.626,0.625-2.35,1.978-4.824,1.001l-63.688-25.14
			c-13.349-5.271-24.155-15.896-29.646-29.155l-16.521-39.886c2.275-1.313,4.449-2.777,6.517-4.374l58.936,58.936
			c5.416,4.227,9.142,1.464,10.606,0c2.929-2.93,2.929-7.678,0-10.607l-58.936-58.936c1.597-2.068,3.062-4.243,4.374-6.518
			l39.886,16.521c13.258,5.492,23.885,16.297,29.154,29.646l25.141,63.688C401.718,397.389,400.366,399.113,399.74,399.74z
			 M398.946,349.513l-9.392-23.793c-1.054-2.669-2.293-5.248-3.667-7.745l101.507,42.046
			C458.997,364.587,425.862,359.882,398.946,349.513z M391.54,304.083c0.121-0.035,0.244-0.065,0.365-0.101
			c3.972-1.174,6.241-5.346,5.067-9.317c-1.173-3.973-5.343-6.242-9.318-5.067c-11.647,3.44-24.244,2.776-35.467-1.871
			l-39.866-16.512c0.678-2.508,1.193-5.083,1.535-7.711h83.307c4.142,0,7.5-3.357,7.5-7.5c0-4.143-3.358-7.5-7.5-7.5h-83.307
			c-0.342-2.628-0.856-5.202-1.535-7.711l39.865-16.512c13.257-5.491,28.413-5.364,41.577,0.348l62.812,27.257
			c2.439,1.059,2.703,3.233,2.703,4.12c0,0.886-0.263,3.061-2.703,4.119l-45.897,19.917c-3.8,1.648-5.543,6.065-3.895,9.865
			c1.227,2.828,6.234,5.444,9.866,3.895l7.053-3.061c26.923,11.536,52.421,31.585,69.458,55.439L391.54,304.083z"/>
	</g>
</g>
<g>
</g>
<g>
</g>
<g>
</g>
<g>
</g>
<g>
</g>
<g>
</g>
<g>
</g>
<g>
</g>
<g>
</g>
<g>
</g>
<g>
</g>
<g>
</g>
<g>
</g>
<g>
</g>
<g>
</g>
</svg>
