<?xml version="1.0" encoding="UTF-8" standalone="no"?>
<!-- Created with Inkscape (http://www.inkscape.org/) -->

<svg
   version="1.1"
   id="svg1251"
   xml:space="preserve"
   width="70"
   height="70"
   viewBox="0 0 682.66669 682.66669"
   xmlns="http://www.w3.org/2000/svg"
   xmlns:svg="http://www.w3.org/2000/svg"><defs
     id="defs1255"><clipPath
       clipPathUnits="userSpaceOnUse"
       id="clipPath1265"><path
         d="M 0,512 H 512 V 0 H 0 Z"
         id="path1263" /></clipPath></defs><g
     id="g1257"
     transform="matrix(1.3333333,0,0,-1.3333333,0,682.66667)"><g
       id="g1259"><g
         id="g1261"
         clip-path="url(#clipPath1265)"><g
           id="g1267"
           transform="translate(275.6953,104.1294)"><path
             d="m 0,0 13.59,-50.395 c 0.994,-3.687 -0.177,-7.603 -2.994,-10.179 -9.878,-9.033 -17.982,-19.703 -23.994,-32.3 -2.526,-5.29 -10.069,-5.29 -12.594,0 -6.013,12.597 -14.116,23.267 -23.994,32.3 -2.818,2.576 -3.989,6.492 -2.994,10.179 L -39.391,0"
             style="fill:none;stroke:#000000;stroke-width:15;stroke-linecap:round;stroke-linejoin:round;stroke-miterlimit:10;stroke-dasharray:none;stroke-opacity:1"
             id="path1269" /></g><g
           id="g1271"
           transform="translate(256,7.5571)"><path
             d="M 0,0 V 69.663"
             style="fill:none;stroke:#000000;stroke-width:15;stroke-linecap:round;stroke-linejoin:round;stroke-miterlimit:10;stroke-dasharray:none;stroke-opacity:1"
             id="path1273" /></g><g
           id="g1275"
           transform="translate(233.519,110.6235)"><path
             d="m 0,0 h 44.961 c 8.278,0 14.988,6.71 14.988,14.987 0,8.278 -6.71,14.988 -14.988,14.988 H 0 c -8.277,0 -14.987,-6.71 -14.987,-14.988 C -14.987,6.71 -8.277,0 0,0 Z"
             style="fill:none;stroke:#000000;stroke-width:15;stroke-linecap:round;stroke-linejoin:round;stroke-miterlimit:10;stroke-dasharray:none;stroke-opacity:1"
             id="path1277" /></g><g
           id="g1279"
           transform="translate(228.5234,193.5532)"><path
             d="M 0,0 H 54.953 C 63.23,0 69.94,6.71 69.94,14.987 v 0 c 0,8.277 -6.71,14.987 -14.987,14.987 H 0 c -8.277,0 -14.987,-6.71 -14.987,-14.987 v 0 C -14.987,6.71 -8.277,0 0,0 Z"
             style="fill:none;stroke:#000000;stroke-width:15;stroke-linecap:round;stroke-linejoin:round;stroke-miterlimit:10;stroke-dasharray:none;stroke-opacity:1"
             id="path1281" /></g><g
           id="g1283"
           transform="translate(233.519,140.5981)"><path
             d="M 0,0 -4.996,52.955"
             style="fill:none;stroke:#000000;stroke-width:15;stroke-linecap:round;stroke-linejoin:round;stroke-miterlimit:10;stroke-dasharray:none;stroke-opacity:1"
             id="path1285" /></g><g
           id="g1287"
           transform="translate(278.4805,140.5981)"><path
             d="M 0,0 4.996,52.955"
             style="fill:none;stroke:#000000;stroke-width:15;stroke-linecap:round;stroke-linejoin:round;stroke-miterlimit:10;stroke-dasharray:none;stroke-opacity:1"
             id="path1289" /></g><g
           id="g1291"
           transform="translate(283.4766,223.5273)"><path
             d="m 0,0 v 264.774 c 0,8.83 -7.157,15.987 -15.986,15.987 h -22.981 c -8.829,0 -15.986,-7.157 -15.986,-15.987 V 117.4"
             style="fill:none;stroke:#000000;stroke-width:15;stroke-linecap:round;stroke-linejoin:round;stroke-miterlimit:10;stroke-dasharray:none;stroke-opacity:1"
             id="path1293" /></g><g
           id="g1295"
           transform="translate(228.5234,305.957)"><path
             d="M 0,0 V -82.43"
             style="fill:none;stroke:#000000;stroke-width:15;stroke-linecap:round;stroke-linejoin:round;stroke-miterlimit:10;stroke-dasharray:none;stroke-opacity:1"
             id="path1297" /></g><g
           id="g1299"
           transform="translate(281.9775,459.3267)"><path
             d="M 0,0 H -51.956"
             style="fill:none;stroke:#000000;stroke-width:15;stroke-linecap:round;stroke-linejoin:round;stroke-miterlimit:10;stroke-dasharray:none;stroke-opacity:1"
             id="path1301" /></g><g
           id="g1303"
           transform="translate(404.4092,355.4297)"><path
             d="m 0,0 0.207,-0.722 c 3.618,-12.557 1.879,-26.049 -4.81,-37.317 -6.243,-10.517 -16.306,-18.262 -28.115,-21.64 l -87.488,-25.023"
             style="fill:none;stroke:#000000;stroke-width:15;stroke-linecap:round;stroke-linejoin:round;stroke-miterlimit:10;stroke-dasharray:none;stroke-opacity:1"
             id="path1305" /></g><g
           id="g1307"
           transform="translate(337.2363,335.8442)"><path
             d="m 0,0 60.713,17.365 c 11.808,3.378 21.872,11.123 28.115,21.64 6.689,11.267 8.428,24.76 4.81,37.317 l -0.208,0.722"
             style="fill:none;stroke:#000000;stroke-width:15;stroke-linecap:round;stroke-linejoin:round;stroke-miterlimit:10;stroke-dasharray:none;stroke-opacity:1"
             id="path1309" /></g><g
           id="g1311"
           transform="translate(351.1357,439.5884)"><path
             d="m 0,0 -20.58,-5.937 c -27.29,-7.872 -47.079,-32.848 -47.079,-61.251"
             style="fill:none;stroke:#000000;stroke-width:15;stroke-linecap:round;stroke-linejoin:round;stroke-miterlimit:10;stroke-dasharray:none;stroke-opacity:1"
             id="path1313" /></g><g
           id="g1315"
           transform="translate(363.0205,393.1675)"><path
             d="m 0,0 60.167,17.209 c 11.926,3.411 22.087,11.243 28.396,21.886 6.78,11.439 8.538,25.168 4.856,37.946 l -1.174,4.076 c -1.519,5.272 -8.104,7.031 -12.05,3.218 C 69.149,73.659 55.633,65.86 40.841,61.63 L 21.959,56.183"
             style="fill:none;stroke:#000000;stroke-width:15;stroke-linecap:round;stroke-linejoin:round;stroke-miterlimit:10;stroke-dasharray:none;stroke-opacity:1"
             id="path1317" /></g><g
           id="g1319"
           transform="translate(191.5107,281.1064)"><path
             d="M 0,0 36.286,-10.379"
             style="fill:none;stroke:#000000;stroke-width:15;stroke-linecap:round;stroke-linejoin:round;stroke-miterlimit:10;stroke-dasharray:none;stroke-opacity:1"
             id="path1321" /></g><g
           id="g1323"
           transform="translate(107.5913,355.4297)"><path
             d="m 0,0 -0.208,-0.722 c -3.618,-12.557 -1.878,-26.049 4.81,-37.317 6.243,-10.517 16.307,-18.262 28.115,-21.64 l 17.519,-5.01"
             style="fill:none;stroke:#000000;stroke-width:15;stroke-linecap:round;stroke-linejoin:round;stroke-miterlimit:10;stroke-dasharray:none;stroke-opacity:1"
             id="path1325" /></g><g
           id="g1327"
           transform="translate(174.7642,335.8442)"><path
             d="m 0,0 -60.713,17.365 c -11.809,3.378 -21.872,11.123 -28.116,21.64 -6.688,11.267 -8.427,24.76 -4.81,37.317 l 0.208,0.722"
             style="fill:none;stroke:#000000;stroke-width:15;stroke-linecap:round;stroke-linejoin:round;stroke-miterlimit:10;stroke-dasharray:none;stroke-opacity:1"
             id="path1329" /></g><g
           id="g1331"
           transform="translate(148.98,393.1675)"><path
             d="m 0,0 -60.168,17.209 c -11.925,3.411 -22.086,11.243 -28.395,21.886 -6.781,11.439 -8.538,25.168 -4.857,37.946 l 1.175,4.076 c 1.519,5.272 8.104,7.031 12.049,3.218 C -69.15,73.659 -55.633,65.86 -40.842,61.63 L 32.464,40.484 C 59.754,32.612 79.543,7.636 79.543,-20.767"
             style="fill:none;stroke:#000000;stroke-width:15;stroke-linecap:round;stroke-linejoin:round;stroke-miterlimit:10;stroke-dasharray:none;stroke-opacity:1"
             id="path1333" /></g></g></g></g></svg>
