<svg id="Glyph" height="70" viewBox="0 0 64 64" width="70" xmlns="http://www.w3.org/2000/svg"><g><path d="m12.5 48.591c0 .993-.172 1.97-.512 2.905l-3.274 9.004h3.989l4.881-8.948c.599-1.099.916-2.341.916-3.592v-3.46h-6z"/><path d="m32 39.5c1.93 0 3.5-1.57 3.5-3.5 0-.148-.026-.307-.049-.465-1.042-.602-2.215-1.035-3.451-1.035s-2.409.433-3.451 1.035c-.023.158-.049.317-.049.465 0 1.93 1.57 3.5 3.5 3.5z"/><path d="m12.5 43.5h6v-2.5-.5h-6z"/><path d="m16.5 32c0-.281-.053-.565-.158-.844-.058-.153-.036-.326.057-.46s.247-.215.411-.215c.025 0 .146.012.171.016h.008c1.394 0 2.511-1.12 2.511-2.496 0-.164-.019-.32-.05-.472-3.558.26-6.43 3.007-6.881 6.51.414.293.91.461 1.431.461 1.378 0 2.5-1.122 2.5-2.5z"/><path d="m32.476 18.5c4.976 0 9.024-4.048 9.024-9.024v-.762c0-2.875-2.339-5.214-5.214-5.214h-13.786v5.024c0 5.501 4.475 9.976 9.976 9.976z"/><path d="m47 30.5c.311-.053.477.016.601.195.093.135.115.307.057.46-.105.28-.158.564-.158.845 0 1.378 1.122 2.5 2.5 2.5.521 0 1.017-.168 1.431-.463-.452-3.502-3.323-6.25-6.881-6.51-.031.153-.05.309-.05.473 0 1.378 1.122 2.5 2.5 2.5z"/><path d="m52.012 51.496c-.34-.935-.512-1.912-.512-2.905v-4.091h-6v3.46c0 1.251.316 2.493.916 3.592l4.881 8.948h3.989z"/><path d="m36.479 36.208c-.112 2.383-2.069 4.292-4.479 4.292s-4.367-1.909-4.479-4.292c-1.403 1.03-2.453 2.245-2.89 2.792.832 1.04 3.862 4.5 7.369 4.5s6.538-3.46 7.369-4.5c-.437-.547-1.487-1.761-2.89-2.792z"/><path d="m45.5 39.5h6v-4.352c-.465.222-.972.352-1.5.352-1.93 0-3.5-1.57-3.5-3.5 0-.177.015-.354.043-.53-1.715-.224-3.043-1.695-3.043-3.47 0-.171.02-.336.044-.5h-6.544c-.276 0-.5-.224-.5-.5v-3.76c0-.152.069-.295.187-.39 1.788-1.435 2.813-3.567 2.813-5.85v-.384c-1.81 1.781-4.29 2.884-7.024 2.884-3.143 0-5.973-1.335-7.976-3.459v.959c0 2.283 1.025 4.415 2.813 5.85.118.095.187.238.187.39v3.76c0 .276-.224.5-.5.5h-6.544c.024.164.044.329.044.5 0 1.775-1.328 3.246-3.043 3.47.028.176.043.353.043.53 0 1.93-1.57 3.5-3.5 3.5-.528 0-1.035-.13-1.5-.352v4.352h6v-2.5c0-.276.224-.5.5-.5s.5.224.5.5v3.882l3.947 7.895c.035.069.053.145.053.223v11.5h17v-11.5c0-.078.018-.154.053-.224l3.947-7.895v-3.881c0-.276.224-.5.5-.5s.5.224.5.5zm-7.084 16.777c-.096.145-.255.223-.416.223-.095 0-.191-.027-.277-.084l-1.5-1c-.743-.495-1.702-.495-2.445 0-1.08.72-2.475.72-3.555 0-.743-.495-1.702-.495-2.445 0l-1.5 1c-.231.152-.541.091-.693-.139-.153-.23-.091-.54.139-.693l1.5-1c1.08-.72 2.475-.72 3.555 0 .743.495 1.702.495 2.445 0 1.08-.72 2.475-.72 3.555 0l1.5 1c.228.153.29.463.137.693zm-.156-9.674c-.652.397-1.308.726-1.967.999.062.045.117.101.154.174l1 2c.124.247.023.547-.224.671-.071.036-.147.053-.223.053-.184 0-.36-.101-.448-.276l-1-2c-.053-.107-.058-.222-.034-.329-1.005.341-2.013.538-3.019.587v2.518c0 .276-.224.5-.5.5s-.5-.224-.5-.5v-2.519c-1.006-.049-2.014-.245-3.019-.587.024.108.019.223-.034.329l-1 2c-.087.176-.263.277-.446.277-.075 0-.151-.017-.223-.053-.247-.124-.347-.424-.224-.671l1-2c.037-.074.092-.129.154-.174-.658-.273-1.315-.601-1.967-.999-.236-.144-.311-.451-.167-.687s.452-.311.687-.167c3.812 2.323 7.668 2.323 11.479 0 .235-.145.542-.069.687.167s.07.543-.166.687zm2.146-7.312c-.152.213-3.784 5.209-8.406 5.209s-8.254-4.996-8.406-5.209c-.125-.174-.125-.408 0-.582.152-.213 3.784-5.209 8.406-5.209s8.254 4.996 8.406 5.209c.125.174.125.408 0 .582zm1.656-5.795-2 .247c-.021.002-.041.004-.062.004-.116 0-.229-.041-.319-.115-5.014-4.156-10.348-4.156-15.361 0-.106.088-.245.129-.381.111l-2-.247c-.274-.034-.469-.283-.435-.558.034-.273.284-.47.558-.435l1.787.221c5.279-4.28 11.023-4.28 16.303 0l1.787-.221c.277-.041.523.161.558.435.033.275-.162.524-.435.558z"/><path d="m45.5 41v2.5h6v-3h-6z"/></g></svg>