<svg height="70" viewBox="0 0 54 60" width="70" xmlns="http://www.w3.org/2000/svg"><g id="Page-1" fill="none" fill-rule="evenodd"><g id="009---Tattooed-Chest" fill="rgb(0,0,0)" fill-rule="nonzero"><path id="Shape" d="m.485 51.626c-.256 2.695-.485 5.287-.485 7.374 0 .5522847.44771525 1 1 1h6c.47526862.000097.88494628-.3343337.98-.8.01-.05 1.007-5.023 1.991-8.954 1.1357485-5.4792978 1.7551271-11.0530355 1.85-16.648.82 3.859 1.816 9.894 1.189 14.264-.2830808 2.1334853-.7175097 4.2441411-1.3 6.316-.4908179 1.559526-.7304781 3.1871899-.71 4.822 0 .5522847.4477153 1 1 1h30c.5522847 0 1-.4477153 1-1 .0202562-1.6362564-.2200843-3.2653064-.712-4.826-.5824079-2.0715402-1.0168359-4.1818577-1.3-6.315-.2901671-2.6314252-.2488441-5.288869.123-7.91.3-2.459.73-4.757 1.066-6.352.095221 5.5944387.7156114 11.1675733 1.853 16.646.983 3.93 1.98 8.9 1.99 8.953.0933936.4672564.5035015.8037122.98.804h6c.5522847 0 1-.4477153 1-1 0-2.244-.273-5.137-.564-8.218-.165-1.668-.353-3.637-.5-5.6v-.009c-.2781649-3.0933213-.2885368-6.204893-.031-9.3.018-.243.045-.486.083-.731 1.031-7.244.872-13.218-.467-17.736-.1669932-.6029705-.3673008-1.1962149-.6-1.777-1.864-4.648-6.02-6.729-8.98-7.888-1.05-.415-2.073-.758-2.976-1.06-1.154187-.28869385-2.2559217-.75672019-3.265-1.387-1.0469911-1.19117959-1.6478785-2.70895029-1.7-4.294 0-.55228475-.4477153-1-1-1h-14c-.5522847 0-1 .44771525-1 1-.047606 1.58697308-.6518641 3.10664505-1.707 4.293-1.0110501.63361191-2.1160723 1.10309446-3.274 1.391-1.05.349-2.241.746-3.459 1.251-2.782 1.146-6.687 3.19-8.493 7.7-.235.606-.409 1.113-.543 1.577-.47180425 1.5734241-.78930189 3.1890451-.948 4.824-.40318066 4.3696817-.2570415 8.7726698.435 13.106.12855267.9052172.20534416 1.8170328.23 2.731.08545445 3.195349-.03378952 6.3928911-.357 9.573-.129 1.419-.259 2.825-.399 4.18zm12.54 6.374c.0711334-1.1208625.2779776-2.2289568.616-3.3.6031305-2.1522814 1.0539127-4.3443725 1.349-6.56.619-4.317-.219-10.031-1.021-14.034.043.017.082.041.126.058 3.194 1.2 8.384.886 12.905-3.7 2.4349224 2.6560371 5.8449245 4.208171 9.447 4.3 1.179214.0076941 2.3503056-.1955028 3.458-.6.045-.017.084-.041.128-.058-.243 1.218-.509 2.7-.734 4.293-1.291919-.1982902-2.6128685.0485504-3.746.7-3.851 1.926-2.4 5.377-1.348 7.9.3278823.7264551.6035805 1.4753518.825 2.241.2438004 1.1326964.2438004 2.3043036 0 3.437-.4644439 1.8162987-.1544659 3.7438839.856 5.323zm27.95 0h-2.535c-1.852-1.987-1.686-3.28-1.427-5.027.2830516-1.3926492.2683977-2.8294137-.043-4.216-.2441843-.8641113-.5516828-1.7090637-.92-2.528-1.237-2.952-1.574-4.349.4-5.333.7855477-.4703586 1.713817-.6431672 2.616-.487-.3254666 2.5663998-.3425884 5.1625307-.051 7.733.2950873 2.2156275.7458695 4.4077186 1.349 6.56.336167 1.0706095.5413297 2.1780183.611 3.298zm-1.775-25.706c-2.776 1.043-7.437.633-11.449-3.953-.1898961-.217306-.464413-.3419795-.753-.3419795s-.5631039.1246735-.753.3419795c-4.011 4.586-8.673 4.994-11.449 3.953-2.278379-.7562647-3.8108094-2.8934318-3.796-5.294.1192577-3.2871718 1.3255893-6.4419224 3.43-8.97 1.544.159 6.971 1.171 11.77 7.57.1967934.2391708.4902738.3777478.8.3777478s.6032066-.138577.8-.3777478c4.832-6.443 10.22-7.424 11.769-7.573 2.1107109 2.5256311 3.3181616 5.6834438 3.431 8.973.0142424 2.4016339-1.5200394 4.5391307-3.8 5.294zm-7.757-16.463c.7951851.5761666 1.3835845 1.3931933 1.678 2.33-.3093333.1746667-.6226667.3646667-.94.57-1.553385-.3629354-2.9909177-1.1097236-4.181-2.172v-4.206c1.283-1.661 3.814-2.156 5.145-2.3.2223263 1.5774213-.4285142 3.1513068-1.7 4.111-.2777227.1855464-.4444752.497498-.4444752.8315s.1667525.6459536.4444752.8315zm-1.266 4.369c-1.1575457.9582148-2.2213352 2.0243482-3.177 3.184-.9556648-1.1596518-2.0194543-2.2257852-3.177-3.184.7684657-.2958578 1.5032689-.6726456 2.192-1.124.0331327.5196666.4642782.9241987.985.9241987s.9518673-.4045321.985-.9241987c.6887311.4513544 1.4235343.8281422 2.192 1.124zm-4.177-3.641c-1.1900823 1.0622764-2.627615 1.8090646-4.181 2.172-.318-.2053333-.6313333-.3953333-.94-.57.293899-.9370653.882406-1.7542412 1.678-2.33.2777227-.1855464.4444752-.497498.4444752-.8315s-.1667525-.6459536-.4444752-.8315c-1.276176-.9592099-1.9278857-2.5378808-1.7-4.118 1.508.157 3.933.741 5.147 2.3zm25.263 4.474c.5627268 4.4646041.4954021 8.9861292-.2 13.432-1.893-.903-2.063-2.875-2.063-5.465 0-2.873 0-5.586 1.707-7.293.2044089-.2082253.3904348-.4337315.556-.674zm-8.252-11.103c2.521 1.076 5.638 2.894 7.059 6.439.173.436.315.884.448 1.337-.1796798.9531307-.6015316 1.8440127-1.225 2.587-2.293 2.293-2.293 5.554-2.293 8.707 0 2.361 0 6.207 3.835 7.534-.1720854 2.5120551-.1630621 5.033241.027 7.544-.4356446-.1780451-.8291116-.4454665-1.155-.785-.3923789-.3789722-1.0160848-.3735524-1.4018186.0121814s-.3911536 1.0094397-.0121814 1.4018186c.7259286.7696826 1.6784131 1.2877866 2.719 1.479.089 1.121.187 2.223.285 3.261-.5898055-.2946928-1.1270054-.6845851-1.59-1.154-.3923789-.3789722-1.0160848-.3735524-1.4018186.0121814s-.3911536 1.0094397-.0121814 1.4018186c.8908013.9120815 1.9967392 1.5854107 3.216 1.958.218 2.317.417 4.516.474 6.335h-4.167c-.325-1.583-1.088-5.215-1.845-8.242-1.2860323-6.3350175-1.8994341-12.7881385-1.83-19.252.5674929-1.081306.8623662-2.2848286.859-3.506-.005384-1.314604-.190087-2.6223284-.549-3.887.136-1.754.316-3.428.538-4.97.0660883-.3602785-.0700868-.727859-.3549493-.9581232-.2848626-.2302642-.6728219-.2863594-1.0112418-.146216-.33842.1401435-.5731383.4540964-.6118089.8183392-.065.45-.118.932-.177 1.4-.5135509-.9085446-1.1083124-1.7687231-1.777-2.57.25779-2.3479668.9188222-4.6338394 1.954-6.757zm-28.361-1.348c1.829-.609 3.272-1.09 4.057-1.875 1.2152612-1.29601478 1.9883019-2.94397795 2.208-4.707h12.17c.2200965 1.76320131.9930675 3.41136579 2.208 4.708.778.777 2.22 1.259 4.044 1.869.561.188 1.175.4 1.8.625-1.0300167 2.1671856-1.7085052 4.4845108-2.01 6.865-1.4465752.1972989-2.8583274.5965211-4.194 1.186-.3001454-.8380706-.7776911-1.6014616-1.4-2.238 2.349-2.457 1.48-6.087 1.437-6.258-.1114591-.44493106-.5113206-.75698794-.97-.757-2.1104478.03707641-4.176173.6144466-6 1.677v-.677c0-.55228475-.4477153-1-1-1s-1 .44771525-1 1v.677c-1.823827-1.0625534-3.8895522-1.63992359-6-1.677-.4586794.00001206-.8585409.31206894-.97.757-.043.171-.912 3.8 1.437 6.258-.6223089.6365384-1.0998546 1.3999294-1.4 2.238-1.3356726-.5894789-2.7474248-.9887011-4.194-1.186-.3021347-2.3814847-.9819999-4.6995751-2.014-6.867.623-.225 1.229-.431 1.791-.618zm-12.229 43.828c.82849164-.2887596 1.70180511-.4275958 2.579-.41.55228475 0 1-.4477153 1-1s-.44771525-1-1-1c-.79793001-.0038053-1.59359949.0851244-2.371.265.06333333-.656.12566667-1.3193333.187-1.99.71167288-.1927658 1.44675488-.2853242 2.184-.275.55228475 0 1-.4477153 1-1s-.44771525-1-1-1c-.67094804-.0022554-1.34060268.059018-2 .183.21869155-2.5167613.30847557-5.0430635.269-7.569 3.279-.942 3.731-3.463 3.731-5.614.02621394-1.8733578-.34885416-3.7306269-1.1-5.447-.24687128-.4942949-.84770515-.6948713-1.342-.448s-.69487128.8477051-.448 1.342c.61312151 1.4383226.91637231 2.989672.89 4.553 0 2-.5 3.01-1.832 3.536-.044-.578-.1-1.143-.178-1.678-.57603382-3.7006442-.76105257-7.4516312-.552-11.191.2690987.2066499.49331715.4659131.659.762.16558187.34865.51702826.5708825.903.571.1440516.0001628.28638933-.0312403.417-.092.5012965-.2310198.72061263-.8245161.49-1.326-.49236271-.9236388-1.27642038-1.6584731-2.23-2.09.10266667-.788.23766667-1.5436667.405-2.267.4065254.4047658.77012412.8504675 1.085 1.33.1982824.297245.5400812.4661282.8966441.4430331s.6737195-.2346599.832-.555c.15828049-.32034.1336383-.7007881-.0646441-.9980331-.58194004-.9032271-1.31576207-1.6989622-2.169-2.352.078-.226.165-.463.266-.721 1.453-3.635 4.642-5.412 7.059-6.443 1.0363261 2.1234942 1.6977326 4.4101678 1.955 6.759-.6686876.8012769-1.2634491 1.6614554-1.777 2.57-.059-.469-.112-.951-.177-1.4-.0386706-.3642428-.2733889-.6781957-.6118089-.8183392-.3384199-.1401434-.72637925-.0840482-1.01124179.146216s-.42103757.5978447-.35494931.9581232c.222 1.542.4 3.216.538 4.97-.35848489 1.264396-.54285051 2.571777-.548 3.886-.00336621 1.2211714.29150714 2.424694.859 3.506.06917841 6.4634707-.54388268 12.9161983-1.829 19.251-.757 3.028-1.521 6.66-1.846 8.243h-4.167c.05-1.654.217-3.586.404-5.59z"/><path id="Shape" d="m27.024 51.014c-.5381119.0100957-.9809148.4265207-1.024.963-.0749578.507702-.3250519.9732236-.707 1.316-.2599566.2510745-.3642126.6228779-.2726972.9725073.0915155.3496295.3645604.6226744.7141899.7141899.3496294.0915154.7214328-.0127406.9725073-.2726972.7608717-.7041081 1.2235-1.6726579 1.293-2.707-.0010537-.5402259-.4358129-.9794396-.976-.986z"/><path id="Shape" d="m27 34c-.5522847 0-1 .4477153-1 1v2c0 .5522847.4477153 1 1 1s1-.4477153 1-1v-2c0-.5522847-.4477153-1-1-1z"/><path id="Shape" d="m27 40c-.5522847 0-1 .4477153-1 1v5c0 .5522847.4477153 1 1 1s1-.4477153 1-1v-5c0-.5522847-.4477153-1-1-1z"/><path id="Shape" d="m19.932 38c-.798039-.0460065-1.5830034.2180367-2.191.737-.4832442.4577914-.752091 1.0974364-.741 1.763 0 1.183.808 2.5 1.966 2.5.5157092.0031386.949225-.3864226 1.0010282-.899533s-.2950985-.9814619-.8010282-1.081467c-.1394193-.2048217-.1875836-.4583178-.133-.7.1-.285.666-.316.9-.316.7722705-.090833 1.5077304.353902 1.786 1.08.84 1.978-.364 6.008-1.54 7.225-2.212 2.291-2.212 4.631-2.212 6.7 0 .5522847.4477153 1 1 1s1-.4477153 1-1c0-1.93 0-3.6 1.651-5.306 1.627-1.685 3.144-6.565 1.942-9.4-.5942746-1.46284-2.0513664-2.3873783-3.628-2.302z"/></g></g></svg>