<svg id="icons" height="70" viewBox="0 0 64 64" width="70" xmlns="http://www.w3.org/2000/svg"><path d="m16.01953 37.01074a1 1 0 0 1 -.00976-2h.00976a1 1 0 1 1 0 2z"/><path d="m55.99609 11.00879a.99943.99943 0 0 1 -1-1 1 1 0 1 0 -2 0 1 1 0 0 1 -2 0 3 3 0 1 1 6 0 .99942.99942 0 0 1 -1 1z"/><path d="m55.99609 26.00879a.99943.99943 0 0 1 -1-1v-15a1 1 0 1 1 2 0v15a.99942.99942 0 0 1 -1 1z"/><path d="m51.99609 17.00879a.99943.99943 0 0 1 -1-1v-10a1 1 0 1 1 2 0v10a.99942.99942 0 0 1 -1 1z"/><path d="m51.99609 7.00879a.99943.99943 0 0 1 -1-1 1 1 0 1 0 -2 0 1 1 0 0 1 -2 0 3 3 0 1 1 6 0 .99942.99942 0 0 1 -1 1z"/><path d="m39.99609 20.00879a.99943.99943 0 0 1 -1-1v-13a1 1 0 1 1 2 0v13a.99942.99942 0 0 1 -1 1z"/><path d="m43.99609 7.00879a.99943.99943 0 0 1 -1-1 1 1 0 1 0 -2 0 1 1 0 0 1 -2 0 3 3 0 1 1 6 0 .99942.99942 0 0 1 -1 1z"/><path d="m47.99609 17.00879a.99943.99943 0 0 1 -1-1v-13a1 1 0 1 1 2 0v13a.99942.99942 0 0 1 -1 1z"/><path d="m47.99609 4.00879a.99943.99943 0 0 1 -1-1 1 1 0 1 0 -2 0 1 1 0 0 1 -2 0 3 3 0 1 1 6 0 .99942.99942 0 0 1 -1 1z"/><path d="m43.99609 17.00879a.99943.99943 0 0 1 -1-1v-13a1 1 0 1 1 2 0v13a.99942.99942 0 0 1 -1 1z"/><path d="m51.99707 32.93848a1 1 0 0 1 -.502-1.86524 7.031 7.031 0 0 0 3.501-6.06445 1 1 0 1 1 2 0 9.03424 9.03424 0 0 1 -4.499 7.79492.9918.9918 0 0 1 -.5.13477z"/><path d="m43.9873 32.80957a.997.997 0 0 1 -.5371-.15723 11.852 11.852 0 0 1 -3.37207-3.377.99948.99948 0 0 1 1.65234-1.125 9.89244 9.89244 0 0 0 2.7959 2.81641 1 1 0 0 1 -.53907 1.84277z"/><path d="m34.52051 20.30957a.99906.99906 0 0 1 -.82715-.4375 3.11917 3.11917 0 0 1 .11914-4.09766 3.02116 3.02116 0 0 1 4.21777-.02343.99977.99977 0 1 1 -1.36527 1.46093 1.03353 1.03353 0 0 0 -1.43848-.02343c-.5332.5332.00586 1.3916.11914 1.55859a1.00019 1.00019 0 0 1 -.82519 1.5625z"/><path d="m40.90527 29.71289a.998.998 0 0 1 -.82812-.43848l-6.38477-9.40332a.99974.99974 0 1 1 1.6543-1.123l6.38477 9.40332a1.0001 1.0001 0 0 1 -.82618 1.56152z"/><path d="m39.99609 20.00879a.99749.99749 0 0 1 -.69043-.27637l-2.64843-2.52734a1.00017 1.00017 0 1 1 1.38086-1.44727l2.64843 2.52735a1 1 0 0 1 -.69043 1.72363z"/><path d="m51.99609 51.97852a.99943.99943 0 0 1 -1-1v-19.04a1 1 0 0 1 2 0v19.04a.99942.99942 0 0 1 -1 1z"/><path d="m43.99609 51.97852a.99943.99943 0 0 1 -1-1v-19.18652a1 1 0 0 1 2 0v19.18652a.99942.99942 0 0 1 -1 1z"/><path d="m52.99805 57.99219h-9.99805a3.00328 3.00328 0 0 1 -3-3v-2.01367a3.00328 3.00328 0 0 1 3-3h9.998a3.00328 3.00328 0 0 1 3 3v2.01367a3.00329 3.00329 0 0 1 -2.99995 3zm-9.99805-6.01367a1.00067 1.00067 0 0 0 -1 1v2.01367a1.00067 1.00067 0 0 0 1 1h9.998a1.00068 1.00068 0 0 0 1-1v-2.01367a1.00068 1.00068 0 0 0 -1-1z"/><path d="m42 63.99121a.99942.99942 0 0 1 -1-1v-6.27441a1 1 0 0 1 2 0v6.27441a.99942.99942 0 0 1 -1 1z"/><path d="m53.99805 63.99121a.99942.99942 0 0 1 -1-1v-6.27441a1 1 0 0 1 2 0v6.27441a.99942.99942 0 0 1 -1 1z"/><path d="m12 11.00879a.99943.99943 0 0 1 -1-1 1 1 0 1 0 -2 0 1 1 0 0 1 -2 0 3 3 0 0 1 6 0 .99943.99943 0 0 1 -1 1z"/><path d="m8 26.00879a.99943.99943 0 0 1 -1-1v-15a1 1 0 1 1 2 0v15a.99943.99943 0 0 1 -1 1z"/><path d="m12 17.00879a.99943.99943 0 0 1 -1-1v-10a1 1 0 0 1 2 0v10a.99943.99943 0 0 1 -1 1z"/><path d="m16 7.00879a.99943.99943 0 0 1 -1-1 1 1 0 0 0 -2 0 1 1 0 1 1 -2 0 3 3 0 1 1 6 0 .99943.99943 0 0 1 -1 1z"/><path d="m24 20.00879a.99943.99943 0 0 1 -1-1v-13a1 1 0 0 1 2 0v13a.99943.99943 0 0 1 -1 1z"/><path d="m24 7.00879a.99943.99943 0 0 1 -1-1 1 1 0 0 0 -2 0 1 1 0 1 1 -2 0 3 3 0 0 1 6 0 .99943.99943 0 0 1 -1 1z"/><path d="m16 17.00879a.99943.99943 0 0 1 -1-1v-13a1 1 0 0 1 2 0v13a.99943.99943 0 0 1 -1 1z"/><path d="m20 4.00879a.99943.99943 0 0 1 -1-1 1 1 0 0 0 -2 0 1 1 0 1 1 -2 0 3 3 0 0 1 6 0 .99943.99943 0 0 1 -1 1z"/><path d="m20 17.00879a.99943.99943 0 0 1 -1-1v-13a1 1 0 0 1 2 0v13a.99943.99943 0 0 1 -1 1z"/><path d="m11.999 32.93848a.99183.99183 0 0 1 -.5-.13477 9.03424 9.03424 0 0 1 -4.499-7.79492 1 1 0 0 1 2 0 7.031 7.031 0 0 0 3.501 6.06445 1 1 0 0 1 -.502 1.86524z"/><path d="m20.00879 32.80957a1 1 0 0 1 -.53906-1.84277 9.89269 9.89269 0 0 0 2.7959-2.81641.99948.99948 0 0 1 1.65234 1.125 11.85209 11.85209 0 0 1 -3.37207 3.377.997.997 0 0 1 -.53711.15718z"/><path d="m29.47559 20.30957a1.00019 1.00019 0 0 1 -.8252-1.5625c.11328-.167.65234-1.02539.11914-1.55859a1.03353 1.03353 0 0 0 -1.43848.02343.99977.99977 0 1 1 -1.36523-1.46091 3.02117 3.02117 0 0 1 4.21777.02343 3.11916 3.11916 0 0 1 .11914 4.09766.999.999 0 0 1 -.82714.43748z"/><path d="m23.09082 29.71289a1.00009 1.00009 0 0 1 -.82617-1.56152l6.38476-9.40332a.99974.99974 0 1 1 1.6543 1.123l-6.38471 9.40336a.998.998 0 0 1 -.82818.43848z"/><path d="m24 20.00879a1 1 0 0 1 -.69043-1.72363l2.64843-2.52735a1.00017 1.00017 0 0 1 1.38086 1.44727l-2.64844 2.52734a.99747.99747 0 0 1 -.69042.27637z"/><path d="m12 50.97852a.99943.99943 0 0 1 -1-1v-18.04a1 1 0 0 1 2 0v18.04a.99943.99943 0 0 1 -1 1z"/><path d="m20 50.97852a.99943.99943 0 0 1 -1-1v-18.18652a1 1 0 0 1 2 0v18.18652a.99943.99943 0 0 1 -1 1z"/><path d="m20.99609 56.99219h-9.99809a3.00328 3.00328 0 0 1 -3-3v-2.01367a3.00328 3.00328 0 0 1 3-3h9.998a3.00328 3.00328 0 0 1 3 3v2.01367a3.00328 3.00328 0 0 1 -2.99991 3zm-9.998-6.01367a1.00067 1.00067 0 0 0 -1 1v2.01367a1.00067 1.00067 0 0 0 1 1h9.998a1.00067 1.00067 0 0 0 1-1v-2.01367a1.00067 1.00067 0 0 0 -1-1z"/><path d="m21.99609 63.99121a.99942.99942 0 0 1 -1-1v-7.27441a1 1 0 0 1 2 0v7.27441a.99942.99942 0 0 1 -1 1z"/><path d="m9.998 63.99121a.99942.99942 0 0 1 -1-1v-7.27441a1 1 0 0 1 2 0v7.27441a.99942.99942 0 0 1 -1 1z"/><path d="m21.0127 22.99316a.99942.99942 0 0 1 -1-1v-.999a1 1 0 0 1 2 0v.999a.99942.99942 0 0 1 -1 1z"/><path d="m17.0127 22.99316a.99942.99942 0 0 1 -1-1v-.999a1 1 0 0 1 2 0v.999a.99942.99942 0 0 1 -1 1z"/><path d="m13.0127 22.99316a.99942.99942 0 0 1 -1-1v-.999a1 1 0 0 1 2 0v.999a.99942.99942 0 0 1 -1 1z"/><path d="m21.0127 25.99414h-7.98438a1 1 0 0 1 0-2h7.98438a1 1 0 0 1 0 2z"/><path d="m49 52.01074a.99942.99942 0 0 1 -1-1 4.004 4.004 0 0 1 4-4 1 1 0 0 1 0 2 2.0026 2.0026 0 0 0 -2 2 .99942.99942 0 0 1 -1 1z"/><path d="m46 52.01074a.99942.99942 0 0 1 -1-1 7.0085 7.0085 0 0 1 7-7 1 1 0 0 1 0 2 5.00589 5.00589 0 0 0 -5 5 .99942.99942 0 0 1 -1 1z"/><path d="m43.999 45.02246a1 1 0 0 1 0-2 5 5 0 0 0 0-10 1 1 0 1 1 0-2 7 7 0 0 1 0 14z"/><path d="m43.999 42.02246a1 1 0 0 1 0-2 2 2 0 0 0 0-4 1 1 0 0 1 0-2 4 4 0 0 1 0 8z"/><path d="m55.41406 29.00879h-4.68261a1 1 0 0 1 0-2h4.68261a1 1 0 0 1 0 2z"/><path d="m56 26.01074h-9a1 1 0 0 1 0-2h9a1 1 0 0 1 0 2z"/><path d="m49 30.01074a1 1 0 0 1 0-2 1 1 0 0 0 0-2 1 1 0 0 1 0-2 3 3 0 0 1 0 6z"/><path d="m47 30.01074a3 3 0 0 1 0-6 1 1 0 0 1 0 2 1 1 0 0 0 0 2 1 1 0 0 1 0 2z"/><path d="m49 30.01074h-2a1 1 0 0 1 0-2h2a1 1 0 0 1 0 2z"/><path d="m47 27.01074a.99942.99942 0 0 1 -1-1v-1a1 1 0 0 1 2 0v1a.99942.99942 0 0 1 -1 1z"/><path d="m11.999 41.01367a1 1 0 0 1 0-2 7.00848 7.00848 0 0 0 7-7 1 1 0 1 1 2 0 9.00984 9.00984 0 0 1 -9 9z"/><path d="m11.99707 41.01367a.99942.99942 0 0 1 -1-1 9.00984 9.00984 0 0 1 9-9 1 1 0 1 1 0 2 7.0085 7.0085 0 0 0 -7 7 .99942.99942 0 0 1 -1 1z"/><path d="m11.999 45.01367a1 1 0 0 1 0-2 7.00848 7.00848 0 0 0 7-7 1 1 0 0 1 2 0 9.00984 9.00984 0 0 1 -9 9z"/><path d="m15 50.97852a.99943.99943 0 0 1 -1-1v-6.5459a1 1 0 0 1 2 0v6.5459a.99943.99943 0 0 1 -1 1z"/><path d="m15 48.02148a1 1 0 0 1 0-2 4.01229 4.01229 0 0 0 4.00781-4.00781 1 1 0 0 1 2 0 6.01489 6.01489 0 0 1 -6.00781 6.00781z"/></svg>