<svg id="Capa_1" enable-background="new 0 0 512 512" height="70" viewBox="0 0 512 512" width="70" xmlns="http://www.w3.org/2000/svg"><g><path d="m375.574 156.49c-5.219.001-10.229.906-14.893 2.552v-70.347c0-24.752-20.138-44.893-44.893-44.896-5.22 0-10.231.905-14.895 2.55v-1.456c-.001-24.751-20.14-44.89-44.893-44.893-24.755 0-44.895 20.14-44.895 44.896v1.455c-4.663-1.646-9.673-2.551-14.893-2.551-24.755 0-44.895 20.14-44.895 44.896v70.348c-4.664-1.646-9.674-2.552-14.895-2.552h-44.893v27.141 125.896c0 25.806 6.206 51.569 17.948 74.506 10.187 19.898 24.564 37.785 41.837 52.118v75.847h209.367l.001-75.852c17.272-14.333 31.65-32.22 41.836-52.118 11.742-22.937 17.948-48.7 17.947-74.502l.005-153.037h-44.896zm-136.129 325.51h-31.834c1.31-1.124 2.591-2.288 3.821-3.518 26.293-26.296 26.294-69.083 0-95.381-11.947-11.947-27.817-18.939-44.687-19.688-10.829-.485-21.471 1.642-31.125 6.074-3.632-7.245-6.584-14.82-8.839-22.639 34.303-15.75 75.064-8.793 102.355 18.502 31.617 31.62 35.56 80.658 10.309 116.65zm-87.071-86.938c12.973-4.17 27.602-.992 37.844 9.252 14.599 14.601 14.599 38.356 0 52.956-2.652 2.652-5.658 4.856-8.904 6.583v-42.429l-5.967-4.501c-8.61-6.494-16.293-13.836-22.973-21.861zm121.69 86.938c8.539-17.902 12.605-37.777 11.641-57.979-1.439-30.152-13.995-58.522-35.354-79.883-19.328-19.33-44.903-31.663-72.014-34.727-19.203-2.171-38.695.355-56.62 7.115-.119-2.323-.189-4.655-.189-7v-123.036h14.893c8.213.001 14.896 6.684 14.896 14.895l-.002 55.422h.002 29.998.002v-168.112c0-8.213 6.682-14.896 14.893-14.896 8.213.001 14.895 6.683 14.895 14.896v148.113h30v-191.912c0-8.213 6.682-14.896 14.893-14.896 8.213.001 14.896 6.684 14.896 14.896l-.002 191.912h.002 29.998.002v-148.113c0-8.213 6.682-14.896 14.893-14.896 8.213.001 14.895 6.683 14.895 14.896v168.113h.002 29.998.002l-.002-55.419c.001-8.213 6.684-14.896 14.895-14.897h14.895l-.003 84.883c-43.536-.482-82.862 29.882-92.043 74.08-7.124 34.305 5.468 69.155 32.259 90.974l-.003 45.571zm71.522-72.423c-15.332-14.849-22.24-36.592-17.789-58.022 6.241-30.047 33.053-50.645 62.669-50.166v8.14c.001 38.599-16.222 74.462-44.88 100.048z"/><path d="m270.668 268.332h30.284v30h-30.284z" transform="matrix(.707 -.707 .707 .707 -116.634 285.052)"/><path d="m211.047 268.332h30.284v30h-30.284z" transform="matrix(.707 -.707 .707 .707 -134.094 242.901)"/></g></svg>