<?xml version="1.0"?>
<svg xmlns="http://www.w3.org/2000/svg" id="outline_create" data-name="outline create" viewBox="0 0 512 512" width="70" height="70"><path d="M237.657,314.343l-11.314,11.314a41.991,41.991,0,0,0,59.314,0l-11.314-11.314A25.969,25.969,0,0,1,237.657,314.343Z"/><path d="M432,392H369.165a23,23,0,0,0,5.623-4.594l55.191-62.091a8.025,8.025,0,0,0,1.406-2.238l40-96a7.99,7.99,0,0,0,.562-2.16l24-208-15.894-1.834-23.871,206.88-39.051,93.724-54.3,61.089a7.27,7.27,0,0,1-9.422,1.214,7.237,7.237,0,0,1-1.915-10.171l47.062-67.231a8.017,8.017,0,0,0,.874-1.617l16-40-14.856-5.942L384.916,292.17l-1.349,1.926-8.575-5.717a10.018,10.018,0,0,1-4.154-10.745l9.431-37.723a15.971,15.971,0,0,1,11.64-11.642l.59-.147a32.173,32.173,0,0,0,24.213-29.766L423.994,16.32l-15.988-.64-7.281,182.036A16.086,16.086,0,0,1,388.62,212.6l-.59.147a31.947,31.947,0,0,0-23.284,23.284L360,255.015V208a103.275,103.275,0,0,0-30.462-73.535A104.86,104.86,0,0,0,312,120.327V112a56,56,0,0,0-112,0v8.4A104.011,104.011,0,0,0,152,208v72a104.1,104.1,0,0,0,3.3,26.048l-2.949,1.087L134.4,283.2a8.014,8.014,0,0,0-1.962-1.856l-14.2-9.469A13.975,13.975,0,0,1,112,260.226V16H96V260.226a29.943,29.943,0,0,0,13.359,24.962l13.063,8.708,14.259,19.012-54.6,20.115L55.766,300.858,31.972,15.335l-15.944,1.33,24,288a7.994,7.994,0,0,0,1.781,4.4L66.2,338.875l-20.28,7.471h0a22.026,22.026,0,1,0,15.229,41.336l34.568-12.735,5,6.119a27.769,27.769,0,0,0,19.341,10.172q1.2.1,2.389.1a27.756,27.756,0,0,0,18.38-6.927l38.733-33.9q1.422,1.542,2.9,3.02A104.86,104.86,0,0,0,200,367.673V392H80a64.072,64.072,0,0,0-64,64v40H32V456a48.055,48.055,0,0,1,48-48H200v32h16V376.06A104.331,104.331,0,0,0,296,376V440h16V408H432a48.055,48.055,0,0,1,48,48v40h16V456A64.072,64.072,0,0,0,432,392ZM318.225,145.779a87.311,87.311,0,0,1,24.165,45.379A56.08,56.08,0,0,1,296,136H280a72.094,72.094,0,0,0,63.989,71.543c0,.153.011.3.011.457v15.633A88.118,88.118,0,0,1,264,136V120.371A87.293,87.293,0,0,1,318.225,145.779ZM216,112a40,40,0,0,1,80-.061,104.335,104.335,0,0,0-80,.066Zm-48,96c0-.152,0-.3.006-.456A72.094,72.094,0,0,0,232,136H216a56.08,56.08,0,0,1-46.376,55.155A88.187,88.187,0,0,1,248,120.367V136a88.118,88.118,0,0,1-80,87.633ZM130.294,372.367a12,12,0,0,1-17.191-1.431l-1.5-1.841,38.749-14.276Zm-74.677.3a6,6,0,0,1-7.1-2.311,6.026,6.026,0,0,1,2.93-9l129.394-47.672L187.718,324ZM256,368a87.39,87.39,0,0,1-62.223-25.777q-1.23-1.23-2.415-2.515l11.4-4.2a8,8,0,0,0,3.89-11.945l-16-24a8,8,0,0,0-9.422-3.069l-10.827,3.989A88.2,88.2,0,0,1,168,280V239.7A103.325,103.325,0,0,0,216,223.6v.4h10a22.025,22.025,0,0,1,22,22v50h16V246a38.061,38.061,0,0,0-29.886-37.119A104.349,104.349,0,0,0,256,175.989,104.228,104.228,0,0,0,344,239.7V280A88.1,88.1,0,0,1,256,368Zm56,24V367.6a104.177,104.177,0,0,0,46.975-73.038,25.888,25.888,0,0,0,7.142,7.128l8.272,5.515-36,51.437a23.235,23.235,0,0,0,6.146,32.658c.373.249.755.474,1.138.7Z"/></svg>
