<svg id="Capa_1" enable-background="new 0 0 512 512" height="70" viewBox="0 0 512 512" width="70" xmlns="http://www.w3.org/2000/svg"><g><g id="Page-1_51_"><g id="_x30_52---Lip-Balm"><path id="Shape_238_" d="m116.17 82.466c1.76-.001 3.477-.547 4.915-1.562 28.417-20.061 43.094-29.704 65.869-29.704 4.713 0 8.533-3.821 8.533-8.533s-3.821-8.533-8.533-8.533c-27.853 0-46.012 11.861-75.708 32.828-3.038 2.145-4.338 6.01-3.212 9.554s4.417 5.951 8.136 5.95z"/><path id="Shape_237_" d="m221.856 512h68.267c14.138 0 25.6-11.461 25.6-25.6v-235.631c130.261-22.562 181.965-116.053 194.833-144.7 1.925-4.377 1.925-9.361 0-13.739-1.977-4.439-5.726-7.844-10.334-9.387-28.681-10.446-55.579-25.255-79.744-43.904-28.51-20.061-55.416-39.039-95.446-39.039-28.604.246-54.897 15.755-68.949 40.67-14.181-24.88-40.502-40.363-69.137-40.67-40.03 0-66.935 18.978-95.411 39.066-24.154 18.64-51.036 33.446-79.701 43.895-4.624 1.533-8.39 4.939-10.377 9.387-1.941 4.401-1.941 9.415 0 13.815 12.8 28.604 64.538 122.027 194.799 144.623v235.614c0 14.139 11.461 25.6 25.6 25.6zm76.8-25.6c0 4.713-3.821 8.533-8.533 8.533h-68.267c-4.713 0-8.533-3.82-8.533-8.533v-247.467h85.333zm-25.6-307.2h-34.133v-8.533c0-4.713 3.821-8.533 8.533-8.533h17.067c4.713 0 8.533 3.821 8.533 8.533zm-42.667 17.067h59.733v25.6h-68.267v-25.6zm-129.015-143.249c28.467-20.087 50.961-35.951 85.572-35.951 22.744.189 43.619 12.626 54.613 32.538 3.101 4.996 8.563 8.034 14.443 8.034s11.342-3.039 14.443-8.034c10.992-19.901 31.854-32.335 54.588-32.538 34.611 0 57.105 15.863 85.572 35.951 20.705 15.527 43.065 28.714 66.671 39.322-33.015 7.501-102.178 18.594-221.286 18.594s-188.178-11.094-221.219-18.578c23.575-10.632 45.91-23.825 66.603-39.338zm-80.589 53.512c29.303 7.484 101.879 21.47 235.204 21.47 133.709 0 206.31-14.063 235.452-21.538-35.327 68.047-100.899 115.246-176.64 127.147-1.303-3.95-4.004-7.288-7.595-9.387v-27.955c0-9.426-7.641-17.067-17.067-17.067v-8.533c0-14.138-11.461-25.6-25.6-25.6h-17.084c-14.138 0-25.6 11.462-25.6 25.6v8.533c-9.426 0-17.067 7.641-17.067 17.067v27.972c-3.591 2.099-6.291 5.437-7.595 9.387-75.702-11.816-141.232-59.027-176.408-127.096z"/><path id="Shape_236_" d="m255.989 435.2c14.138 0 25.6-11.462 25.6-25.6v-119.467c0-14.138-11.462-25.6-25.6-25.6-14.139 0-25.6 11.462-25.6 25.6v119.467c0 14.138 11.462 25.6 25.6 25.6zm0-17.067c-4.713 0-8.533-3.821-8.533-8.533v-42.667h17.067v42.667c-.001 4.713-3.821 8.533-8.534 8.533zm-8.533-93.866h17.067v25.6h-17.067zm8.533-42.667c4.713 0 8.533 3.821 8.533 8.533v17.067h-17.067v-17.067c.001-4.712 3.821-8.533 8.534-8.533z"/><path id="Shape_235_" d="m238.922 469.333h34.133c4.713 0 8.533-3.82 8.533-8.533s-3.82-8.533-8.533-8.533h-34.133c-4.713 0-8.533 3.82-8.533 8.533s3.821 8.533 8.533 8.533z"/></g></g></g></svg>