<svg id="Capa_1" enable-background="new 0 0 501.602 501.602" height="70" viewBox="0 0 501.602 501.602" width="70" xmlns="http://www.w3.org/2000/svg"><g><path d="m203.767 352.426h-22.288v-41.375h-90.25v41.375h-22.289c-8.284 0-15 6.716-15 15v118.25c0 8.284 6.716 15 15 15h134.827c8.284 0 15-6.716 15-15v-118.25c0-8.284-6.716-15-15-15z"/><path d="m250.562 136.413c20.139-16.277 44.985-25.443 71.181-26.062 43.153-1.02 131.771-.019 178.255.626-16.752-27.056-74.982-110.051-158.928-110.051-42.879 0-74.253 18.799-89.955 30.845-15.038-12.275-45.306-30.845-90.795-30.845-84.397 0-142.81 83.915-159.196 110.5h176.847c26.649 0 51.949 8.787 72.591 24.987z"/><path d="m322.45 140.343c-22.674.535-43.995 9.665-60.037 25.707l-1.107 1.107c-2.929 2.929-6.768 4.394-10.606 4.394s-7.678-1.464-10.606-4.393c-16.594-16.594-38.656-25.732-62.122-25.732h-177.972c7.07 14.589 23.276 43.718 51.663 72.914 4.276 4.398 8.67 8.629 13.172 12.695 6.875-16.069 22.839-27.359 41.394-27.359h15.37v-10.75c0-8.284 6.716-15 15-15s15 6.716 15 15v10.75h14.88c24.813 0 45 20.187 45 45v49.217c12.771 1.625 25.853 2.448 39.221 2.448 43.44 0 83.902-8.619 120.263-25.617 29.136-13.621 55.64-32.591 78.773-56.384 28.671-29.488 44.91-58.898 51.866-73.337-45.694-.641-135.82-1.684-179.152-.66z"/><path d="m181.479 244.676c0-8.284-6.716-15-15-15h-60.25c-8.284 0-15 6.716-15 15v36.375h90.25z"/></g></svg>