<?xml version="1.0" encoding="UTF-8"?>
<svg xmlns="http://www.w3.org/2000/svg" xmlns:xlink="http://www.w3.org/1999/xlink" version="1.1" id="Capa_1" x="0px" y="0px" viewBox="0 0 512 512" style="enable-background:new 0 0 512 512;" xml:space="preserve" width="70" height="70">
<g>
	<path style="fill:none;stroke:#000000;stroke-width:15;stroke-linecap:round;stroke-linejoin:round;stroke-miterlimit:10;" d="&#10;&#9;&#9;M120.454,286.119c0,31.195-25.282,56.477-56.477,56.477c-31.196,0-56.477-25.282-56.477-56.477V180.695&#10;&#9;&#9;c0-31.196,25.282-56.477,56.477-56.477c31.199,0,56.477,25.271,56.477,56.477"/>
	<path style="fill:none;stroke:#000000;stroke-width:15;stroke-linecap:round;stroke-linejoin:round;stroke-miterlimit:10;" d="&#10;&#9;&#9;M120.45,180.984c0-11.71,0-20.28,0-22.88c0-31.2,25.29-56.48,56.48-56.48c31.2,0,56.48,25.27,56.48,56.48"/>
	<path style="fill:none;stroke:#000000;stroke-width:15;stroke-linecap:round;stroke-linejoin:round;stroke-miterlimit:10;" d="&#10;&#9;&#9;M120.45,215.984c0,26.14,0,54.5,0,70.13v22.6c0,31.19,25.29,56.47,56.48,56.47c31.2,0,56.48-25.28,56.48-56.47"/>
	<path style="fill:none;stroke:#000000;stroke-width:15;stroke-linecap:round;stroke-linejoin:round;stroke-miterlimit:10;" d="&#10;&#9;&#9;M346.364,308.71v15.061c0,31.195-25.282,56.477-56.477,56.477c-31.119,0-56.477-25.199-56.477-56.477c0-13.083,0-172.619,0-180.727&#10;&#9;&#9;c0-31.195,25.282-56.477,56.477-56.477c15.593,0,29.72,6.315,39.941,16.537c10.211,10.221,16.536,24.338,16.536,39.941v15.061"/>
	<path style="fill:none;stroke:#000000;stroke-width:15;stroke-linecap:round;stroke-linejoin:round;stroke-miterlimit:10;" d="&#10;&#9;&#9;M251.15,364.874c-5.75,15.9-2.26,34.51,10.55,47.32c8.18,8.17,19.48,13.24,31.95,13.24h35.21"/>
	<path style="fill:none;stroke:#000000;stroke-width:15;stroke-linecap:round;stroke-linejoin:round;stroke-miterlimit:10;" d="&#10;&#9;&#9;M459.32,199.294c27.15,17.09,45.18,47.35,45.18,81.8v54.47c0,49.63-40.23,89.87-89.86,89.87h-50.78"/>
	
		<polyline style="fill:none;stroke:#000000;stroke-width:15;stroke-linecap:round;stroke-linejoin:round;stroke-miterlimit:10;" points="&#10;&#9;&#9;52.682,203.285 52.682,263.528 82.803,263.528 &#9;"/>
	<path style="fill:none;stroke:#000000;stroke-width:15;stroke-linecap:round;stroke-linejoin:round;stroke-miterlimit:10;" d="&#10;&#9;&#9;M176.932,263.528c-14.559,0-26.356-11.797-26.356-26.356v-7.53c0-14.559,11.797-26.356,26.356-26.356&#10;&#9;&#9;c14.545,0,26.356,11.797,26.356,26.356v7.53C203.288,251.73,191.49,263.528,176.932,263.528z"/>
	
		<polyline style="fill:none;stroke:#000000;stroke-width:15;stroke-linecap:round;stroke-linejoin:round;stroke-miterlimit:10;" points="&#10;&#9;&#9;316.242,203.285 289.886,263.528 263.53,203.285 &#9;"/>
	<path style="fill:none;stroke:#000000;stroke-width:15;stroke-linecap:round;stroke-linejoin:round;stroke-miterlimit:10;" d="&#10;&#9;&#9;M459.318,308.71c0,31.196-25.282,56.477-56.477,56.477s-56.477-25.282-56.477-56.477V158.104c0-31.196,25.282-56.477,56.477-56.477&#10;&#9;&#9;c31.199,0,56.477,25.271,56.477,56.477C459.318,172.076,459.318,289.878,459.318,308.71z"/>
	<path style="fill:none;stroke:#000000;stroke-width:15;stroke-linecap:round;stroke-linejoin:round;stroke-miterlimit:10;" d="&#10;&#9;&#9;M414.136,263.528h-30.121c0-7.288,0-52.906,0-60.242h30.121"/>
	
		<line style="fill:none;stroke:#000000;stroke-width:15;stroke-linecap:round;stroke-linejoin:round;stroke-miterlimit:10;" x1="384.015" y1="233.407" x2="414.136" y2="233.407"/>
</g>















</svg>
