<?xml version="1.0" encoding="UTF-8" standalone="no"?>
<!-- Created with Inkscape (http://www.inkscape.org/) -->

<svg
   version="1.1"
   id="svg645"
   xml:space="preserve"
   width="70"
   height="70"
   viewBox="0 0 682.66669 682.66669"
   xmlns="http://www.w3.org/2000/svg"
   xmlns:svg="http://www.w3.org/2000/svg"><defs
     id="defs649"><clipPath
       clipPathUnits="userSpaceOnUse"
       id="clipPath663"><path
         d="M 0,512 H 512 V 0 H 0 Z"
         id="path661" /></clipPath></defs><g
     id="g651"
     transform="matrix(1.3333333,0,0,-1.3333333,0,682.66667)"><g
       id="g653"
       transform="translate(262.0244,258.5)"><path
         d="M 0,0 V 37"
         style="fill:none;stroke:#000000;stroke-width:15;stroke-linecap:round;stroke-linejoin:round;stroke-miterlimit:10;stroke-dasharray:none;stroke-opacity:1"
         id="path655" /></g><g
       id="g657"><g
         id="g659"
         clip-path="url(#clipPath663)"><g
           id="g665"
           transform="translate(205.7979,288.5)"><path
             d="M 0,0 V 0 C 36.729,10.603 75.724,10.603 112.453,0"
             style="fill:none;stroke:#000000;stroke-width:15;stroke-linecap:round;stroke-linejoin:round;stroke-miterlimit:10;stroke-dasharray:none;stroke-opacity:1"
             id="path667" /></g><g
           id="g669"
           transform="translate(279.6816,344.6909)"><path
             d="m 0,0 c 0,-9.713 -7.905,-17.586 -17.657,-17.586 -9.752,0 -17.658,7.873 -17.658,17.586 0,9.713 7.906,17.586 17.658,17.586 C -7.905,17.586 0,9.713 0,0 Z"
             style="fill:none;stroke:#000000;stroke-width:15;stroke-linecap:round;stroke-linejoin:round;stroke-miterlimit:10;stroke-dasharray:none;stroke-opacity:1"
             id="path671" /></g><g
           id="g673"
           transform="translate(286.623,233.5986)"><path
             d="m 0,0 c 0,-13.531 -11.013,-24.5 -24.599,-24.5 -13.586,0 -24.599,10.969 -24.599,24.5 0,13.531 11.013,24.5 24.599,24.5 C -11.013,24.5 0,13.531 0,0 Z"
             style="fill:none;stroke:#000000;stroke-width:15;stroke-linecap:round;stroke-linejoin:round;stroke-miterlimit:10;stroke-dasharray:none;stroke-opacity:1"
             id="path675" /></g><g
           id="g677"
           transform="translate(435.041,391)"><path
             d="m 0,0 c 2.804,-41.861 12.74,-83.005 29.441,-121.651 l 9.753,-22.566 c 19.967,-46.204 30.265,-95.978 30.265,-146.28 V -383.5"
             style="fill:none;stroke:#000000;stroke-width:15;stroke-linecap:round;stroke-linejoin:round;stroke-miterlimit:10;stroke-dasharray:none;stroke-opacity:1"
             id="path679" /></g><g
           id="g681"
           transform="translate(434.2173,504.5)"><path
             d="M 0,0 V -78.5"
             style="fill:none;stroke:#000000;stroke-width:15;stroke-linecap:round;stroke-linejoin:round;stroke-miterlimit:10;stroke-dasharray:none;stroke-opacity:1"
             id="path683" /></g><g
           id="g685"
           transform="translate(47.5176,269.3491)"><path
             d="m 0,0 -9.752,-22.566 c -19.967,-46.204 -30.266,-95.978 -30.266,-146.28 v -93.003"
             style="fill:none;stroke:#000000;stroke-width:15;stroke-linecap:round;stroke-linejoin:round;stroke-miterlimit:10;stroke-dasharray:none;stroke-opacity:1"
             id="path687" /></g><g
           id="g689"
           transform="translate(77.7827,504.5)"><path
             d="m 0,0 v -88.872 c 0,-38.742 -6.109,-77.17 -18.039,-113.896"
             style="fill:none;stroke:#000000;stroke-width:15;stroke-linecap:round;stroke-linejoin:round;stroke-miterlimit:10;stroke-dasharray:none;stroke-opacity:1"
             id="path691" /></g><g
           id="g693"
           transform="translate(416.5815,191.5303)"><path
             d="M 0,0 C 23.428,6.858 46.518,15.25 69.121,25.174"
             style="fill:none;stroke:#000000;stroke-width:15;stroke-linecap:round;stroke-linejoin:round;stroke-miterlimit:10;stroke-dasharray:none;stroke-opacity:1"
             id="path695" /></g><g
           id="g697"
           transform="translate(26.2974,216.7051)"><path
             d="M 0,0 C 112.879,-49.564 237.92,-60.893 356.359,-33.985"
             style="fill:none;stroke:#000000;stroke-width:15;stroke-linecap:round;stroke-linejoin:round;stroke-miterlimit:10;stroke-dasharray:none;stroke-opacity:1"
             id="path699" /></g><g
           id="g701"
           transform="translate(150.7642,49.2104)"><path
             d="M 0,0 -141.256,87.29"
             style="fill:none;stroke:#000000;stroke-width:15;stroke-linecap:round;stroke-linejoin:round;stroke-miterlimit:10;stroke-dasharray:none;stroke-opacity:1"
             id="path703" /></g><g
           id="g705"
           transform="translate(498.4756,136.5)"><path
             d="m 0,0 -178.393,-110.238 c -19.845,-12.264 -42.735,-18.762 -66.091,-18.762 -23.355,0 -46.245,6.498 -66.091,18.762 l -7.361,4.548"
             style="fill:none;stroke:#000000;stroke-width:15;stroke-linecap:round;stroke-linejoin:round;stroke-miterlimit:10;stroke-dasharray:none;stroke-opacity:1"
             id="path707" /></g></g></g></g></svg>
