<?xml version="1.0" encoding="UTF-8"?>
<svg xmlns="http://www.w3.org/2000/svg" xmlns:xlink="http://www.w3.org/1999/xlink" version="1.1" id="Capa_1" x="0px" y="0px" viewBox="0 0 512 512" style="enable-background:new 0 0 512 512;" xml:space="preserve" width="70" height="70">
<g>
	<path style="fill:none;stroke:#000000;stroke-width:15;stroke-linecap:round;stroke-linejoin:round;stroke-miterlimit:10;" d="&#10;&#9;&#9;M392.558,395.449l-13.737-4c-21.757-6.298-43.4,10.014-43.4,32.622c0,22.098-9.044,43.232-25.056,58.522 M282.35,499.926&#10;&#9;&#9;c-7.906,2.837-16.41,4.425-25.255,4.567c-44.311,0.596-80.516-35.118-80.516-79.229v-1.191c0-22.609-21.672-38.806-43.429-32.622&#10;&#9;&#9;l-13.737,4"/>
	<path style="fill:none;stroke:#000000;stroke-width:15;stroke-linecap:round;stroke-linejoin:round;stroke-miterlimit:10;" d="&#10;&#9;&#9;M334.909,432.979l63.565,7.177c2.929,0.312,5.83,0.511,8.731,0.511c41.523,0,76.221-33.615,76.221-76.109&#10;&#9;&#9;c0-33.417-21.871-62.805-53.867-72.705l-13.737-4.198c-39.703-12.311-67.461-48.026-69.48-89.442l-5.318-109.894&#10;&#9;&#9;C338.833,43.101,301.406,7.5,255.986,7.5s-82.819,35.601-85.038,80.818l-1.479,30.551 M167.763,154.499l-2.133,43.714&#10;&#9;&#9;c-1.991,41.416-29.777,77.13-69.481,89.442l-13.737,4.198c-31.996,9.9-53.838,39.289-53.838,72.705&#10;&#9;&#9;c0,42.494,34.698,76.109,76.193,76.109c2.929,0,5.83-0.199,8.731-0.511l63.451-7.177"/>
	<path style="fill:none;stroke:#000000;stroke-width:15;stroke-linecap:round;stroke-linejoin:round;stroke-miterlimit:10;" d="&#10;&#9;&#9;M399.298,332.9c0-14.808-12.03-26.807-26.905-26.807c-14.846,0-26.876,11.999-26.876,26.807c0,14.836,12.03,26.835,26.876,26.835&#10;&#9;&#9;C387.268,359.735,399.298,347.736,399.298,332.9L399.298,332.9z"/>
	
		<line style="fill:none;stroke:#000000;stroke-width:15;stroke-linecap:round;stroke-linejoin:round;stroke-miterlimit:10;" x1="345.517" y1="332.9" x2="314.147" y2="332.9"/>
	<path style="fill:none;stroke:#000000;stroke-width:15;stroke-linecap:round;stroke-linejoin:round;stroke-miterlimit:10;" d="&#10;&#9;&#9;M325.694,302.292c-15.671,15.63-15.671,43.203,1.394,59.429"/>
</g>















</svg>
