<?xml version="1.0" encoding="UTF-8" standalone="no"?>
<!-- Created with Inkscape (http://www.inkscape.org/) -->

<svg
   version="1.1"
   id="svg4716"
   xml:space="preserve"
   width="70"
   height="70"
   viewBox="0 0 682.66669 682.66669"
   xmlns="http://www.w3.org/2000/svg"
   xmlns:svg="http://www.w3.org/2000/svg"><defs
     id="defs4720"><clipPath
       clipPathUnits="userSpaceOnUse"
       id="clipPath4730"><path
         d="M 0,512 H 512 V 0 H 0 Z"
         id="path4728" /></clipPath></defs><g
     id="g4722"
     transform="matrix(1.3333333,0,0,-1.3333333,0,682.66667)"><g
       id="g4724"><g
         id="g4726"
         clip-path="url(#clipPath4730)"><g
           id="g4732"
           transform="translate(389.9707,381.8994)"><path
             d="m 0,0 c -4.654,44.888 -33.452,85.799 -78.2,103.635 -25.606,10.204 -53.65,9.828 -78.973,-1.061 -25.321,-10.889 -44.886,-30.987 -55.091,-56.593 -17.467,-43.821 3.975,-93.682 47.797,-111.148 2.256,-0.899 4.54,-1.677 6.843,-2.339"
             style="fill:none;stroke:#000000;stroke-width:15;stroke-linecap:round;stroke-linejoin:round;stroke-miterlimit:10;stroke-dasharray:none;stroke-opacity:1"
             id="path4734" /></g><g
           id="g4736"
           transform="translate(267.3466,313.3242)"><path
             d="m 0,0 c 4.352,0.97 8.647,2.342 12.832,4.143 17.531,7.538 31.077,21.453 38.141,39.179 5.949,14.926 5.731,31.276 -0.618,46.036 -6.348,14.761 -18.063,26.166 -32.989,32.116 -7.697,3.067 -16.42,-0.685 -19.487,-8.38 -3.067,-7.696 0.685,-16.421 8.38,-19.489 7.482,-2.981 13.355,-8.699 16.537,-16.098 3.183,-7.4 3.292,-15.595 0.309,-23.078 C 19.008,44.146 11.15,36.074 0.981,31.701 c -10.17,-4.372 -21.434,-4.524 -31.717,-0.426 -28.455,11.342 -42.378,43.719 -31.037,72.175 7.238,18.161 21.116,32.416 39.075,40.14 17.96,7.722 37.853,7.99 56.015,0.752 48.784,-19.444 72.654,-74.95 53.21,-123.735 -8.351,-20.951 -21.818,-38.363 -38.384,-51.374 -0.47,-0.293 -0.931,-0.608 -1.376,-0.959 -0.574,-0.452 -1.135,-0.917 -1.701,-1.376 -33.187,-24.429 -77.805,-31.756 -118.744,-15.438 -0.339,0.135 -0.681,0.24 -1.023,0.349 -24.451,9.735 -51.138,12.939 -77.908,9.05 -68.34,-9.932 -115.858,-73.611 -105.925,-141.951 7.455,-51.301 51.664,-88.362 102.051,-88.358 4.919,0 9.902,0.353 14.909,1.081 22.615,3.287 42.596,15.183 56.263,33.498 13.667,18.315 19.383,40.855 16.096,63.471 -5.665,38.983 -41.982,66.086 -80.974,60.424 -15.901,-2.31 -29.951,-10.675 -39.56,-23.553 -9.609,-12.877 -13.629,-28.727 -11.317,-44.627 1.191,-8.199 8.811,-13.874 17.001,-12.688 8.197,1.193 13.877,8.805 12.686,17.002 -1.159,7.971 0.856,15.916 5.673,22.371 4.818,6.455 11.861,10.649 19.832,11.807 22.616,3.286 43.686,-12.438 46.972,-35.051 2.134,-14.684 -1.578,-29.322 -10.453,-41.215 -8.874,-11.892 -21.849,-19.617 -36.533,-21.752 -39.94,-5.806 -77.153,21.965 -82.959,61.905 -3.658,25.175 2.705,50.268 17.919,70.657 15.215,20.389 37.458,33.632 62.634,37.291 66.168,9.623 127.906,-36.2 138.444,-102.366 3.498,-27.314 14.331,-53.27 31.815,-75.432 24.682,-31.288 61.396,-47.621 98.457,-47.62 27.161,0.001 54.509,8.774 77.438,26.862 21.64,17.073 35.338,41.549 38.568,68.922 3.23,27.374 -4.393,54.367 -21.465,76.008 -14.153,17.941 -34.446,29.297 -57.141,31.975 -22.695,2.674 -45.073,-3.641 -63.014,-17.794 -14.983,-11.82 -24.466,-28.767 -26.703,-47.718 -2.236,-18.951 3.042,-37.64 14.861,-52.621 9.951,-12.616 24.22,-20.6 40.176,-22.484 15.957,-1.882 31.692,2.56 44.307,12.513 6.505,5.131 7.617,14.563 2.487,21.066 -5.131,6.504 -14.565,7.616 -21.066,2.486 -6.324,-4.988 -14.205,-7.215 -22.211,-6.272 -7.999,0.945 -15.152,4.947 -20.14,11.271 -6.857,8.691 -9.918,19.531 -8.621,30.525 1.297,10.993 6.798,20.824 15.489,27.68 11.652,9.19 26.183,13.293 40.92,11.556 14.736,-1.74 27.913,-9.114 37.104,-20.764 12.108,-15.349 17.515,-34.495 15.224,-53.91 -2.292,-19.415 -12.007,-36.778 -27.355,-48.886 -17.44,-13.758 -38.232,-20.43 -58.889,-20.428 -28.181,0.002 -56.105,12.423 -74.874,36.214 -13.699,17.366 -22.32,37.626 -25.365,58.97 -0.019,0.172 -0.024,0.342 -0.048,0.513 -0.059,0.404 -0.129,0.803 -0.19,1.206 -1.262,9.83 -1.345,19.877 -0.194,29.968 3.655,32.063 19.33,60.732 44.191,80.949 21.86,16.375 39.646,38.751 50.483,65.94 3.159,7.926 5.445,15.986 6.911,24.075"
             style="fill:none;stroke:#000000;stroke-width:15;stroke-linecap:round;stroke-linejoin:round;stroke-miterlimit:10;stroke-dasharray:none;stroke-opacity:1"
             id="path4738" /></g></g></g></g></svg>
