<svg height="70" viewBox="0 -90 512.03154 512" width="70" xmlns="http://www.w3.org/2000/svg"><path d="m123.882812 261.988281c28.714844 45.011719 78.777344 71.84375 132.15625 70.828125 62.472657 0 110.933594-30.191406 143.992188-89.71875 20.5-35.269531 56.460938-58.773437 96.992188-63.394531 3.378906-.453125 6.546874-1.898437 9.101562-4.15625.582031-.476563 1.101562-1.027344 1.539062-1.640625 1.484376-1.617188 2.644532-3.503906 3.410157-5.5625 2.132812-6.0625.636719-12.804688-3.855469-17.398438-6.449219-6.664062-15.898438-15.121093-26.828125-24.917968-22.828125-19.566406-44.28125-40.6875-64.207031-63.207032-43.175782-51.832031-53.65625-62.804687-91.875-62.804687-15.625.261719-30.332032 7.425781-40.167969 19.566406-8.140625 8.140625-14.566406 14.566407-28.101563 14.566407-13.53125 0-19.957031-6.425782-28.097656-14.566407-9.839844-12.140625-24.542968-19.304687-40.167968-19.566406-37.46875 0-48.351563 10.640625-89.464844 59.902344-43.5625 1.910156-81.210938 31.035156-94 72.722656-.070313.238281-.128906.46875-.179688.707031-.273437.769532-.5 1.554688-.675781 2.347656-8.191406 30.753907-1.628906 63.566407 17.757813 88.804688 19.390624 25.238281 49.402343 40.039062 81.230468 40.050781 7.21875-.082031 14.40625-.941406 21.441406-2.5625zm-70.757812-113.304687c.359375-1.324219.761719-2.636719 1.230469-3.933594.238281-.65625.484375-1.324219.75-1.972656.53125-1.296875 1.125-2.558594 1.757812-3.804688.289063-.5625.554688-1.136718.855469-1.707031.96875-1.769531 2.046875-3.480469 3.222656-5.121094 15.175782-21.097656 43.800782-27.398437 66.433594-14.617187-26.234375 6.640625-51.304688 17.238281-74.351562 31.421875zm2.03125 26.503906c1.042969.855469 2.058594 1.707031 3.082031 2.558594 5.171875 4.371094 10.238281 8.867187 14.941407 13.65625l.078124.085937c4.71875 4.742188 9.144532 9.753907 13.429688 14.890625.855469 1.03125 1.707031 2.054688 2.558594 3.105469.667968.851563 1.246094 1.707031 1.894531 2.558594-19.316406-4.410157-34.371094-19.542969-38.679687-38.886719.878906.699219 1.824218 1.324219 2.695312 2.03125zm329.960938 59.613281c-30.261719 54.496094-72.484376 80.949219-129.078126 80.949219-51.820312 0-91.46875-22.1875-121.222656-67.933594-2.679687-4.0625-5.316406-8.433594-7.84375-13.007812-3.507812-6.296875-7.242187-12.355469-11.09375-17.996094l-.058594-.074219c-4.351562-6.515625-8.988281-12.789062-13.910156-18.824219-1.621094-1.988281-3.414062-3.816406-5.117187-5.761718-3.414063-3.976563-6.878907-7.96875-10.574219-11.726563-2.160156-2.199219-4.515625-4.265625-6.757812-6.347656-3.414063-3.257813-6.886719-6.542969-10.539063-9.617187-1.125-.953126-2.289063-1.886719-3.414063-2.816407 36.164063-20.480469 66.476563-30.949219 82.175782-28.160156 4.8125.914063 8.695312 1.808594 12.21875 2.816406 9.671875 2.707031 19.179687 5.96875 28.476562 9.773438-15.746094 8-25.816406 24.015625-26.207031 41.675781 0 4.710938 3.820313 8.53125 8.535156 8.53125 4.710938 0 8.535157-3.820312 8.535157-8.53125 0-19.292969 18.242187-28.535156 28.953124-32.308594 1.542969.855469 3.121094 1.707032 4.539063 2.464844 10.488281 6.730469 22.386719 10.957031 34.773437 12.359375v43.082031c0 4.714844 3.820313 8.535156 8.53125 8.535156 4.714844 0 8.535157-3.820312 8.535157-8.535156v-43.082031c12.273437-1.382813 24.070312-5.542969 34.492187-12.167969 1.550782-.855468 3.183594-1.707031 4.863282-2.640625 10.726562 3.78125 28.910156 13.023438 28.910156 32.292969 0 4.710938 3.820312 8.53125 8.535156 8.53125 4.710938 0 8.53125-3.820312 8.53125-8.53125-.347656-17.660156-10.382812-33.699219-26.109375-41.738281 9.289063-3.808594 18.789063-7.082031 28.457031-9.796875 39.046875-11.160156 95.445313 13.835937 125.652344 29.75-39.265625 8.808594-72.972656 33.8125-92.789062 68.835937zm-197.34375-217.71875c13.535156 0 19.960937 6.425781 28.101562 14.566407 9.667969 12.351562 24.480469 19.566406 40.164062 19.566406 15.6875 0 30.5-7.214844 40.167969-19.566406 8.140625-8.140626 14.566407-14.566407 28.101563-14.566407 30.394531 0 36.90625 6.417969 78.777344 56.660157 20.4375 23.171874 42.46875 44.886718 65.929687 64.992187 3.082031 2.765625 5.972656 5.382813 8.796875 7.910156-34.621094-17.367187-89.011719-38.648437-130.253906-26.828125-.347656.09375-.636719.195313-.988282.296875 7.53125-13.207031 11.613282-28.097656 11.871094-43.296875 0-4.714844-3.820312-8.535156-8.535156-8.535156-4.710938 0-8.53125 3.820312-8.53125 8.535156-1.09375 19.542969-8.886719 38.113282-22.070312 52.582032-8.003907 3.226562-14.429688 6.324218-19.890626 9.15625-.238281.109374-.472656.234374-.699218.367187-2.824219 1.476563-5.453125 2.902344-7.832032 4.207031-21.207031 14.042969-48.777343 13.976563-69.914062-.171875-2.441406-1.339843-5.042969-2.773437-7.875-4.265625h-.054688c-.253906-.128906-.511718-.246094-.773437-.351562-2.886719-1.492188-6.929687-3.507813-11.792969-5.671875-11.148437-37.324219-42.550781-65.054688-80.964844-71.492188 32.65625-38.675781 40.644532-44.09375 68.265626-44.09375zm-170.667969 145.066407c.007812-7.617188 1.015625-15.203126 2.996093-22.5625.109376-.453126.25-.894532.417969-1.332032.117188-.351562.214844-.710937.289063-1.074218 10.21875-33.457032 39.824218-57.292969 74.691406-60.128907 34.871094-2.839843 67.941406 15.894531 83.433594 47.261719-4.601563-1.542969-9.386719-3.054688-14.394532-4.480469-3.226562-.929687-6.828124-1.75-10.839843-2.558593-13.636719-15.667969-33.683594-24.246094-54.433594-23.296876-20.75.953126-39.929687 11.328126-52.078125 28.175782-6.8125 9.378906-11.078125 20.359375-12.390625 31.871094v.539062.101562c-.382813 2.476563-.59375 4.980469-.625 7.484376.042969 37.6875 30.582031 68.226562 68.269531 68.265624.621094 0 1.226563-.082031 1.851563-.101562 2.671875 4.097656 5.289062 8.328125 7.746093 12.800781.683594 1.230469 1.390626 2.40625 2.082032 3.601563-3.871094.527344-7.773438.785156-11.679688.769531-47.109375-.054687-85.28125-38.226563-85.335937-85.335937zm0 0"/></svg>