<svg xmlns="http://www.w3.org/2000/svg" version="1.1" xmlns:xlink="http://www.w3.org/1999/xlink" xmlns:svgjs="http://svgjs.com/svgjs" width="7" height="3" x="0" y="0" viewBox="0 0 682.66669 682.66669" style="enable-background:new 0 0 512 512" xml:space="preserve" class=""><g><defs id="defs1351"><clipPath clipPathUnits="userSpaceOnUse" id="clipPath1361"><path d="M 0,512 H 512 V 0 H 0 Z" id="path1359" fill="#9e8a78" data-original="#000000"></path></clipPath></defs><g id="g1353" transform="matrix(1.3333333,0,0,-1.3333333,0,682.66667)"><g id="g1355"><g id="g1357" clip-path="url(#clipPath1361)"><g id="g1363" transform="translate(286,37.6445)"><path d="m 0,0 c 0,-16.569 -13.432,-30 -30,-30 -16.568,0 -30,13.431 -30,30 0,16.568 13.432,30 30,30 C -13.432,30 0,16.568 0,0 Z" style="stroke-width:15;stroke-linecap:round;stroke-linejoin:round;stroke-miterlimit:10;stroke-dasharray:none;stroke-opacity:1" id="path1365" fill="none" stroke="#9e8a78" stroke-width="15" stroke-linecap="round" stroke-linejoin="round" stroke-miterlimit="10" stroke-dasharray="none" stroke-opacity="" data-original="#000000" class=""></path></g><g id="g1367" transform="translate(414.0474,172.3921)"><path d="m 0,0 c 8.284,0 15.453,6.716 15.453,15 0,8.284 -6.716,15 -15,15 H -29.68 c -9.368,0 -18.198,-4.376 -23.872,-11.831 L -85.793,-24.192 C -102.966,-46.754 -129.693,-60 -158.047,-60 c -28.355,0 -55.082,13.246 -72.254,35.808 l -32.242,42.361 C -268.217,25.624 -277.047,30 -286.415,30 h -30.132 c -8.285,0 -15,-6.716 -15,-15 0,-8.284 7.168,-15 15.452,-15" style="stroke-width:15;stroke-linecap:round;stroke-linejoin:round;stroke-miterlimit:10;stroke-dasharray:none;stroke-opacity:1" id="path1369" fill="none" stroke="#9e8a78" stroke-width="15" stroke-linecap="round" stroke-linejoin="round" stroke-miterlimit="10" stroke-dasharray="none" stroke-opacity="" data-original="#000000" class=""></path></g><g id="g1371" transform="translate(162.7793,175.7476)"><path d="m 0,0 c -7.523,-14.473 -11.779,-30.917 -11.779,-48.355 0,-48.405 32.756,-89.152 77.309,-101.303" style="stroke-width:15;stroke-linecap:round;stroke-linejoin:round;stroke-miterlimit:10;stroke-dasharray:none;stroke-opacity:1" id="path1373" fill="none" stroke="#9e8a78" stroke-width="15" stroke-linecap="round" stroke-linejoin="round" stroke-miterlimit="10" stroke-dasharray="none" stroke-opacity="" data-original="#000000" class=""></path></g><g id="g1375" transform="translate(232.4307,56.1924)"><path d="m 0,0 c -29.87,9.884 -51.431,38.016 -51.431,71.2 0,7.154 1.023,14.066 2.894,20.619 -0.048,0.064 -0.099,0.125 -0.148,0.189" style="stroke-width:15;stroke-linecap:round;stroke-linejoin:round;stroke-miterlimit:10;stroke-dasharray:none;stroke-opacity:1" id="path1377" fill="none" stroke="#9e8a78" stroke-width="15" stroke-linecap="round" stroke-linejoin="round" stroke-miterlimit="10" stroke-dasharray="none" stroke-opacity="" data-original="#000000" class=""></path></g><g id="g1379" transform="translate(328.2539,148.2002)"><path d="m 0,0 c -0.048,-0.063 -0.099,-0.125 -0.148,-0.188 1.871,-6.554 2.894,-13.466 2.894,-20.62 0,-33.184 -21.56,-61.316 -51.431,-71.2" style="stroke-width:15;stroke-linecap:round;stroke-linejoin:round;stroke-miterlimit:10;stroke-dasharray:none;stroke-opacity:1" id="path1381" fill="none" stroke="#9e8a78" stroke-width="15" stroke-linecap="round" stroke-linejoin="round" stroke-miterlimit="10" stroke-dasharray="none" stroke-opacity="" data-original="#000000" class=""></path></g><g id="g1383" transform="translate(283.6909,26.0898)"><path d="m 0,0 c 44.553,12.151 77.309,52.898 77.309,101.302 0,17.439 -4.256,33.883 -11.779,48.356" style="stroke-width:15;stroke-linecap:round;stroke-linejoin:round;stroke-miterlimit:10;stroke-dasharray:none;stroke-opacity:1" id="path1385" fill="none" stroke="#9e8a78" stroke-width="15" stroke-linecap="round" stroke-linejoin="round" stroke-miterlimit="10" stroke-dasharray="none" stroke-opacity="" data-original="#000000" class=""></path></g><g id="g1387" transform="translate(122.6704,279.3677)"><path d="m 0,0 c 0,-8.284 6.716,-15 15,-15 8.284,0 15,6.716 15,15 C 30,8.285 23.284,15 15,15 6.716,15 0,8.285 0,0 Z" style="stroke-width:15;stroke-linecap:round;stroke-linejoin:round;stroke-miterlimit:10;stroke-dasharray:none;stroke-opacity:1" id="path1389" fill="none" stroke="#9e8a78" stroke-width="15" stroke-linecap="round" stroke-linejoin="round" stroke-miterlimit="10" stroke-dasharray="none" stroke-opacity="" data-original="#000000" class=""></path></g><g id="g1391" transform="translate(389.3296,279.3677)"><path d="m 0,0 c 0,-8.284 -6.716,-15 -15,-15 -8.284,0 -15,6.716 -15,15 0,8.285 6.716,15 15,15 C -6.716,15 0,8.285 0,0 Z" style="stroke-width:15;stroke-linecap:round;stroke-linejoin:round;stroke-miterlimit:10;stroke-dasharray:none;stroke-opacity:1" id="path1393" fill="none" stroke="#9e8a78" stroke-width="15" stroke-linecap="round" stroke-linejoin="round" stroke-miterlimit="10" stroke-dasharray="none" stroke-opacity="" data-original="#000000" class=""></path></g><g id="g1395" transform="translate(414.5,250.3442)"><path d="M 0,0 C 0,24.853 20.147,45 45,45 69.853,45 90,24.853 90,0 90,-20.805 75.881,-38.313 56.702,-43.463" style="stroke-width:15;stroke-linecap:round;stroke-linejoin:round;stroke-miterlimit:10;stroke-dasharray:none;stroke-opacity:1" id="path1397" fill="none" stroke="#9e8a78" stroke-width="15" stroke-linecap="round" stroke-linejoin="round" stroke-miterlimit="10" stroke-dasharray="none" stroke-opacity="" data-original="#000000" class=""></path></g><g id="g1399" transform="translate(100.5518,307.8813)"><path d="M 0,0 2.08,1.368 C 12.229,8.042 20.114,17.639 24.692,28.89 l 45.586,112.045 c 13.992,34.391 47.862,55.539 85.17,55.539 37.309,0 71.178,-21.148 85.171,-55.539 L 286.205,28.89 C 290.782,17.639 298.667,8.042 308.816,1.368 l 40.561,-26.67 c 16.14,-10.593 26.872,-28.748 27.125,-49.436 0.411,-33.41 -27.487,-60.751 -60.901,-60.751 h -39.084 c -8.36,0 -16.511,-1.704 -24.007,-4.892" style="stroke-width:15;stroke-linecap:round;stroke-linejoin:round;stroke-miterlimit:10;stroke-dasharray:none;stroke-opacity:1" id="path1401" fill="none" stroke="#9e8a78" stroke-width="15" stroke-linecap="round" stroke-linejoin="round" stroke-miterlimit="10" stroke-dasharray="none" stroke-opacity="" data-original="#000000" class=""></path></g><g id="g1403" transform="translate(158.938,167.5)"><path d="m 0,0 c -7.496,3.188 -15.646,4.892 -24.006,4.892 h -39.085 c -33.413,0 -61.311,27.341 -60.901,60.752 0.254,20.687 10.986,38.843 27.125,49.435 l 11.472,7.544" style="stroke-width:15;stroke-linecap:round;stroke-linejoin:round;stroke-miterlimit:10;stroke-dasharray:none;stroke-opacity:1" id="path1405" fill="none" stroke="#9e8a78" stroke-width="15" stroke-linecap="round" stroke-linejoin="round" stroke-miterlimit="10" stroke-dasharray="none" stroke-opacity="" data-original="#000000" class=""></path></g><g id="g1407" transform="translate(97.5,250.3442)"><path d="m 0,0 c 0,24.853 -20.147,45 -45,45 -24.853,0 -45,-20.147 -45,-45 0,-20.805 14.119,-38.313 33.298,-43.463" style="stroke-width:15;stroke-linecap:round;stroke-linejoin:round;stroke-miterlimit:10;stroke-dasharray:none;stroke-opacity:1" id="path1409" fill="none" stroke="#9e8a78" stroke-width="15" stroke-linecap="round" stroke-linejoin="round" stroke-miterlimit="10" stroke-dasharray="none" stroke-opacity="" data-original="#000000" class=""></path></g></g></g></g></g></svg>