<svg id="Layer_1" enable-background="new 0 0 512 512" height="70" viewBox="0 0 512 512" width="70" xmlns="http://www.w3.org/2000/svg"><g><path d="m356.979 74.213c-4.485-17.357-4.831-35.788-.613-53.707-1.697-.726-3.405-1.429-5.12-2.119-9.686 15.643-22.933 28.425-38.355 37.521 15.508 4.416 30.276 10.603 44.088 18.305z"/><path d="m323.893 188.107 37.468-9.964 9.965-37.469-37.469 9.965z"/><path d="m272.995 190.483c6.152 1.597 11.96 4.051 17.306 7.207l16.8-63.168c1.383-5.198 5.442-9.259 10.641-10.641l43.273-11.509c-22.506-16.5-49.01-27.853-77.77-32.29l22.519 38.837c2.698 4.653 2.698 10.395 0 15.048z"/><path d="m154.922 74.269c13.842-7.729 28.645-13.936 44.193-18.363-15.432-9.096-28.699-21.872-38.385-37.509-1.734.698-3.46 1.409-5.175 2.144 4.215 17.928 3.862 36.366-.633 53.728z"/><path d="m150.639 178.143 37.468 9.964-9.964-37.468-37.469-9.965z"/><path d="m236.552 126.445 19.448 33.541 19.448-33.541-19.448-33.541z"/><circle cx="256" cy="256" r="37.68"/><path d="m154.409 437.444c4.516 17.377 4.863 35.835.646 53.796 1.88.81 3.773 1.597 5.676 2.363 9.685-15.637 22.952-28.413 38.384-37.509-15.74-4.481-30.717-10.787-44.706-18.65z"/><path d="m491.423 356.528c.772-1.801 1.521-3.613 2.252-5.434-15.651-9.703-28.436-22.972-37.524-38.418-4.448 15.689-10.707 30.622-18.516 44.575 17.375-4.536 35.835-4.916 53.788-.723z"/><path d="m407.403 104.21c18.432 18.431 44.445 26.86 69.859 23.161-22.425-38.427-54.566-70.516-93.037-92.873-3.64 25.363 4.806 51.339 23.178 69.712z"/><path d="m123.882 194.259-11.509-43.273c-16.5 22.506-27.853 49.009-32.29 77.769l38.836-22.519c4.654-2.698 10.395-2.698 15.049 0l56.515 32.769c1.597-6.152 4.051-11.96 7.207-17.305l-63.168-16.8c-5.198-1.383-9.257-5.443-10.64-10.641z"/><path d="m503.433 190.278c-20.435 15.366-32.781 39.662-32.781 65.593 0 25.988 12.359 50.28 32.838 65.641 5.542-20.919 8.51-42.874 8.51-65.512 0-22.714-2.989-44.74-8.567-65.722z"/><path d="m437.609 154.704c7.795 13.92 14.049 28.816 18.5 44.465 9.077-15.462 21.846-28.757 37.481-38.471-.742-1.843-1.503-3.677-2.287-5.498-8.547 2.029-17.21 3.03-25.815 3.03-9.436-.001-18.803-1.2-27.879-3.526z"/><path d="m357.492 437.499c-13.959 7.837-28.9 14.122-44.601 18.593 15.422 9.095 28.67 21.877 38.355 37.521 1.885-.758 3.759-1.537 5.621-2.339-4.221-17.952-3.88-36.403.625-53.775z"/><path d="m239.005 321.517c-6.152-1.597-11.96-4.051-17.306-7.207l-16.8 63.168c-1.383 5.198-5.442 9.259-10.641 10.641l-43.273 11.508c22.506 16.5 49.009 27.853 77.769 32.289l-22.519-38.837c-2.698-4.653-2.698-10.395 0-15.048z"/><path d="m283.245 431.916c28.76-4.436 55.263-15.789 77.769-32.289l-43.273-11.508c-5.198-1.382-9.258-5.443-10.641-10.641l-16.8-63.168c-5.346 3.157-11.153 5.61-17.306 7.207l32.769 56.515c2.698 4.653 2.698 10.395 0 15.048z"/><path d="m228.755 80.084c-28.76 4.436-55.263 15.789-77.77 32.29l43.273 11.509c5.198 1.382 9.258 5.443 10.641 10.641l16.8 63.168c5.346-3.157 11.153-5.61 17.306-7.207l-32.769-56.515c-2.698-4.653-2.698-10.395 0-15.048z"/><path d="m74.379 357.274c-7.771-13.881-14.009-28.731-18.455-44.332-9.115 15.393-21.904 28.612-37.55 38.269.714 1.776 1.444 3.543 2.196 5.299 17.961-4.181 36.43-3.789 53.809.764z"/><path d="m8.549 321.657c20.595-15.353 33.035-39.714 33.035-65.786 0-26.014-12.426-50.381-32.978-65.739-5.603 21.026-8.606 43.102-8.606 65.868 0 22.69 2.982 44.694 8.549 65.657z"/><path d="m104.511 104.21c18.362-18.362 26.808-44.317 23.186-69.665-38.44 22.357-70.556 54.433-92.966 92.839 25.386 3.671 51.367-4.762 69.78-23.174z"/><path d="m46.428 158.229c-8.582 0-17.215-.996-25.738-3.013-.764 1.777-1.506 3.565-2.23 5.361 15.632 9.669 28.406 22.916 37.51 38.327 4.448-15.562 10.679-30.378 18.437-44.227-9.109 2.344-18.51 3.552-27.979 3.552z"/><path d="m92.904 256 33.54 19.448 33.541-19.448-33.541-19.448z"/><path d="m407.908 407.607c-18.371 18.371-26.81 44.275-23.201 69.609 38.335-22.39 70.356-54.451 92.693-92.821-25.296-3.56-51.173 4.892-69.492 23.212z"/><path d="m255.989 470.534c-25.984 0-50.324 12.396-65.685 32.906 20.975 5.574 42.992 8.56 65.696 8.56 22.7 0 44.713-2.985 65.684-8.557-15.359-20.52-39.676-32.909-65.695-32.909z"/><path d="m104.007 407.607c-18.302-18.301-44.147-26.756-69.415-23.224 22.323 38.349 54.318 70.396 92.623 92.787 3.591-25.32-4.85-51.204-23.208-69.563z"/><path d="m255.989 41.466c26.019 0 50.336-12.388 65.694-32.909-20.97-5.572-42.983-8.557-65.683-8.557-22.704 0-44.722 2.986-65.696 8.56 15.361 20.509 39.701 32.906 65.685 32.906z"/><path d="m178.143 361.362 9.964-37.469-37.468 9.965-9.965 37.469z"/><path d="m275.448 385.556-19.448-33.541-19.448 33.541 19.448 33.541z"/><path d="m112.373 361.014 11.509-43.272c1.383-5.198 5.442-9.258 10.641-10.641l63.169-16.8c-3.157-5.346-5.611-11.153-7.208-17.306l-56.515 32.769c-2.326 1.349-4.926 2.024-7.524 2.024s-5.197-.674-7.524-2.024l-38.836-22.519c4.435 28.76 15.788 55.263 32.288 77.769z"/><path d="m388.118 317.742 11.509 43.272c16.5-22.506 27.854-49.009 32.29-77.769l-38.836 22.519c-2.327 1.349-4.926 2.024-7.524 2.024s-5.197-.675-7.524-2.024l-56.515-32.769c-1.597 6.152-4.051 11.96-7.208 17.306l63.168 16.8c5.198 1.382 9.257 5.442 10.64 10.641z"/><path d="m419.096 256-33.54-19.448-33.541 19.448 33.541 19.448z"/><path d="m361.361 333.858-37.468-9.965 9.964 37.469 37.469 9.965z"/><path d="m399.627 150.986-11.509 43.273c-1.383 5.198-5.442 9.258-10.641 10.641l-63.168 16.8c3.157 5.346 5.611 11.153 7.208 17.305l56.515-32.769c4.652-2.698 10.395-2.699 15.049 0l38.836 22.519c-4.437-28.76-15.79-55.263-32.29-77.769z"/></g></svg>