<svg id="Capa_1" enable-background="new 0 0 512.058 512.058" height="70" viewBox="0 0 512.058 512.058" width="70" xmlns="http://www.w3.org/2000/svg"><g><g id="Page-1"><g id="_x30_01---Ear-Piercings" transform="translate(-1 -1)"><path id="Shape" d="m54.447 484.309c12.817 19.081 35.84 28.749 68.429 28.749 65.041 0 81.792-39.586 96.572-74.505 4.326-11.016 9.46-21.698 15.36-31.957 10.837-17.613 30.438-35.465 53.129-56.132 40.252-36.608 89.327-81.459 107.153-145.015 2.352.267 4.716.404 7.083.41 30.984-.054 58.046-20.967 65.912-50.936s-5.438-61.477-32.402-76.74c3.862-29.147-11.399-57.487-37.859-70.306-26.46-12.819-58.158-7.23-78.638 13.866-31.443-14.39-65.739-21.462-100.31-20.685-73.557 0-130.526 36.147-156.331 99.174-20.267 49.647-10.735 80.964-2.321 108.604 6.588 21.709 11.836 38.835 2.321 62.063-30.524 74.624-16.119 118.665-10.24 131.661-6.596 17.681-16.4 54.178 2.142 81.749zm347.64-329.651c0-11.334-1.184-22.636-3.533-33.724 1.188-.263 2.401-.4 3.618-.41 9.426 0 17.067 7.641 17.067 17.067s-7.641 17.067-17.067 17.067zm51.285-17.067c-.028 28.265-22.935 51.172-51.2 51.2-1.024 0-2.091-.119-3.14-.188.102-.589.265-1.152.367-1.749.853-4.924 1.502-10.01 1.946-15.206.29 0 .538.077.853.077 18.851 0 34.133-15.282 34.133-34.133s-15.282-34.133-34.133-34.133-34.133 15.282-34.133 34.133c0 4.713-3.82 8.533-8.533 8.533s-8.533-3.821-8.533-8.533c0-28.277 22.923-51.2 51.2-51.2s51.2 22.923 51.2 51.2h-.027zm-68.42-65.98c-1.997.518-3.954 1.124-5.871 1.818-4.683-7.269-10.053-14.073-16.034-20.318 5.551-1.747 11.61-.527 16.054 3.231s6.652 9.531 5.851 15.295zm-16.913-53.487c13.966-.034 27.334 5.66 36.985 15.755 9.651 10.094 14.74 23.705 14.078 37.655-5.528-1.445-11.216-2.188-16.93-2.21 0-18.851-15.282-34.133-34.133-34.133s-34.133 15.282-34.133 34.133c0 4.713-3.82 8.533-8.533 8.533s-8.533-3.82-8.533-8.533c.027-28.265 22.934-51.171 51.199-51.2zm-299.034 379.606c-.23-.401-23.159-40.832 9.387-120.38 11.767-28.826 4.855-51.533-1.835-73.489-7.953-26.129-16.213-53.146 1.835-97.178 23.339-57.105 73.233-88.559 140.484-88.559 30.865-.694 61.516 5.275 89.865 17.502-5.875 10.259-8.967 21.876-8.969 33.698 0 14.138 11.462 25.6 25.6 25.6s25.6-11.462 25.6-25.6c.007-1.244.15-2.483.427-3.695 4.552 4.831 8.691 10.034 12.373 15.556-18.673 12.704-29.854 33.821-29.867 56.405.046 13.059 9.914 23.989 22.9 25.367 12.986 1.377 24.927-7.241 27.711-19.999.299 3.866.503 7.757.503 11.699.033 9.814-.783 19.613-2.441 29.286-11.605 67.866-61.807 113.579-106.086 153.907-23.654 21.538-44.083 40.107-56.183 59.81-6.378 10.983-11.92 22.43-16.58 34.244-14.549 34.389-27.119 64.085-80.853 64.085-26.556 0-44.809-7.134-54.263-21.197-10.658-15.863-10.291-41.813.981-69.444.996-2.492.778-5.307-.589-7.618z"/><path id="Shape_1_" d="m104.188 393.591c.917.002 1.827-.145 2.697-.435 1.212-.41 27.998-9.865 31.121-51.268 52.113-5.035 84.966-56.977 84.966-93.363 0-36.582-47.556-85.828-52.975-91.307-3.349-3.049-8.498-2.951-11.727.225s-3.416 8.321-.424 11.722c13.372 13.585 48.06 54.281 48.06 79.36 0 28.407-26.231 70.272-66.654 76.075 2.569-10.661 7.602-20.572 14.694-28.937 9.643-13.107 20.574-27.955 9.079-50.953-2.441-4.881-5.547-10.24-8.909-16.068-20.659-35.738-46.379-80.213 6.921-127.326 24.972-23.792 61.805-30.226 93.363-16.307 33.633 15.592 54.808 49.655 53.905 86.716 0 62.566-51.132 76.501-53.274 77.056-4.54 1.172-7.284 5.788-6.145 10.336s5.736 7.325 10.292 6.218c40.771-12.539 67.961-50.992 66.193-93.611.579-43.694-24.45-83.69-64-102.272-37.647-16.775-81.69-9.25-111.633 19.072-63.761 56.363-30.353 114.133-10.394 148.659 3.166 5.478 6.11 10.556 8.414 15.155 6.554 13.107 2.415 19.627-7.561 33.212-11.728 13.417-18.425 30.495-18.944 48.307 0 35.14-18.85 42.752-19.883 43.145-3.929 1.373-6.294 5.38-5.597 9.484s4.253 7.105 8.415 7.105z"/><path id="Shape_2_" d="m120.572 478.924c18.851 0 34.133-15.282 34.133-34.133s-15.282-34.133-34.133-34.133-34.133 15.282-34.133 34.133 15.282 34.133 34.133 34.133zm0-51.2c9.426 0 17.067 7.641 17.067 17.067s-7.641 17.067-17.067 17.067-17.067-7.641-17.067-17.067 7.642-17.067 17.067-17.067z"/></g></g></g></svg>