<?xml version="1.0" encoding="UTF-8" standalone="no"?>
<!-- Created with Inkscape (http://www.inkscape.org/) -->

<svg
   version="1.1"
   id="svg1023"
   xml:space="preserve"
   width="70"
   height="70"
   viewBox="0 0 682.66669 682.66669"
   xmlns="http://www.w3.org/2000/svg"
   xmlns:svg="http://www.w3.org/2000/svg"><defs
     id="defs1027"><clipPath
       clipPathUnits="userSpaceOnUse"
       id="clipPath1037"><path
         d="M 0,512 H 512 V 0 H 0 Z"
         id="path1035" /></clipPath></defs><g
     id="g1029"
     transform="matrix(1.3333333,0,0,-1.3333333,0,682.66667)"><g
       id="g1031"><g
         id="g1033"
         clip-path="url(#clipPath1037)"><g
           id="g1039"
           transform="translate(276,86.4224)"><path
             d="M 0,0 C 12.375,3.79 23.525,11.141 31.942,21.343 L 52.97,46.832 c 12.678,15.367 31.558,24.267 51.48,24.267 h 18.968"
             style="fill:none;stroke:#000000;stroke-width:15;stroke-linecap:round;stroke-linejoin:round;stroke-miterlimit:10;stroke-dasharray:none;stroke-opacity:1"
             id="path1041" /></g><g
           id="g1043"
           transform="translate(114.4326,157.521)"><path
             d="M 0,0 H 18.043 C 37.964,0 56.845,-8.9 69.522,-24.267 L 90.55,-49.755 c 9.332,-11.311 22.023,-19.118 36.017,-22.452"
             style="fill:none;stroke:#000000;stroke-width:15;stroke-linecap:round;stroke-linejoin:round;stroke-miterlimit:10;stroke-dasharray:none;stroke-opacity:1"
             id="path1045" /></g><g
           id="g1047"
           transform="translate(144.9326,102.1641)"><path
             d="M 0,0 C 18.402,1.167 35.084,8.663 47.896,20.335"
             style="fill:none;stroke:#000000;stroke-width:15;stroke-linecap:round;stroke-linejoin:round;stroke-miterlimit:10;stroke-dasharray:none;stroke-opacity:1"
             id="path1049" /></g><g
           id="g1051"
           transform="translate(170.9082,414.6963)"><path
             d="m 0,0 -8.573,-51.298 c -7.944,-47.536 -32.671,-91.036 -70.688,-120.66 -19.512,-15.205 -31.823,-39.407 -30.305,-66.345 1.64,-31.105 21.584,-57.416 49.031,-68.613"
             style="fill:none;stroke:#000000;stroke-width:15;stroke-linecap:round;stroke-linejoin:round;stroke-miterlimit:10;stroke-dasharray:none;stroke-opacity:1"
             id="path1053" /></g><g
           id="g1055"
           transform="translate(185.915,504.5)"><path
             d="M 0,0 -9.128,-54.626"
             style="fill:none;stroke:#000000;stroke-width:15;stroke-linecap:round;stroke-linejoin:round;stroke-miterlimit:10;stroke-dasharray:none;stroke-opacity:1"
             id="path1057" /></g><g
           id="g1059"
           transform="translate(377.0166,290.9136)"><path
             d="m 0,0 c -13.722,21.911 -23.028,46.61 -27.356,72.506 l -23.576,141.08"
             style="fill:none;stroke:#000000;stroke-width:15;stroke-linecap:round;stroke-linejoin:round;stroke-miterlimit:10;stroke-dasharray:none;stroke-opacity:1"
             id="path1061" /></g><g
           id="g1063"
           transform="translate(319.7017,122.02)"><path
             d="m 0,0 c 14.268,-12.765 33.224,-20.398 53.966,-20.001 40.974,0.786 74.824,33.434 76.99,74.358 1.523,26.942 -10.787,51.149 -30.301,66.357 -7.953,6.199 -15.325,13.005 -22.083,20.328"
             style="fill:none;stroke:#000000;stroke-width:15;stroke-linecap:round;stroke-linejoin:round;stroke-miterlimit:10;stroke-dasharray:none;stroke-opacity:1"
             id="path1065" /></g><g
           id="g1067"
           transform="translate(294.3716,52.0225)"><path
             d="m 0,0 c 0.249,0.422 0.522,0.834 0.821,1.236 6.231,8.36 9.524,18.31 9.524,28.776 0,6.557 -1.316,12.813 -3.698,18.517"
             style="fill:none;stroke:#000000;stroke-width:15;stroke-linecap:round;stroke-linejoin:round;stroke-miterlimit:10;stroke-dasharray:none;stroke-opacity:1"
             id="path1069" /></g><g
           id="g1071"
           transform="translate(320.1646,122.5806)"><path
             d="m 0,0 c 7.49,-11.72 11.835,-25.635 11.835,-40.546 0,-14.84 -4.235,-29.026 -12.29,-41.307"
             style="fill:none;stroke:#000000;stroke-width:15;stroke-linecap:round;stroke-linejoin:round;stroke-miterlimit:10;stroke-dasharray:none;stroke-opacity:1"
             id="path1073" /></g><g
           id="g1075"
           transform="translate(195.9302,36.9546)"><path
             d="m 0,0 c -9.767,13.106 -14.93,28.694 -14.93,45.08 0,14.885 4.33,28.777 11.796,40.484"
             style="fill:none;stroke:#000000;stroke-width:15;stroke-linecap:round;stroke-linejoin:round;stroke-miterlimit:10;stroke-dasharray:none;stroke-opacity:1"
             id="path1077" /></g><g
           id="g1079"
           transform="translate(211.96,100.502)"><path
             d="m 0,0 c -2.368,-5.691 -3.676,-11.929 -3.676,-18.468 0,-10.465 3.293,-20.416 9.523,-28.776"
             style="fill:none;stroke:#000000;stroke-width:15;stroke-linecap:round;stroke-linejoin:round;stroke-miterlimit:10;stroke-dasharray:none;stroke-opacity:1"
             id="path1081" /></g><g
           id="g1083"
           transform="translate(321.5,30)"><path
             d="M 0,0 C 0,-12.426 -10.074,-22.5 -22.5,-22.5 -34.926,-22.5 -45,-12.426 -45,0 -45,12.426 -34.926,22.5 -22.5,22.5 -10.074,22.5 0,12.426 0,0 Z"
             style="fill:none;stroke:#000000;stroke-width:15;stroke-linecap:round;stroke-linejoin:round;stroke-miterlimit:10;stroke-dasharray:none;stroke-opacity:1"
             id="path1085" /></g><g
           id="g1087"
           transform="translate(240.5,30)"><path
             d="M 0,0 C 0,-12.426 -10.074,-22.5 -22.5,-22.5 -34.926,-22.5 -45,-12.426 -45,0 -45,12.426 -34.926,22.5 -22.5,22.5 -10.074,22.5 0,12.426 0,0 Z"
             style="fill:none;stroke:#000000;stroke-width:15;stroke-linecap:round;stroke-linejoin:round;stroke-miterlimit:10;stroke-dasharray:none;stroke-opacity:1"
             id="path1089" /></g></g></g></g></svg>
