<svg height="70" viewBox="0 0 60 59" width="70" xmlns="http://www.w3.org/2000/svg"><g id="Page-1" fill="none" fill-rule="evenodd"><g id="020---Skull" fill="rgb(0,0,0)" fill-rule="nonzero" transform="translate(0 -1)"><path id="Shape" d="m19.643 38.905c.32 0 .663.012 1.02.024.415.014.85.029 1.295.029 1.83851.1590899 3.6648777-.419002 5.077-1.607 1.275-1.232 1.894-3.12 1.894-5.772 0-5.218-6.273-5.218-9.286-5.218-4 0-5.125 1.861-6.15 6.034-.5121212 1.5222141-.2708788 3.1971786.65 4.513 1.039 1.325 2.889 1.997 5.5 1.997zm-4.208-6.033c1.022-4.161 1.866-4.511 4.208-4.511 4.614 0 7.286.526 7.286 3.218 0 2.052-.432 3.51-1.283 4.334-1.184 1.143-3.161 1.078-4.916 1.017-.38-.013-.746-.025-1.087-.025-1.351 0-3.129-.213-3.927-1.231-.5192008-.8412175-.6228176-1.8744349-.281-2.802z"/><path id="Shape" d="m26 44.744c-.0297363.6707479.255433 1.3169097.771 1.747.9747792.6439805 2.2347492.6634908 3.229.05.5097163.2993596 1.0898779.4577737 1.681.459.5594482.0152199 1.1067529-.1647401 1.548-.509.515567-.4300903.8007363-1.0762521.771-1.747 0-3.811-1.01-5.744-3-5.744-.3488911-.0049137-.6932059.0797878-1 .246-.3067941-.1662122-.6511089-.2509137-1-.246-1.99 0-3 1.933-3 5.744zm3-3.744c0 .5522847.4477153 1 1 1s1-.4477153 1-1c.371 0 1 .789 1 3.744 0 .191-.037.2-.081.221-.3223543.0688923-.6588678.0093388-.938-.166-.0926366-.468417-.5035107-.8059923-.981-.8059923s-.8883634.3375753-.981.8059923c-.2790934.1754394-.6156476.2350001-.938.166-.044-.016-.081-.03-.081-.221 0-2.955.629-3.744 1-3.744z"/><path id="Shape" d="m11.88 60h25.37.55.708c3.415 0 6.991-.181 8.406-1.587.4173803-.3985031.6542742-.9499315.656-1.527 0-.558-.013-1.192-4.886-4.043.4063382-.5036895.6504078-1.1187447.7-1.764.42-6.213 2.079-7.065 5.718-8.934 2.284-1.183 3.3-3.344 2.941-6.253 0-.021 0-.042-.007-.064-.0528783-.3951509-.1259742-.7873319-.219-1.175.482-.365.96-.744 1.422-1.157 4.424-3.928 6.761-9.902 6.761-17.274 0-11.168-10.487-15.222-17.537-15.222h-.346c-2.5260823-.1842095-5.0623168.17484602-7.438 1.053-.3.1-.592.2-.879.306-1.241485-.18169335-2.4953913-.26495274-3.75-.249-12.36 0-24.83 6.716-24.83 21.72 0 3.551 1.453 8.65 2.737 12.06v.01c-.028.228-.033.443-.044.662-4.75731742 1.759249-7.91511802 6.2958188-7.913 11.368-.04438348 6.6103336 5.26979427 12.0095024 11.88 12.07zm23.441-56.053c2.795-.947 3.618-.947 6.795-.947h.347c5.374 0 15.537 2.764 15.537 13.222 0 6.784-2.1 12.242-6.089 15.785-4.099 3.663-8.969 4.993-11.241 4.993h-.139c-.355 0-.737.013-1.134.026-1.838.061-3.912.132-5.158-1.073-.9-.868-1.352-2.4-1.352-4.553 0-3.137 3.776-3.4 7.644-3.4h.211.065c1.074-.006 5.208-.115 6.964-1.286 2.473-1.65 3.676-5.154 3.676-10.712 0-5.526-5.568-7-8.858-7h-7.257c-4.093 0-4.093-2.126-4.1-3.111.094-.241.747-.81 4.089-1.944zm-28.101 19.883c0-14.556 12.3-19.72 22.83-19.72h.125c-.4494283.34294534-.7601004.83647007-.875 1.39-1.5661618.31019097-3.0089578 1.06736367-4.154 2.18-.2708275.27669655-.5105858.58217883-.715.911-1.6691877.31942764-3.2155729 1.09989493-4.464 2.253-.3771245.3958211-.3664667 1.0211343.0239276 1.4038738.3903943.3827396 1.015796.3810141 1.4040724-.0038738.6529661-.5928904 1.4105166-1.0591536 2.234-1.375-.1307257 1.0371763-.0476868 2.0901361.244 3.094.1035267.3488865.3884163.6139879.7438407.692174s.7252647-.0428879.9656453-.3161218c.2403806-.2732338.3133471-.655486.190514-.9980522-.007-.026-.827-2.605.8-4.26.7998863-.77236515 1.7941189-1.31354284 2.877-1.566.762 2.828 3.513 3.485 5.882 3.485h7.257c.28 0 6.858.057 6.858 5 0 4.771-.937 7.815-2.786 9.048-1.14.761-4.661.957-5.842.955-.025 0-.05 0-.077 0h-.211c-3.37 0-9.644 0-9.644 5.4 0 2.754.641 4.714 1.962 5.991 1.4661752 1.2307301 3.3608893 1.8292123 5.268 1.664.464 0 .916-.015 1.348-.03.373-.013.731-.025 1.066-.025h.259.064c3.2667463-.2554317 6.4183563-1.3208615 9.17-3.1.007.045.018.094.024.139 0 .024 0 .049.006.073.267 2.082-.345 3.478-1.868 4.266-4.14 2.127-6.322 3.563-6.8 10.57-.0160852.564877-.4645372 1.0220453-1.029 1.049h-1.357v-2c0-.5522847-.4477153-1-1-1s-1 .4477153-1 1v2h-2v-2c0-.5522847-.4477153-1-1-1s-1 .4477153-1 1v2h-2v-2c0-.5522847-.4477153-1-1-1s-1 .4477153-1 1v2h-2v-2c0-.5522847-.4477153-1-1-1s-1 .4477153-1 1v2h-2v-2c0-.5522847-.4477153-1-1-1s-1 .4477153-1 1v2h-1.357c-.5674044-.0240807-1.0188134-.4842379-1.032-1.052-.475-7.014-2.657-8.45-6.794-10.575-1.526-.79-2.138-2.186-1.871-4.268 0-.025.005-.05.007-.075.2159917-1.3704562.6437685-2.6989932 1.268-3.938 1.124-2.315 1.136-6.656 1.136-6.84 0-.5522847-.4477153-1-1-1s-1 .4477153-1 1c0 1.125-.169 4.391-.933 5.964-.172.349-.356.772-.537 1.223-.94055667-2.7815723-1.50128729-5.6773911-1.667-8.609zm9.18 25.17h-4.94c-.8284271 0-1.5-.6715729-1.5-1.5s.6715729-1.5 1.5-1.5h4.111c.4220967.9538852.7014263 1.9647282.829 3zm-8.314-10.361c.36431268 1.5329659 1.39714804 2.8216244 2.814 3.511 1.0943461.5081502 2.1332056 1.1281147 3.1 1.85h-2.54c-1.93299662 0-3.5 1.5670034-3.5 3.5s1.56700338 3.5 3.5 3.5h5.149c0 .031 0 .058.007.089.0979653 1.6100919 1.4143105 2.8759924 3.027 2.911h20.714c.093 0 .182-.019.273-.027 1.682077.9013267 3.2933655 1.928941 4.82 3.074-1.155.994-6.023.96-7.638.955l-25.932-.002c-5.5063419-.0588051-9.92607873-4.5635369-9.88-10.07-.0036308-4.0329481 2.38741401-7.6831613 6.086-9.291z"/><circle id="Oval" cx="37" cy="6" r="1"/></g></g></svg>