<svg height="70" viewBox="0 0 56 55" width="70" xmlns="http://www.w3.org/2000/svg"><g id="Page-1" fill="none" fill-rule="evenodd"><g id="020---Skull" fill="rgb(0,0,0)" fill-rule="nonzero"><path id="Shape" d="m17.643 25.361c-2.342 0-3.186.35-4.208 4.511-.3411644.9269778-.2375633 1.959302.281 2.8.8 1.018 2.576 1.231 3.927 1.231.341 0 .707.012 1.087.025 1.755.061 3.732.126 4.916-1.017.851-.824 1.283-2.282 1.283-4.334 0-2.69-2.672-3.216-7.286-3.216z"/><path id="Shape" d="m29 38c0 .5522847-.4477153 1-1 1s-1-.4477153-1-1c-.371 0-1 .79-1 3.745 0 .191.037.2.081.221.3223524.0690001.6589066.0094394.938-.166.0926366-.468417.5035107-.8059923.981-.8059923s.8883634.3375753.981.8059923c.2791322.1753388.6156457.2348923.938.166.044-.016.081-.03.081-.221 0-2.956-.629-3.745-1-3.745z"/><path id="Shape" d="m9.88 55h25.932 3.2c1.0998803-.0065994 1.9880198-.9000999 1.988-2 0-1.1045695-.8954305-2-2-2h-21.357c-1.6473393-.0352981-2.979226-1.3531279-3.032-3h-5.151c-1.93299662 0-3.5-1.5670034-3.5-3.5s1.56700338-3.5 3.5-3.5h2.54c-.9667944-.7218853-2.00565392-1.3418498-3.1-1.85-1.41685196-.6893756-2.44968732-1.9780341-2.814-3.511-3.69858599 1.6078387-6.0896308 5.2580519-6.086 9.291-.04607873 5.5064631 4.3736581 10.0111949 9.88 10.07z"/><path id="Shape" d="m40.463 0h-.347c-3.177 0-4 0-6.8.947-3.342 1.134-3.995 1.7-4.087 1.942 0 .985 0 3.111 4.1 3.111h7.257c3.29 0 8.858 1.474 8.858 7 0 5.558-1.2 9.062-3.676 10.712-1.756 1.171-5.89 1.28-6.964 1.286-.022 0-.043 0-.065 0h-.211c-3.868 0-7.644.263-7.644 3.4 0 2.153.455 3.685 1.352 4.553 1.246 1.2 3.32 1.134 5.158 1.073.4-.013.779-.026 1.134-.026h.139c2.272 0 7.142-1.33 11.241-4.993 3.992-3.541 6.092-8.999 6.092-15.783 0-10.458-10.163-13.222-15.537-13.222zm-5.463 4c-.5522847 0-1-.44771525-1-1s.4477153-1 1-1 1 .44771525 1 1-.4477153 1-1 1z"/><path id="Shape" d="m38.357 49c.5697843-.025218 1.0219505-.488765 1.033-1.059.474-7.007 2.656-8.443 6.8-10.57 1.523-.788 2.135-2.184 1.868-4.266 0-.024-.005-.049-.006-.073-.006-.045-.017-.094-.024-.139-2.7516437 1.7791385-5.9032537 2.8445683-9.17 3.1-.022 0-.042 0-.064 0h-.259c-.335 0-.693.012-1.066.025-.432.015-.884.03-1.348.03-1.9071107.1652123-3.8018248-.4332699-5.268-1.664-1.321-1.277-1.962-3.237-1.962-5.991 0-5.4 6.274-5.4 9.644-5.4h.211.077c1.181 0 4.7-.194 5.842-.955 1.849-1.233 2.786-4.277 2.786-9.048 0-4.943-6.578-5-6.858-5h-7.261c-2.369 0-5.12-.657-5.882-3.485-1.0837011.25240595-2.0786748.7939564-2.879 1.567-1.627 1.655-.807 4.234-.8 4.26.1228331.3425662.0498666.7248184-.190514.9980522-.2403806.2732339-.6102209.3943079-.9656453.3161218s-.640314-.3432875-.7438407-.692174c-.2916868-1.00386391-.3747257-2.05682366-.244-3.094-.8234834.3158464-1.5810339.78210958-2.234 1.375-.3882764.38488788-1.0136781.38661336-1.4040724.00387384s-.4010521-1.00805274-.0239276-1.40387384c1.2484271-1.15310507 2.7948123-1.93357236 4.464-2.253.2044142-.32882117.4441725-.63430345.715-.911 1.1467072-1.10969428 2.5901358-1.86370859 4.156-2.171.1158608-.55309505.4272275-1.04588519.877-1.388h-.125c-10.533-.002-22.832 5.162-22.832 19.718.16580205 2.9312716.72653153 5.8267481 1.667 8.608.181-.451.365-.874.537-1.223.764-1.573.932-4.839.933-5.964 0-.5522847.44771525-1 1-1s1 .4477153 1 1c0 .184-.012 4.525-1.136 6.84-.62432971 1.2393191-1.05210886 2.5682008-1.268 3.939 0 .025 0 .05-.007.075-.267 2.082.345 3.478 1.871 4.268 4.137 2.125 6.319 3.561 6.794 10.575.0131866.5677621.4645956 1.0279193 1.032 1.052h1.357v-2c0-.5522847.4477153-1 1-1s1 .4477153 1 1v2h2v-2c0-.5522847.4477153-1 1-1s1 .4477153 1 1v2h2v-2c0-.5522847.4477153-1 1-1s1 .4477153 1 1v2h2v-2c0-.5522847.4477153-1 1-1s1 .4477153 1 1v2h2v-2c0-.5522847.4477153-1 1-1s1 .4477153 1 1v2zm-18.4-13.042c-.445 0-.88-.015-1.295-.029-.357-.012-.7-.024-1.02-.024-2.611 0-4.461-.672-5.5-2-.9208788-1.3158214-1.1621212-2.9907859-.65-4.513 1.025-4.173 2.155-6.034 6.15-6.034 3.013 0 9.286 0 9.286 5.218 0 2.652-.619 4.54-1.894 5.772-1.4114075 1.1888197-3.2374129 1.76799-5.076 1.61zm11.271 7.533c-.4409799.3440389-.9878923.5239861-1.547.509-.5911221-.0012263-1.1712837-.1596404-1.681-.459-.9942508.6134908-2.2542208.5939805-3.229-.05-.515567-.4300903-.8007363-1.0762521-.771-1.747 0-3.811 1.01-5.744 3-5.744.3488911-.0049137.6932059.0797878 1 .246.3067941-.1662122.6511089-.2509137 1-.246 1.99 0 3 1.933 3 5.744.0297363.6707479-.255433 1.3169097-.771 1.747z"/></g></g></svg>