<?xml version="1.0" encoding="iso-8859-1"?>
<!-- Generator: Adobe Illustrator 19.0.0, SVG Export Plug-In . SVG Version: 6.00 Build 0)  -->
<svg version="1.1" id="Layer_1" xmlns="http://www.w3.org/2000/svg" xmlns:xlink="http://www.w3.org/1999/xlink" x="0px" y="0px"
	 viewBox="0 0 70 70" style="enable-background:new 0 0 70 70;" xml:space="preserve">
<g>
	<g>
		<path d="M387.816,135.45c-0.01-0.018-0.021-0.034-0.031-0.051c-1.962-3.616-6.474-4.982-10.114-3.044
			c-4.564,2.43-9.415,4.931-14.417,7.433c-3.692,1.847-5.193,6.328-3.368,10.025c0.005,0.012,0.009,0.025,0.016,0.038
			c1.314,2.627,3.962,4.146,6.713,4.146c1.128,0,2.272-0.255,3.35-0.794c5.115-2.559,10.079-5.119,14.755-7.608
			C388.376,143.65,389.762,139.108,387.816,135.45z"/>
	</g>
</g>
<g>
	<g>
		<path d="M510.824,331.908c-2.46-5.256-8.146-8.083-13.817-6.877c-29.194,6.202-54.653,8.175-73.506,8.516
			c22.892-12.54,41.222-29.855,53.983-44.293c4.057-4.591,4.221-11.136,0.399-15.916c-3.827-4.786-10.254-6.069-15.637-3.117
			c-19.784,10.857-47.373,21.701-80.999,31.907c15.602-16.599,19.057-33.935,19.528-44.195c4.547-3.997,8.633-8.191,12.227-12.583
			c16.057-19.624,18.168-37.908,18.188-46.051c7.913-7.076,14.1-14.406,18.544-21.985c8.128-13.862,8.883-25.985,7.383-34.966
			c0.919-0.775,1.822-1.549,2.694-2.321c10.638-9.428,11.622-25.754,2.192-36.395c-4.568-5.152-10.87-8.218-17.742-8.632
			c-6.888-0.414-13.499,1.875-18.649,6.442c-7.169,6.355-17.524,13.532-30.778,21.329c-3.548,2.088-4.743,6.639-2.696,10.2
			c0.013,0.022,0.022,0.045,0.035,0.068c2.101,3.571,6.699,4.761,10.267,2.661c14.086-8.288,25.231-16.037,33.124-23.034
			c2.155-1.91,4.924-2.867,7.796-2.692c2.874,0.173,5.51,1.456,7.42,3.609c3.942,4.449,3.531,11.275-0.917,15.218
			c-34.345,30.442-110.445,63.889-168.239,86.587c-27.637,10.854-49.44,33.329-59.823,61.662
			c-21.043,57.41-55.464,102.703-56.916,104.6c-0.987,1.289-4.44,3.868-8.316,4.285c-0.877,0.095-1.7,0.068-2.488-0.072
			c-0.002,0-0.004-0.001-0.006-0.001v0.001c-1.435-0.257-2.747-0.907-4.02-1.984c-4.852-4.105-5.835-10.698-2.278-15.346
			c0.131-0.171,5.253-6.939,12.628-18.297l0.127,0.007c0.004-0.073,0.006-0.145,0.01-0.218
			c11.681-18.011,28.935-47.426,41.017-80.393c12.505-34.12,38.815-61.205,72.186-74.311c29.012-11.394,55.308-22.62,78.159-33.365
			c3.749-1.763,5.358-6.23,3.596-9.979c-0.005-0.01-0.01-0.019-0.015-0.028c-1.771-3.729-6.227-5.324-9.963-3.567
			c-13.966,6.568-29.253,13.322-45.682,20.19c6.623-26.192-0.037-44.435-3.811-51.957c3.459-8.774,5.611-17.115,6.45-25.016
			c1.901-17.909-3.452-30.044-8.869-37.483c0.474-1.106,0.945-2.21,1.377-3.292c5.269-13.202-1.185-28.23-14.387-33.501
			c-6.398-2.552-13.404-2.461-19.73,0.256c-6.327,2.717-11.218,7.736-13.769,14.131c-11.724,29.374-48.905,79.831-104.695,142.077
			c-26.791,29.89-39.493,70.181-34.851,110.54c0.784,6.813,1.351,13.895,1.704,21.187c-3.456-3.195-6.891-5.764-9.877-7.576
			c-12.828-7.786-28.406-9.921-42.734-5.857c-14.231,4.035-25.794,13.483-32.583,26.618c-0.815,1.395-4.011,7.21-6.29,16.114
			l-10.475,6.048C2.728,343.497,0,348.222,0,353.498s2.728,10.001,7.297,12.639l10.104,5.833
			c6.308,32.222,26.675,83.667,91.676,111.177c21.005,8.89,43.208,13.378,65.608,13.378c12.757,0,25.582-1.456,38.28-4.384
			c35.038-8.078,65.943-26.629,89.378-53.646c9.202-10.609,15.95-21.264,20.061-31.671c36.499-3.839,70.143-10.426,100.527-19.75
			c47.309-14.518,73.148-31.438,84.341-40.231C511.811,343.277,513.271,337.135,510.824,331.908z M287.109,229.349
			c50.717-19.918,115.414-48.091,155.399-75.894c-0.535,4.759-2.169,10.232-5.71,16.269c-2.926,4.99-7.167,10.426-13.212,16.17
			c-19.674,18.699-58.519,40.685-133.731,61.311c-12.352,3.388-25.681,6.738-40.072,10.032
			C259.506,244.85,272.336,235.152,287.109,229.349z M235.887,282.211c0.897-2.447,1.897-4.84,2.986-7.18
			c8.026-1.733,15.835-3.503,23.429-5.308c68.358-16.256,119.117-35.432,151.82-57.317c-1.951,6.626-5.672,14.822-12.727,23.444
			c-17.809,21.766-58.508,48.411-151.355,58.415c-0.001,0-0.002,0-0.004,0c-6.277,0.676-12.792,1.276-19.554,1.794
			C232.355,291.531,234.164,286.91,235.887,282.211z M223.671,311.58c6.78-0.443,13.409-0.972,19.887-1.586
			c42.428-4.021,78.338-11.693,106.994-22.888c12.151-4.746,23.023-10.129,32.573-16.113c-3.351,9.773-10.617,21.53-25.979,31.996
			c-26.109,17.786-67.597,27.288-123.594,28.353c-0.006,0-0.012,0-0.017,0c-6.366,0.121-12.923,0.13-19.663,0.033
			C217.164,325.115,220.463,318.494,223.671,311.58z M205.729,346.213c5.714,0.149,11.31,0.226,16.789,0.226
			c1.052,0,2.088-0.01,3.131-0.016c44.613-0.236,81.177-5.504,109.3-15.738c-2.032,3.938-5.078,8.038-9.6,11.96
			c-13.812,11.981-44.109,24.711-110.497,22.564c-6.307-0.204-12.938-0.541-19.913-1.027
			C198.303,358.841,201.952,352.817,205.729,346.213z M176.794,390.773c0.438-0.572,3.75-4.929,8.761-12.269
			c6.908,0.573,13.617,1.024,20.114,1.344c8.212,0.404,16.102,0.61,23.656,0.61c25.425,0,47.092-2.294,64.928-6.857
			c-2.667,4.057-6.533,8.16-12.166,11.746c-7.082,4.51-17.73,8.668-33.655,10.453c-0.396,0.003-0.786,0.009-1.183,0.011l0.001,0.117
			c-13.21,1.361-29.966,1.106-51.204-1.866c-6.059-0.848-12.486-1.918-19.297-3.234C176.763,390.809,176.78,390.791,176.794,390.773
			z M184.794,407.513c16.984,2.82,32.416,4.237,46.248,4.237c1.916,0.001,3.792-0.036,5.649-0.09
			c-3.459,6.388-8.662,12.294-16.393,14c-7.84,1.731-20.538-0.263-40.123-14.706c-2.282-1.683-4.652-3.525-7.125-5.561
			C177.047,406.174,180.956,406.876,184.794,407.513z M161.242,320.055c-0.029-3.322-0.1-6.615-0.204-9.883
			c2.798-1.643,5.56-3.292,8.287-4.944C166.616,310.447,163.897,315.405,161.242,320.055z M187.475,264.467
			c-1.926,5.255-3.991,10.415-6.146,15.45c-1.481,0.975-2.979,1.952-4.494,2.929c-0.001,0.001-0.002,0.001-0.003,0.002
			c-5.367,3.463-10.939,6.934-16.681,10.393c-0.371-5.009-0.818-9.957-1.375-14.808c-0.298-2.589-0.479-5.177-0.556-7.757
			c6.39-5.152,12.576-10.241,18.548-15.264c10.292-8.658,19.957-17.121,29.001-25.39C198.21,240.5,192.02,252.065,187.475,264.467z
			 M281.706,176.006c-4.414,1.779-8.891,3.562-13.444,5.35c-9.956,3.91-19.343,8.94-28.033,14.921
			c20.519-21.745,36.037-41.899,46.493-60.393C288.431,145.219,288.432,158.816,281.706,176.006z M287.561,90.015
			c-0.554,5.221-1.902,11.246-4.393,18.137c-9.15,25.317-33.813,62.385-91.871,114.736c-9.516,8.581-19.931,17.572-31.321,26.99
			c3.121-15.434,10.229-29.861,20.821-41.679c36.372-40.582,81.51-94.809,104.746-137.613
			C287.36,75.51,288.422,81.899,287.561,90.015z M153.572,183.798C210.509,120.274,248.67,68.236,261.03,37.268
			c1.066-2.673,3.111-4.771,5.756-5.907c2.646-1.137,5.577-1.175,8.252-0.107c5.52,2.204,8.218,8.488,6.015,14.008
			C264.04,87.887,211.07,151.952,169.628,198.188c-19.816,22.109-29.204,51.984-25.756,81.962
			c2.338,20.323,2.952,42.212,1.875,65.094c-0.63,0.952-1.236,1.858-1.82,2.723c-7.849-5.958-14.293-13.371-19.25-22.086
			c0.08-15.141-0.662-29.695-2.222-43.268C118.303,246.511,129.645,210.495,153.572,183.798z M60.736,306.51
			c5.158-1.463,10.545-1.809,15.8-1.089c5.272,0.722,10.413,2.518,15.059,5.338c5.47,3.32,13.623,10.544,18.6,19.979
			c6.214,11.782,14.633,21.683,25.069,29.502c-7.57,10.754-5.559,25.751,4.747,34.773c3.171,3.283,6.28,6.38,9.334,9.31
			c-17.229-5.194-34.644-16.581-44.785-40.125c-6.286-14.594-17.272-26.095-25.458-31.99c-3.025-2.179-6.193-4.06-9.466-5.646
			c-9.108-4.415-19.039-6.49-29.039-6.14C45.544,313.697,52.517,308.841,60.736,306.51z M291.011,428.668
			c-19.396,22.364-44.121,38.015-71.008,46.237c-33.706,10.308-70.809,8.935-105.081-5.57
			c-62.942-26.64-79.549-77.998-83.845-106.24c-1.645-10.812-0.102-20.11,1.822-26.665c12.55-2.688,25.531-0.141,36.326,7.197
			c0.37,0.251,0.745,0.49,1.11,0.753c6.258,4.506,15.367,13.955,20.447,25.752c17.732,41.17,53.38,51.524,80.162,52.961l0.014-0.266
			c16.572,12.3,31.207,18.384,44.164,18.384c2.885,0,5.687-0.301,8.407-0.902c13.457-2.971,23.793-13.188,30.019-29.574
			c17.739-0.22,34.96-0.986,51.613-2.312C301.681,415.037,296.951,421.819,291.011,428.668z M321.143,391.867
			c-8.187,0.87-16.692,1.615-25.526,2.216c10.712-8.6,15.572-18.719,17.737-26.857c8.571-3.661,15.858-8.074,21.823-13.249
			c10.737-9.313,15.477-19.56,17.404-28.18c14.845-3.894,28.729-7.882,41.631-11.953c24.014-7.578,44.632-15.444,61.658-23.543
			c-17.083,16.901-40.905,34.879-69.667,42.043c-3.485,0.868-5.866,4.086-5.677,7.672c0.188,3.587,2.895,6.537,6.452,7.033
			c1.811,0.253,42.416,5.695,100.917-4.937C466.258,355.88,414.407,381.961,321.143,391.867z"/>
	</g>
</g>
<g>
	<g>
		<path d="M55.301,340.262c-1.39-1.39-3.321-2.19-5.3-2.19c-1.97,0-3.91,0.8-5.3,2.19c-1.4,1.4-2.2,3.33-2.2,5.31
			c0,1.97,0.8,3.9,2.2,5.3c1.39,1.4,3.33,2.2,5.3,2.2c1.979,0,3.91-0.799,5.3-2.2c1.4-1.4,2.2-3.33,2.2-5.3
			C57.501,343.592,56.701,341.662,55.301,340.262z"/>
	</g>
</g>
<g>
</g>
<g>
</g>
<g>
</g>
<g>
</g>
<g>
</g>
<g>
</g>
<g>
</g>
<g>
</g>
<g>
</g>
<g>
</g>
<g>
</g>
<g>
</g>
<g>
</g>
<g>
</g>
<g>
</g>
</svg>
