<svg id="Capa_1" enable-background="new 0 0 511.95 511.95" height="70" viewBox="0 0 511.95 511.95" width="70" xmlns="http://www.w3.org/2000/svg"><path d="m490.019 175.748-95.459-95.46 21.213-21.213-21.213-21.213-21.213 21.213-42.427-42.426-21.213 21.213 42.426 42.426-21.214 21.214-21.214-21.214-84.853 84.853 21.213 21.213-21.213 21.213-53.033-53.033-21.213 21.213 31.82 31.82-106.065 106.067 21.213 21.213-34.324 34.324-21.185 63.555-42.065 41.123 20.971 21.452 42.194-41.249 63.725-21.242 34.324-34.324 21.213 21.213 106.066-106.066 31.82 31.82c14.166 14.166 33 21.967 53.033 21.967s38.867-7.801 53.032-21.967l63.641-63.64c29.242-29.242 29.242-76.822 0-106.065zm-180.313-53.033 21.214 21.213-42.427 42.427-21.214-21.213zm-199.021 283.874-31.82 10.607 10.606-31.82 29.316-29.316c1.54 1.54-6.377-6.377 21.213 21.213zm71.742-29.315-63.64-63.64 84.853-84.853 63.64 63.64zm63.64-148.493 21.213-21.213 21.213 21.213 84.853-84.853-21.213-21.213 21.213-21.214 63.64 63.64-21.214 21.214-21.214-21.214-84.853 84.853 21.213 21.213-21.213 21.213zm106.065 21.213 42.427-42.426 21.214 21.213-42.427 42.426zm116.674 10.607-63.641 63.64c-8.499 8.499-19.8 13.18-31.819 13.18-12.021 0-23.32-4.681-31.82-13.18l-10.606-10.606 21.213-21.213 21.213 21.213 84.853-84.853-21.213-21.213 21.214-21.214 10.607 10.607c17.544 17.545 17.544 46.093-.001 63.639z"/></svg>