<svg id="Layer_1" height="70" viewBox="0 0 128 128" width="70" xmlns="http://www.w3.org/2000/svg" data-name="Layer 1"><path d="m96.19 117.81a1 1 0 0 0 -1 .71l-2.27 7.7a1 1 0 0 0 .67 1.24 1 1 0 0 0 .29 0 1 1 0 0 0 1-.72l1.23-4.17a30.54 30.54 0 0 0 1.56 4.33 1 1 0 1 0 1.8-.88 36 36 0 0 1 -2.3-7.46 1 1 0 0 0 -.98-.75z"/><path d="m34.58 117.81a1 1 0 0 0 -.94.79 36.23 36.23 0 0 1 -2.3 7.46 1 1 0 0 0 1.8.88 30.54 30.54 0 0 0 1.56-4.33l1.23 4.17a1 1 0 0 0 1 .72.9.9 0 0 0 .28 0 1 1 0 0 0 .68-1.24l-2.27-7.7a1 1 0 0 0 -1.04-.75z"/><path d="m13.11 126.24a1 1 0 0 0 .7 1.23 1.24 1.24 0 0 0 .27 0 1 1 0 0 0 1-.74c0-.14 3.4-12.68 4.93-22.16a0 0 0 0 1 0 0c.11-.72.22-1.41.31-2.09a29.17 29.17 0 0 0 -.2-5c-.39-4.41-1-11.09 1.16-13.22 1.32-1.32 6.4-3.46 11.31-5.53 6.53-2.75 13.28-5.6 15.94-8.19 2.48-2.41 3.57-6.46 4-8.3a49.79 49.79 0 0 1 11.19-2.12c1.14-.11 2.27-.29 3.37-.46.93-.15 1.9-.3 2.84-.4a30.11 30.11 0 0 0 8.07-2.1c0 3.05.43 9.63 4.23 13.33 2.66 2.59 9.41 5.44 15.94 8.19 4.91 2.07 10 4.21 11.31 5.53 2.13 2.13 1.54 8.81 1.16 13.22a28.18 28.18 0 0 0 -.2 5c1.31 9.6 5.21 24.13 5.25 24.28a1 1 0 0 0 1 .74 1.09 1.09 0 0 0 .26 0 1 1 0 0 0 .71-1.23c0-.14-3.9-14.55-5.2-24a31.14 31.14 0 0 1 .21-4.6c.47-5.36 1-12-1.74-14.81-1.6-1.6-6.39-3.62-11.94-6-6.06-2.56-12.93-5.46-15.33-7.79-3.66-3.54-3.66-10.77-3.59-12.78 9.25-4.68 15-14.2 15-26-.02-15.96-12.75-28.71-29.63-29.69-18.54-1.07-38.55 15.16-46.44 30.81a1 1 0 1 0 1.78.9c9.78-19.38 30.73-30.52 44.55-29.71 15.8.91 27.72 12.8 27.72 27.66 0 14.64-9.41 25.5-23.4 27-1 .11-2 .26-2.94.41s-2.17.35-3.25.45a50.64 50.64 0 0 0 -12.07 2.36h-.08c-4.28 1.51-8.46 4-10.7 8.15a1 1 0 0 0 .39 1.42 1 1 0 0 0 .48.11 1 1 0 0 0 .88-.52c1.65-3.08 4.6-5.13 7.82-6.52a13.63 13.63 0 0 1 -3.09 6c-2.39 2.33-9.26 5.23-15.32 7.79l-3.59 1.52c-6-11.82 1.75-24.56 1.83-24.69a1 1 0 0 0 -1.7-1.06c-.35.57-8.4 13.77-2 26.56-3.07 1.37-5.47 2.59-6.51 3.63-2.79 2.79-2.21 9.45-1.75 14.8a34 34 0 0 1 .23 4.47c-7.28-10.41-7.28-30.18-3.28-45.23 7-26.22 22-37.22 30.4-41.45a1 1 0 1 0 -.9-1.78c-8.68 4.37-24.28 15.74-31.45 42.72-4.33 16.28-4 38 4.86 48.45-1.55 9.3-4.77 21.31-4.8 21.44z"/><path d="m51 13a1.12 1.12 0 0 0 .31 0 20.22 20.22 0 0 1 2.07-.56 1 1 0 0 0 -.37-2 22.12 22.12 0 0 0 -2.31.63 1 1 0 0 0 -.7 1.25 1 1 0 0 0 1 .68z"/><path d="m32.89 41.46a1 1 0 0 0 -1.32-1.46 41.65 41.65 0 0 0 -14.57 31 1 1 0 0 0 1 1 1 1 0 0 0 1-1 39.74 39.74 0 0 1 13.89-29.54z"/><path d="m18.06 75a1 1 0 0 0 -.92 1c.09 1.15.21 2.09.29 2.75.05.42.09.72.09.9a1 1 0 0 0 1 1 1 1 0 0 0 1-1c0-.21-.05-.57-.11-1.07s-.19-1.55-.27-2.67a1 1 0 0 0 -1.08-.91z"/><path d="m84.8 40.92a1 1 0 0 0 .9-.55 12.28 12.28 0 0 0 1.15-3.26 1 1 0 0 0 -2-.3 10.63 10.63 0 0 1 -1 2.67 1 1 0 0 0 .45 1.34 1 1 0 0 0 .5.1z"/><path d="m33.84 70.64a1 1 0 0 0 2 0c0-8.59 9.25-12.63 11.87-13 24.56-3.53 29.84-7.41 34.62-12.5a1 1 0 1 0 -1.45-1.36c-4.5 4.79-9.54 8.44-33.46 11.88-3.48.49-13.58 5.16-13.58 14.98z"/><path d="m65.33 91.4a1 1 0 0 0 -1 1 9.16 9.16 0 0 0 2.35 6.11 1 1 0 0 0 .67.26 1 1 0 0 0 .75-.32 1 1 0 0 0 -.1-1.45 7.25 7.25 0 0 1 -1.7-4.63 1 1 0 0 0 -.97-.97z"/><path d="m102.41 92.89a1 1 0 0 0 -1.12.65c-.15.43-3.92 10.55-12.22 7.66-.71-.25-1.4-.46-2.06-.65 1.65-4.3 8.71-11.21 11.49-13.68a1 1 0 0 0 -.78-1.74c-4.45.56-8.81 3.41-11.28 5.3-.07-5-2.26-12.4-2.35-12.73a1 1 0 0 0 -1.09-.7 1 1 0 0 0 -.89.92c-.47 6.19-2.21 16.42-4.92 18.71-4.4-1.7-7-5.23-7.63-10.52a1 1 0 0 0 -2 .24c.68 5.51 3.31 9.49 7.65 11.63a17.84 17.84 0 0 0 -4.49 5.28 6.18 6.18 0 0 0 -5.8-2 19.4 19.4 0 0 1 -2.15-6.82 15.16 15.16 0 0 1 4.73-12.91c0 .45-.06.94-.07 1.46a1 1 0 0 0 1 1 1 1 0 0 0 1-1 20.36 20.36 0 0 1 .4-3.82 1 1 0 0 0 -.45-1.06 1 1 0 0 0 -1.15.06c-11.37 9-6.88 20.36-5.16 23.75a6.17 6.17 0 0 0 -3.07 4.66h-1a1 1 0 0 0 0 2h1a11.2 11.2 0 0 0 4.93 7 12.57 12.57 0 0 0 6.87 1.88 23.25 23.25 0 0 0 9.58-2.38 16 16 0 0 0 4.42.58 22.89 22.89 0 0 0 2.39-.13c14.8-1.58 15-21.48 15-21.68a1 1 0 0 0 -.78-.96zm-14.41 20.67a15.75 15.75 0 0 1 -6.13-.39.91.91 0 0 0 -.43-.14 16.05 16.05 0 0 1 -3.84-2c-1.86-1.2-3.62-2.35-6.38-1.51-.57-1.4-1.87-3.75-4.24-4.18a2.63 2.63 0 0 0 -2.22.39 1.82 1.82 0 0 0 -.63 1.42 1 1 0 0 0 1 1 1 1 0 0 0 1-.87 2.21 2.21 0 0 1 .51 0c1.73.31 2.76 2.82 3 3.76a1 1 0 0 0 .54.64 1 1 0 0 0 .83 0c2.38-1 3.55-.28 5.5 1a24.15 24.15 0 0 0 2.28 1.32c-6.39 2.43-10.41 1.34-12.72-.13a8.76 8.76 0 0 1 -4.14-6.58 4.19 4.19 0 0 1 8-1.72 1 1 0 0 0 1.22.52h.1a1 1 0 0 0 .54-.54 15.73 15.73 0 0 1 6-6.9h.06s0 0 0 0c3.13-1.92 4.77-9.54 5.56-15a35.37 35.37 0 0 1 .94 7.4 1.68 1.68 0 0 0 1 1.58 1.66 1.66 0 0 0 1.81-.19 30.24 30.24 0 0 1 7.06-4.24c-3.14 3.08-7.83 8.14-9.19 11.94-3.61-.75-6.2-.41-7.74 1a1 1 0 1 0 1.36 1.47c.83-.77 3.2-1.72 9.72.54 5.61 2 9.75-1 12.3-4.34-.98 5.46-3.95 13.83-12.67 14.75z"/><path d="m90.24 109.1c-1.64.63-3.51.34-5.55-.88-4.7-2.78-7.74-2.32-7.86-2.31a1 1 0 0 0 .31 2s2.52-.32 6.53 2a9.48 9.48 0 0 0 4.81 1.49 6.72 6.72 0 0 0 2.52-.4 1 1 0 1 0 -.71-1.87z"/></svg>