<?xml version="1.0" encoding="UTF-8" standalone="no"?>
<!-- Created with Inkscape (http://www.inkscape.org/) -->

<svg
   version="1.1"
   id="svg141"
   xml:space="preserve"
   width="70"
   height="70"
   viewBox="0 0 682.66669 682.66669"
   xmlns="http://www.w3.org/2000/svg"
   xmlns:svg="http://www.w3.org/2000/svg"><defs
     id="defs145"><clipPath
       clipPathUnits="userSpaceOnUse"
       id="clipPath155"><path
         d="M 0,512 H 512 V 0 H 0 Z"
         id="path153" /></clipPath></defs><g
     id="g147"
     transform="matrix(1.3333333,0,0,-1.3333333,0,682.66667)"><g
       id="g149"><g
         id="g151"
         clip-path="url(#clipPath155)"><g
           id="g157"
           transform="translate(93.9003,76.1405)"><path
             d="m 0,0 -47.722,27.552 c -10.118,5.842 -13.585,18.78 -7.743,28.899 l 71.831,124.415 c 5.842,10.119 18.781,13.585 28.899,7.744 l 47.722,-27.553 c 10.118,-5.841 13.585,-18.78 7.743,-28.898 L 28.899,7.743 C 23.057,-2.375 10.118,-5.842 0,0 Z"
             style="fill:none;stroke:#000000;stroke-width:20;stroke-linecap:round;stroke-linejoin:round;stroke-miterlimit:10;stroke-dasharray:none;stroke-opacity:1"
             id="path159" /></g><g
           id="g161"
           transform="translate(89.213,78.8467)"><path
             d="m 0,0 -38.347,22.14 -21.971,-38.055 -4.995,-52.932 43.342,30.793 z"
             style="fill:none;stroke:#000000;stroke-width:20;stroke-linecap:round;stroke-linejoin:round;stroke-miterlimit:10;stroke-dasharray:none;stroke-opacity:1"
             id="path163" /></g><g
           id="g165"
           transform="translate(62.688,165.7421)"><path
             d="M 0,0 76.694,-44.279"
             style="fill:none;stroke:#000000;stroke-width:20;stroke-linecap:round;stroke-linejoin:round;stroke-miterlimit:10;stroke-dasharray:none;stroke-opacity:1"
             id="path167" /></g><g
           id="g169"
           transform="translate(93.6835,219.4279)"><path
             d="M 0,0 76.694,-44.279"
             style="fill:none;stroke:#000000;stroke-width:20;stroke-linecap:round;stroke-linejoin:round;stroke-miterlimit:10;stroke-dasharray:none;stroke-opacity:1"
             id="path171" /></g><g
           id="g173"
           transform="translate(182.1995,239.9042)"><path
             d="m 0,0 -38.347,22.14 22.14,38.347 38.347,-22.14 z"
             style="fill:none;stroke:#000000;stroke-width:20;stroke-linecap:round;stroke-linejoin:round;stroke-miterlimit:10;stroke-dasharray:none;stroke-opacity:1"
             id="path175" /></g><g
           id="g177"
           transform="translate(223.5128,267.1814)"><path
             d="m 0,0 -59.438,34.317 c -11.648,6.725 -15.639,21.619 -8.914,33.267 v 0 c 6.725,11.648 21.62,15.639 33.268,8.914 L 66.535,17.828 v 0 C 53.085,-5.468 23.296,-13.45 0,0 Z"
             style="fill:none;stroke:#000000;stroke-width:20;stroke-linecap:round;stroke-linejoin:round;stroke-miterlimit:10;stroke-dasharray:none;stroke-opacity:1"
             id="path179" /></g><g
           id="g181"
           transform="translate(290.0481,285.0095)"><path
             d="M 0,0 105.934,-61.161"
             style="fill:none;stroke:#000000;stroke-width:20;stroke-linecap:round;stroke-linejoin:round;stroke-miterlimit:10;stroke-dasharray:none;stroke-opacity:1"
             id="path183" /></g><g
           id="g185"
           transform="translate(245.8777,433.2217)"><path
             d="M 0,0 203.239,-117.34"
             style="fill:none;stroke:#000000;stroke-width:20;stroke-linecap:round;stroke-linejoin:round;stroke-miterlimit:10;stroke-dasharray:none;stroke-opacity:1"
             id="path187" /></g><g
           id="g189"
           transform="translate(303.3982,400.0122)"><path
             d="m 0,0 -23.008,13.284 c -8.472,4.891 -19.304,1.988 -24.195,-6.483 l -35.423,-61.355 c -4.891,-8.472 -1.989,-19.304 6.483,-24.195 l 23.008,-13.284 c 8.471,-4.891 19.304,-1.988 24.194,6.483 L 6.483,-24.195 C 11.374,-15.723 8.471,-4.891 0,0 Z"
             style="fill:none;stroke:#000000;stroke-width:20;stroke-linecap:round;stroke-linejoin:round;stroke-miterlimit:10;stroke-dasharray:none;stroke-opacity:1"
             id="path191" /></g><g
           id="g193"
           transform="translate(395.3308,346.9349)"><path
             d="m 0,0 -23.008,13.284 c -8.472,4.891 -19.304,1.988 -24.195,-6.483 l -35.423,-61.355 c -4.891,-8.472 -1.989,-19.304 6.483,-24.195 l 23.008,-13.284 c 8.471,-4.891 19.304,-1.988 24.194,6.483 L 6.483,-24.195 C 11.374,-15.723 8.471,-4.891 0,0 Z"
             style="fill:none;stroke:#000000;stroke-width:20;stroke-linecap:round;stroke-linejoin:round;stroke-miterlimit:10;stroke-dasharray:none;stroke-opacity:1"
             id="path195" /></g><g
           id="g197"
           transform="translate(408.6196,196.9526)"><path
             d="m 0,0 v 0 c -11.667,6.736 -15.664,21.654 -8.928,33.321 l 55.698,96.473 19.807,-11.436 c 13.508,-7.799 17.06,-25.708 7.551,-38.071 v 0 C 58.018,59.342 44.782,36.337 34.771,11.883 v 0 C 29.172,-1.792 12.797,-7.388 0,0 Z"
             style="fill:none;stroke:#000000;stroke-width:20;stroke-linecap:round;stroke-linejoin:round;stroke-miterlimit:10;stroke-dasharray:none;stroke-opacity:1"
             id="path199" /></g><g
           id="g201"
           transform="translate(312.1094,456.0362)"><path
             d="m 0,0 c 21.382,-20.014 29.881,-48.697 25.193,-75.599 l 47.794,-27.594 C 88.697,-54.334 76.198,1.456 36.311,38.792 25.599,48.819 8.787,48.264 -1.24,37.552 -11.268,26.84 -10.712,10.027 0,0 Z"
             style="fill:none;stroke:#000000;stroke-width:20;stroke-linecap:round;stroke-linejoin:round;stroke-miterlimit:10;stroke-dasharray:none;stroke-opacity:1"
             id="path203" /></g><g
           id="g205"
           transform="translate(312.1094,456.0362)"><path
             d="M 0,0 -11.928,-3.196"
             style="fill:none;stroke:#000000;stroke-width:20;stroke-linecap:round;stroke-linejoin:round;stroke-miterlimit:10;stroke-dasharray:none;stroke-opacity:1"
             id="path207" /></g><g
           id="g209"
           transform="translate(368.5565,471.1611)"><path
             d="M 0,0 41.636,11.156"
             style="fill:none;stroke:#000000;stroke-width:20;stroke-linecap:round;stroke-linejoin:round;stroke-miterlimit:10;stroke-dasharray:none;stroke-opacity:1"
             id="path211" /></g></g></g></g></svg>
