<?xml version="1.0" encoding="UTF-8"?>
<svg xmlns="http://www.w3.org/2000/svg" xmlns:xlink="http://www.w3.org/1999/xlink" version="1.1" id="Capa_1" x="0px" y="0px" viewBox="0 0 514.975 514.975" style="enable-background:new 0 0 514.975 514.975;" xml:space="preserve" width="70" height="70">
<g>
	<g>
		<g>
			<g>
				<path style="fill:none;stroke:#000000;stroke-width:30;stroke-miterlimit:10;" d="M15.035,192.026&#10;&#9;&#9;&#9;&#9;&#9;c0,0,84.518-27.816,149.118-44.106c79.351-20.01,163.319-9.6,235.428,29.095l100.394,53.873v-11.243l-117.719-97.085&#10;&#9;&#9;&#9;&#9;&#9;c-48.331-39.86-111.04-57.87-173.157-49.73L67.319,91.622c-29.847,3.956-52.163,29.382-52.214,59.49L15.035,192.026z"/>
			</g>
		</g>
		<path style="fill:none;stroke:#000000;stroke-width:30;stroke-miterlimit:10;" d="M391.865,126.38&#10;&#9;&#9;&#9;c5.309-14.681,19.371-25.172,35.883-25.172h0c21.068,0,38.147,17.079,38.147,38.147v66.523c0,21.068-17.079,38.147-38.147,38.147&#10;&#9;&#9;&#9;h0c-21.068,0-38.147-17.079-38.147-38.147v-34"/>
	</g>
	<g>
		<path style="fill:none;stroke:#000000;stroke-width:30;stroke-miterlimit:10;" d="M439.046,336.037&#10;&#9;&#9;&#9;c0,0-84.222,77.98-196.145,77.98c-101.005,0-162.813-77.98-162.813-77.98"/>
		<path style="fill:none;stroke:#000000;stroke-width:30;stroke-miterlimit:10;" d="M284.747,410.446h11.009&#10;&#9;&#9;&#9;c18.566,0,33.617,15.051,33.617,33.617v12.519"/>
		<path style="fill:none;stroke:#000000;stroke-width:30;stroke-miterlimit:10;" d="M335.589,395.986h11.009&#10;&#9;&#9;&#9;c18.566,0,33.617,15.051,33.617,33.617v12.519"/>
		<path style="fill:none;stroke:#000000;stroke-width:30;stroke-miterlimit:10;" d="M383.688,373.918h11.009&#10;&#9;&#9;&#9;c18.566,0,33.617,15.051,33.617,33.617v12.519"/>
	</g>
</g>















</svg>
