<svg height="511pt" viewBox="0 -19 511.99995 511" width="511pt" xmlns="http://www.w3.org/2000/svg"><path d="m189.742188 82.433594c-1.273438 4.070312.992187 8.40625 5.0625 9.679687l48.761718 15.265625c.769532.242188 1.546875.355469 2.3125.355469 3.285156 0 6.332032-2.113281 7.367188-5.417969 1.273437-4.070312-.992188-8.402344-5.0625-9.675781l-48.761719-15.269531c-4.070313-1.273438-8.402344.992187-9.679687 5.0625zm0 0"/><path d="m275.527344 107.734375c.765625 0 1.542968-.113281 2.3125-.355469l48.761718-15.265625c4.070313-1.273437 6.335938-5.609375 5.0625-9.679687-1.273437-4.070313-5.605468-6.339844-9.679687-5.0625l-48.761719 15.265625c-4.070312 1.273437-6.335937 5.609375-5.0625 9.679687 1.035156 3.304688 4.082032 5.417969 7.367188 5.417969zm0 0"/><path d="m231.21875 198.375c-.867188-12.257812-5.402344-21.796875-13.476562-28.351562-13.921876-11.296876-33.136719-8.800782-33.949219-8.6875-4.226563.582031-7.179688 4.476562-6.597657 8.703124.582032 4.226563 4.480469 7.179688 8.707032 6.597657.132812-.015625 13.46875-1.625 22.109375 5.382812 4.683593 3.804688 7.234375 9.511719 7.796875 17.445313.285156 4.070312 3.679687 7.179687 7.695312 7.179687.183594 0 .367188-.007812.554688-.019531 4.253906-.300781 7.457031-3.996094 7.160156-8.25zm0 0"/><path d="m200.675781 266.363281c1.464844 1.285157 3.28125 1.914063 5.085938 1.914063 2.148437 0 4.285156-.890625 5.8125-2.632813 11.777343-13.441406 15.8125-29.265625 11.070312-43.402343-4.195312-12.515626-14.808593-21.667969-28.386719-24.480469-4.175781-.867188-8.265624 1.816406-9.128906 5.996093-.867187 4.175782 1.816406 8.261719 5.992188 9.128907 8.261718 1.710937 14.410156 6.910156 16.878906 14.265625 2.945312 8.792968.015625 19.113281-8.042969 28.3125-2.8125 3.210937-2.492187 8.089844.71875 10.898437zm0 0"/><path d="m177.148438 230.195312c-3.746094-2.046874-8.4375-.667968-10.484376 3.074219-2.042968 3.742188-.667968 8.433594 3.074219 10.480469 4.015625 2.195312 10.683594 13.871094 9.105469 25.597656-1.238281 9.175782-7.339844 15.125-18.136719 17.679688-4.152343.980468-6.71875 5.140625-5.738281 9.292968.839844 3.554688 4.011719 5.945313 7.507812 5.945313.589844 0 1.1875-.066406 1.785157-.207031 23.148437-5.476563 28.664062-21.554688 29.886719-30.648438 2.175781-16.113281-5.613282-34.988281-17-41.214844zm0 0"/><path d="m145.640625 297.992188c12.324219-16.164063 7.453125-38.230469 7.238281-39.160157-.949218-4.148437-5.070312-6.730469-9.222656-5.796875-4.148438.933594-6.757812 5.0625-5.839844 9.21875.035156.15625 3.441406 16.089844-4.503906 26.433594-3.882812 5.050781-10.136719 8.144531-18.621094 9.234375l-14.210937-108.960937c-.550781-4.226563-4.425781-7.207032-8.660157-6.660157-4.226562.554688-7.210937 4.429688-6.660156 8.660157l14.515625 111.269531c.03125.246093.074219.488281.128907.730469.3125 1.355468.597656 2.695312.878906 4.011718 2 9.398438 4.066406 19.121094 13.671875 26.699219 7.433593 5.863281 11.71875 14.609375 13.09375 26.726563l7.84375 101.136718c.316406 4.050782 3.699219 7.125 7.695312 7.125.199219 0 .402344-.007812.605469-.023437 4.253906-.328125 7.433594-4.042969 7.101562-8.296875l-7.855468-101.269532c-.007813-.085937-.015625-.171874-.023438-.257812-1.816406-16.273438-8.175781-28.8125-18.894531-37.269531-2.886719-2.277344-4.53125-4.964844-5.769531-8.511719 12.019531-1.828125 21.257812-6.859375 27.488281-15.039062zm0 0"/><path d="m148.765625 173.109375c.507813.101563 1.011719.148437 1.507813.148437 3.613281 0 6.839843-2.542968 7.570312-6.21875.28125-1.417968.613281-2.808593.992188-4.128906 1.171874-4.101562-1.207032-8.375-5.308594-9.546875-4.097656-1.167969-8.375 1.207031-9.546875 5.308594-.492188 1.726563-.925781 3.53125-1.289063 5.363281-.832031 4.179688 1.890625 8.246094 6.074219 9.074219zm0 0"/><path d="m117.140625 143.199219c-4.152344-.96875-8.308594 1.613281-9.277344 5.765625-2.261719 9.6875-.828125 17.285156-.660156 18.117187.75 3.65625 3.96875 6.175781 7.558594 6.175781.515625 0 1.035156-.050781 1.558593-.15625 4.179688-.859374 6.875-4.9375 6.019532-9.117187-.011719-.046875-.925782-5.121094.566406-11.507813.96875-4.152343-1.613281-8.304687-5.765625-9.277343zm0 0"/><path d="m80.980469 395.136719c-8.148438 3.972656-17.5625 6.523437-27.234375 7.375-4.25.375-7.390625 4.121093-7.015625 8.371093.351562 4.019532 3.722656 7.046876 7.683593 7.046876.226563 0 .457032-.007813.6875-.027344 11.695313-1.03125 22.683594-4.019532 32.648438-8.878906 3.835938-1.871094 5.425781-6.496094 3.558594-10.328126-1.871094-3.835937-6.496094-5.429687-10.328125-3.558593zm0 0"/><path d="m57.441406 225.246094c.21875 4.117187 3.628906 7.3125 7.707032 7.3125.136718 0 .277343 0 .414062-.007813 4.261719-.226562 7.53125-3.863281 7.304688-8.121093-.058594-1.121094-.132813-2.234376-.222657-3.332032-.347656-4.25-4.074219-7.410156-8.328125-7.066406-4.25.347656-7.414062 4.078125-7.066406 8.328125.078125.953125.144531 1.914063.191406 2.886719zm0 0"/><path d="m63.074219 208.746094c4.164062-.929688 6.785156-5.058594 5.855469-9.222656-2.730469-12.207032-5.328126-18.484376-5.4375-18.746094-1.644532-3.925782-6.148438-5.773438-10.082032-4.140625-3.929687 1.628906-5.796875 6.144531-4.175781 10.082031.019531.054688 2.226563 5.46875 4.617187 16.171875.804688 3.597656 3.992188 6.042969 7.53125 6.042969.558594 0 1.125-.0625 1.691407-.1875zm0 0"/><path d="m327.464844 161.335938c-.808594-.113282-20.023438-2.609376-33.949219 8.6875-8.074219 6.554687-12.605469 16.089843-13.472656 28.351562-.300781 4.253906 2.90625 7.949219 7.160156 8.25.183594.011719.367187.019531.550781.019531 4.019532 0 7.410156-3.109375 7.699219-7.179687.554687-7.902344 3.085937-13.589844 7.730469-17.394532 8.601562-7.039062 21.90625-5.464843 22.203125-5.429687 4.214843.566406 8.09375-2.382813 8.675781-6.601563.582031-4.222656-2.371094-8.121093-6.597656-8.703124zm0 0"/><path d="m320.136719 212.886719c4.179687-.863281 6.863281-4.953125 5.996093-9.128907-.867187-4.179687-4.949218-6.867187-9.128906-5.996093-13.582031 2.8125-24.191406 11.964843-28.386718 24.480469-4.742188 14.140624-.710938 29.960937 11.066406 43.402343 1.527344 1.742188 3.667968 2.632813 5.816406 2.632813 1.804688 0 3.621094-.628906 5.085938-1.914063 3.207031-2.808593 3.53125-7.6875.71875-10.898437-8.0625-9.199219-10.992188-19.519532-8.042969-28.3125 2.464843-7.355469 8.617187-12.554688 16.875-14.265625zm0 0"/><path d="m350.554688 287.027344c-10.796876-2.554688-16.898438-8.503906-18.136719-17.679688-1.582031-11.726562 5.085937-23.402344 9.101562-25.597656 3.746094-2.042969 5.121094-6.738281 3.074219-10.480469-2.042969-3.742187-6.734375-5.121093-10.480469-3.074219-11.390625 6.226563-19.175781 25.101563-17.003906 41.214844 1.222656 9.097656 6.738281 25.171875 29.886719 30.648438.597656.140625 1.195312.210937 1.785156.210937 3.5 0 6.667969-2.394531 7.507812-5.949219.984376-4.152343-1.585937-8.3125-5.734374-9.292968zm0 0"/><path d="m360.984375 173.257812c.496094 0 1-.046874 1.503906-.148437 4.183594-.824219 6.90625-4.890625 6.078125-9.074219-.359375-1.824218-.792968-3.628906-1.289062-5.363281-1.171875-4.101563-5.445313-6.480469-9.546875-5.308594-4.101563 1.167969-6.476563 5.445313-5.308594 9.546875.378906 1.328125.714844 2.714844.992187 4.121094.726563 3.679688 3.957032 6.226562 7.570313 6.226562zm0 0"/><path d="m394.9375 173.101562c.523438.105469 1.042969.15625 1.558594.15625 3.589844 0 6.808594-2.519531 7.558594-6.175781.171874-.832031 1.601562-8.429687-.660157-18.117187-.96875-4.152344-5.125-6.734375-9.277343-5.765625-4.152344.96875-6.734376 5.125-5.765626 9.277343 1.480469 6.328126.589844 11.378907.558594 11.5625-.824218 4.15625 1.867188 8.210938 6.027344 9.0625zm0 0"/><path d="m457.511719 402.511719c-9.671875-.851563-19.085938-3.402344-27.234375-7.375-3.835938-1.871094-8.457032-.277344-10.324219 3.558593-1.871094 3.832032-.28125 8.457032 3.554687 10.324219 9.96875 4.863281 20.953126 7.847657 32.652344 8.878907.230469.023437.457032.03125.683594.03125 3.960938 0 7.332031-3.027344 7.6875-7.046876.375-4.25-2.769531-7.996093-7.019531-8.371093zm0 0"/><path d="m438.613281 221.09375c-.089843 1.101562-.164062 2.210938-.222656 3.335938-.226563 4.257812 3.042969 7.894531 7.300781 8.121093.140625.007813.28125.007813.417969.007813 4.078125 0 7.488281-3.195313 7.703125-7.3125.050781-.972656.117188-1.933594.195312-2.882813.351563-4.25-2.8125-7.980469-7.0625-8.332031-4.253906-.34375-7.980468 2.8125-8.332031 7.0625zm0 0"/><path d="m449.875 208.933594c3.539062 0 6.726562-2.445313 7.53125-6.042969 2.375-10.632813 4.570312-16.046875 4.617188-16.167969 1.632812-3.933594-.222657-8.445312-4.152344-10.089844-3.9375-1.644531-8.457032.210938-10.105469 4.144532-.105469.261718-2.707031 6.539062-5.433594 18.746094-.929687 4.160156 1.691407 8.292968 5.851563 9.222656.566406.125 1.132812.1875 1.691406.1875zm0 0"/><path d="m320.300781 317.921875-55.957031-12.851563v-29.828124c0-4.265626-3.457031-7.722657-7.722656-7.722657s-7.722656 3.457031-7.722656 7.722657v29.882812l-53.582032 12.8125c-4.148437.992188-6.707031 5.160156-5.714844 9.308594.847657 3.546875 4.011719 5.929687 7.503907 5.929687.597656 0 1.203125-.070312 1.804687-.214843l57.746094-13.808594 60.183594 13.824218c4.160156.957032 8.304687-1.640624 9.257812-5.796874.957032-4.160157-1.640625-8.300782-5.796875-9.257813zm0 0"/><path d="m216.742188 350.292969c-3.394532-2.582031-8.242188-1.925781-10.824219 1.46875-8.4375 11.09375-13.769531 29.523437-15.847657 54.78125-1.5 18.21875-.722656 33.246093-.691406 33.875.222656 4.117187 3.628906 7.3125 7.707032 7.3125.140624 0 .28125-.003907.417968-.011719 4.261719-.230469 7.53125-3.867188 7.300782-8.125-.84375-15.816406-.082032-60.742188 13.40625-78.480469 2.585937-3.394531 1.925781-8.238281-1.46875-10.820312zm0 0"/><path d="m306.824219 351.761719c-2.582031-3.394531-7.425781-4.054688-10.824219-1.472657-3.394531 2.585938-4.050781 7.429688-1.46875 10.824219 13.464844 17.703125 14.242188 62.652344 13.40625 78.480469-.226562 4.257812 3.042969 7.894531 7.300781 8.121094.140625.007812.28125.011718.421875.011718 4.074219 0 7.484375-3.191406 7.703125-7.308593.035157-.632813.808594-15.65625-.691406-33.875-2.078125-25.257813-7.410156-43.6875-15.847656-54.78125zm0 0"/><path d="m93.503906 329.992188c-4.242187-.378907-8 2.761718-8.378906 7.007812-.015625.214844-2.203125 21.492188-28.28125 28.863281-12.113281 3.421875-21.542969 9.34375-28.714844 15.65625l1.582032-10.59375c.023437-.140625.039062-.285156.054687-.429687l1.125-12.167969c14.15625-3.421875 47.761719-16.199219 60.898437-61.640625.113282-.402344.1875-.804688.234376-1.207031.96875-4.253907.652343-8.695313-.964844-12.851563-.910156-2.339844-2.203125-4.449218-3.785156-6.304687 1.839843-1.878907 3.359374-4.078125 4.449218-6.554688 2.375-5.402343 2.503906-11.402343.363282-16.898437-2.140626-5.5-6.289063-9.835938-11.691407-12.210938-5.398437-2.375-11.402343-2.503906-16.898437-.363281s-9.832032 6.289063-12.207032 11.691406c-.101562.226563-.175781.460938-.265624.691407-3.417969-.785157-6.957032-.730469-10.375.152343l1.664062-17.949219c1.285156-13.933593-.78125-28.167968-5.992188-41.15625-3.152343-7.863281-4.875-16.101562-5.199218-24.378906 2.902344 1.351563 6.089844 2.082032 9.347656 2.082032 2.65625 0 5.363281-.484376 7.984375-1.503907 11.347656-4.414062 16.988281-17.238281 12.570313-28.589843-.023438-.0625-.054688-.117188-.078126-.179688 9.894532-5.113281 14.554688-17.011719 10.425782-27.621094-2.589844-6.652344-8.070313-11.339844-14.449219-13.195312 10.78125-11.640625 25.230469-19.730469 41.222656-22.503906l39.070313-6.785157c-2.347656 4.292969-4.019532 9.011719-4.8125 13.921875-27.253906-8.023437-51.390625 3.792969-52.535156 4.367188-3.8125 1.914062-5.355469 6.554687-3.441407 10.367187 1.355469 2.703125 4.082031 4.261719 6.910157 4.261719 1.164062 0 2.347656-.265625 3.457031-.820312.152343-.078126 9.621093-4.710938 22.597656-5.421876-6.257813 3.457032-12.550781 8.1875-17.832031 14.695313-11.199219 13.792969-15.21875 32.046875-11.941406 54.246094.566406 3.835937 3.863281 6.59375 7.632812 6.59375.375 0 .753906-.023438 1.136719-.082031 4.21875-.621094 7.136719-4.550782 6.511719-8.769532-2.609376-17.6875.273437-31.871094 8.578124-42.160156 9.191407-11.390625 23.171876-15.761719 31.070313-17.386719 1.257813 2.941407 2.941406 5.660157 5.035156 8.117188-7.363281 1.972656-14.757812 5.664062-21.082031 12.148437-2.976562 3.054688-2.917969 7.945313.136719 10.921875 1.503906 1.464844 3.449219 2.195313 5.394531 2.195313 2.007812 0 4.015625-.78125 5.527344-2.332032 9.964844-10.21875 24.988281-10.125 34.289062-8.8125-3.71875 2.539063-6.996094 5.789063-9.695312 9.710938-2.417969 3.515625-1.53125 8.324219 1.984375 10.742188 3.511719 2.417968 8.320312 1.527343 10.738281-1.984376 4.136719-6.007812 10.042969-9.167968 17.558594-9.394531 10.070312-.300781 19.777344 4.976563 23.773437 10.09375.070313.09375.152344.171875.226563.261719 2.496094 3.203125 4.1875 7.011719 5 11.71875.648437 3.757812 3.914062 6.410156 7.601562 6.410156.4375 0 .878906-.039062 1.324219-.113281 4.203125-.730469 7.023437-4.722656 6.296875-8.929687-1.320312-7.625-4.207031-13.71875-8.160156-18.6875-.039063-.050782-.070313-.105469-.113282-.160157-.042968-.058593-.097656-.113281-.144531-.171875-.125-.15625-.257812-.308594-.386719-.460937-.992187-1.210938-2.085937-2.367188-3.269531-3.464844-10.375-9.8125-25.515625-14.425781-39.710937-18.523437-.328125-.101563-1.011719-.3125-2.007813-.578126-4.160156-1.199218-8.445312-2.4375-12.546875-3.773437-9.792968-3.195313-13.535156-8.960937-14.617187-14.503906-.007813-.058594-.019531-.117188-.027344-.175781-.019531-.121094-.042969-.242188-.066406-.359376-.015625-.082031-.023438-.164062-.042969-.242187-.257812-1.671875-.285156-3.3125-.175781-4.839844.804687-11.191406 9.375-22.015625 18.714843-23.640625l24.683594-4.285156c3.230469-.558594 5.757813-3.101562 6.296875-6.339844l7.652344-45.910156c.699219-4.210938-2.144531-8.1875-6.351563-8.890625-4.207031-.703125-8.1875 2.140625-8.886718 6.347656l-6.75 40.511719-19.269532 3.34375c-.003906 0-.011718 0-.015624.003906-.007813 0-.015626.003906-.023438.003906l-67.929688 11.792969c-30.476562 5.292969-56.34375 26.496094-67.511718 55.34375l-6.398438 16.53125c-8.128906 21.003907-7.992187 44.085938.386719 64.988281 4.300781 10.726563 6.011719 22.476563 4.945313 33.984376l-10.875 117.546874c-.003907.023438-.003907.046876-.007813.070313l-1.644531 17.777344-14.3164065 95.722656c-.6328125 4.21875 2.2773435 8.152344 6.4960935 8.78125.386719.058594.773438.085937 1.152344.085937 3.761719 0 7.054687-2.75 7.628906-6.582031l2.925781-19.570312c1.320313-2.914063 6.992188-14.394531 17.613282-22.09375 3.453125-2.503907 4.222656-7.335938 1.71875-10.789063s-7.332032-4.222656-10.789063-1.71875c-1.335937.972656-2.605469 1.984375-3.820312 3.023438l.5-3.332032c1.988281-4.273437 12.625-24.617187 37.53125-31.65625 36.207031-10.230468 39.355469-41.050781 39.46875-42.355468.378906-4.25-2.757813-8-7.007813-8.378906zm-22-75.753907c3.667969 0 6.640625 2.972657 6.640625 6.636719 0 3.667969-2.972656 6.640625-6.640625 6.640625-3.664062 0-6.636718-2.972656-6.636718-6.640625 0-3.664062 2.972656-6.636719 6.636718-6.636719zm-1.027344 29.757813c3.664063 0 6.636719 2.972656 6.636719 6.640625 0 3.664062-2.972656 6.636719-6.636719 6.636719-3.667968 0-6.640624-2.972657-6.640624-6.636719 0-3.667969 2.972656-6.640625 6.640624-6.640625zm-24.355468-16.421875c3.667968 0 6.636718 2.972656 6.636718 6.636719 0 3.667968-2.96875 6.640624-6.636718 6.640624-3.664063 0-6.636719-2.972656-6.636719-6.640624 0-3.664063 2.972656-6.636719 6.636719-6.636719zm-9.300782 26.648437c.140626.066406.269532.140625.410157.203125 2.847656 1.253907 5.863281 1.882813 8.882812 1.882813.992188 0 1.980469-.09375 2.964844-.226563.21875.859375.484375 1.714844.816406 2.5625 2.136719 5.496094 6.289063 9.832031 11.691407 12.207031 2.152343.945313 4.398437 1.535157 6.675781 1.769532-10.910157 18.113281-26.101563 25.917968-35.84375 29.210937zm12.949219-179.457031c3.667969 0 6.640625 2.972656 6.640625 6.640625 0 3.664062-2.972656 6.636719-6.640625 6.636719-3.664062 0-6.636719-2.972657-6.636719-6.636719 0-3.667969 2.972657-6.640625 6.636719-6.640625zm-10.402343 28.230469c3.667968 0 6.640624 2.972656 6.640624 6.636718 0 3.667969-2.972656 6.640626-6.640624 6.640626-3.664063 0-6.636719-2.972657-6.636719-6.640626 0-3.664062 2.972656-6.636718 6.636719-6.636718zm0 0"/><path d="m178.699219 209.601562c2.375-5.398437 2.503906-11.398437.363281-16.898437-2.136719-5.496094-6.289062-9.832031-11.691406-12.207031-5.398438-2.375-11.402344-2.503906-16.898438-.363282-1.605468.625-3.097656 1.425782-4.460937 2.359376-2.148438-2.546876-4.847657-4.605469-7.984375-5.988282-5.402344-2.375-11.402344-2.503906-16.898438-.363281-11.351562 4.417969-16.988281 17.242187-12.574218 28.589844 1.933593 4.96875 5.519531 8.96875 10.175781 11.453125-1.753907 4.972656-1.691407 10.347656.238281 15.316406 2.140625 5.496094 6.292969 9.832031 11.691406 12.207031 2.847656 1.25 5.863282 1.878907 8.882813 1.878907 2.707031 0 5.417969-.503907 8.015625-1.515626 5.5-2.136718 9.835937-6.289062 12.210937-11.691406 1.378907-3.140625 1.976563-6.488281 1.835938-9.820312 1.652343-.238282 3.289062-.644532 4.882812-1.265625 5.5-2.136719 9.835938-6.289063 12.210938-11.691407zm-49.558594-6.242187c-3.667969 0-6.640625-2.972656-6.640625-6.640625 0-3.664062 2.972656-6.636719 6.640625-6.636719 3.664063 0 6.636719 2.972657 6.636719 6.636719 0 3.667969-2.972656 6.640625-6.636719 6.640625zm10.414063 26.765625c-3.667969 0-6.640626-2.96875-6.640626-6.636719 0-3.664062 2.972657-6.636719 6.640626-6.636719 3.664062 0 6.636718 2.972657 6.636718 6.636719 0 3.667969-2.972656 6.636719-6.636718 6.636719zm18.929687-22.773438c-3.667969 0-6.636719-2.972656-6.636719-6.640624 0-3.664063 2.96875-6.636719 6.636719-6.636719 3.664063 0 6.636719 2.972656 6.636719 6.636719 0 3.667968-2.972656 6.640624-6.636719 6.640624zm0 0"/><path d="m332.195312 192.703125c-2.140624 5.5-2.007812 11.5.363282 16.898437 2.375 5.402344 6.710937 9.554688 12.207031 11.691407 1.609375.628906 3.246094 1.027343 4.886719 1.261719-.144532 3.332031.457031 6.679687 1.835937 9.824218 2.378907 5.398438 6.710938 9.550782 12.207031 11.691406 2.597657 1.011719 5.308594 1.515626 8.015626 1.515626 3.019531 0 6.035156-.628907 8.886718-1.882813 5.398438-2.375 9.550782-6.707031 11.691406-12.207031 1.988282-5.109375 1.929688-10.515625.238282-15.324219 4.492187-2.398437 8.1875-6.335937 10.175781-11.441406 2.140625-5.5 2.007813-11.5-.363281-16.898438-2.375-5.402343-6.710938-9.554687-12.207032-11.691406-5.496093-2.140625-11.5-2.011719-16.902343.363281-3.140625 1.382813-5.839844 3.445313-7.988281 5.996094-1.378907-.941406-2.863282-1.75-4.457032-2.367188-11.347656-4.417968-24.175781 1.222657-28.589844 12.570313zm49.929688-2.621094c3.664062 0 6.636719 2.972657 6.636719 6.636719 0 3.667969-2.972657 6.640625-6.636719 6.640625-3.667969 0-6.640625-2.972656-6.640625-6.640625 0-3.664062 2.972656-6.636719 6.640625-6.636719zm-10.421875 26.769531c3.667969 0 6.640625 2.972657 6.640625 6.636719 0 3.667969-2.972656 6.636719-6.640625 6.636719-3.664063 0-6.636719-2.96875-6.636719-6.636719 0-3.664062 2.972656-6.636719 6.636719-6.636719zm-18.925781-22.777343c3.664062 0 6.636718 2.972656 6.636718 6.636719 0 3.667968-2.972656 6.636718-6.636718 6.636718-3.667969 0-6.636719-2.96875-6.636719-6.636718 0-3.664063 2.96875-6.636719 6.636719-6.636719zm0 0"/><path d="m511.914062 464.578125-14.3125-95.722656-12.53125-135.398438c-1.066406-11.507812.644532-23.257812 4.945313-33.984375 8.382813-20.90625 8.519531-43.984375.386719-64.988281l-6.398438-16.53125c-11.164062-28.847656-37.035156-50.054687-67.507812-55.34375l-87.238282-15.144531-6.753906-40.511719c-.699218-4.207031-4.667968-7.046875-8.886718-6.347656-4.207032.703125-7.050782 4.679687-6.351563 8.890625l7.65625 45.910156c.539063 3.238281 3.0625 5.777344 6.296875 6.339844l22.621094 3.929687c.421875.152344.859375.277344 1.316406.355469 9.339844 1.621094 17.914062 12.445312 18.714844 23.640625.109375 1.527344.082031 3.164063-.171875 4.839844-.058594.253906-.105469.515625-.136719.777343-1.085938 5.539063-4.828125 11.308594-14.621094 14.503907-4.089844 1.332031-8.363281 2.566406-12.515625 3.765625-1.03125.273437-1.730469.488281-2.050781.589844-14.1875 4.09375-29.316406 8.707031-39.6875 18.511718-1.179688 1.089844-2.269531 2.246094-3.265625 3.453125-.136719.160157-.277344.320313-.410156.488281-.042969.054688-.09375.105469-.136719.164063-.039062.050781-.070312.101563-.109375.152344-3.953125 4.96875-6.84375 11.0625-8.164063 18.695312-.726562 4.203125 2.089844 8.199219 6.296876 8.925781.445312.078126.886718.113282 1.324218.113282 3.6875 0 6.949219-2.648438 7.601563-6.410156.8125-4.703126 2.5-8.507813 4.992187-11.710938.078125-.089844.160156-.171875.234375-.265625 3.996094-5.117187 13.695313-10.386719 23.773438-10.09375 7.511719.226563 13.417969 3.386719 17.554687 9.394531 2.417969 3.515625 7.226563 4.402344 10.742188 1.984375s4.402344-7.226562 1.984375-10.742187c-2.703125-3.925782-5.984375-7.179688-9.710938-9.71875 2.238281-.320313 4.8125-.570313 7.566407-.617188 11.460937-.207031 20.433593 2.972656 26.738281 9.4375 1.511719 1.550782 3.519531 2.332032 5.527343 2.332032 1.945313 0 3.890626-.730469 5.390626-2.195313 3.054687-2.976563 3.117187-7.867187.140624-10.921875-6.324218-6.484375-13.71875-10.175781-21.082031-12.148438 2.089844-2.457031 3.777344-5.175781 5.035157-8.117187 7.894531 1.625 21.878906 5.996094 31.070312 17.386719 8.304688 10.289062 11.1875 24.472656 8.578125 42.160156-.625 4.21875 2.292969 8.144531 6.511719 8.769531.382812.054688.761718.082031 1.136718.082031 3.765626 0 7.0625-2.757812 7.632813-6.59375 3.277344-22.199218-.742187-40.453124-11.945313-54.246093-5.25-6.46875-11.496093-11.183594-17.71875-14.632813 12.863282.738282 22.308594 5.269532 22.507813 5.367188 1.105469.550781 2.277344.8125 3.4375.8125 2.828125 0 5.554687-1.558594 6.90625-4.261719 1.914063-3.8125.375-8.453125-3.4375-10.367187-1.144531-.574219-25.285156-12.390626-52.535156-4.367188-.804688-4.960938-2.503907-9.734375-4.890625-14.0625l39.886718 6.925781c15.921876 2.761719 30.316407 10.792969 41.082032 22.351563-1.136719.296875-2.261719.660156-3.359375 1.140625-5.398438 2.375-9.550781 6.710937-11.691407 12.207031-2.136718 5.5-2.007812 11.5.367188 16.902344 2.054688 4.671875 5.585938 8.410156 10.066406 10.714844-.027344.066406-.058594.125-.082031.1875-2.140625 5.496093-2.011719 11.5.363281 16.898437s6.710938 9.550781 12.207032 11.691406c2.621093 1.019531 5.324218 1.503907 7.984374 1.503907 3.539063 0 7-.871094 10.097657-2.460938-.285157 8.40625-2.011719 16.773438-5.210938 24.757812-5.210937 12.988282-7.28125 27.222657-5.988281 41.15625l1.679688 18.148438c-3.722657-1.097656-7.542969-1.167969-11.132813-.34375-.09375-.234375-.164063-.46875-.265625-.703125-2.375-5.398437-6.710938-9.550781-12.207031-11.6875-5.496094-2.140625-11.5-2.011719-16.898438.363281-5.402343 2.375-9.550781 6.710938-11.691406 12.207032-.257813.664062-.480469 1.335937-.671875 2.011718l8.335938-63.917968c.554687-4.230469-2.425782-8.105469-6.65625-8.65625-4.214844-.550782-8.109376 2.429687-8.660157 6.660156l-14.226562 109.054687c-8.855469-1.007812-15.355469-4.132812-19.347657-9.328125-7.914062-10.304687-4.566406-26.148437-4.503906-26.433594.933594-4.148437-1.660156-8.277343-5.8125-9.230468-4.15625-.953125-8.300781 1.648437-9.253906 5.804687-.210938.929688-5.082031 23 7.238281 39.160157 6.355469 8.339843 15.828125 13.410156 28.199219 15.144531-1.234375 3.5-2.878906 6.152343-5.738281 8.40625-10.71875 8.457031-17.074219 21-18.890625 37.273437-.011719.085938-.019532.171875-.027344.257813l-7.855469 101.269531c-.328125 4.253906 2.851563 7.96875 7.105469 8.296875.203125.015625.40625.023437.605469.023437 3.992187 0 7.378906-3.074218 7.691406-7.125l7.84375-101.136718c1.378906-12.121094 5.660156-20.863282 13.09375-26.730469 9.609375-7.574219 11.675781-17.292969 13.671875-26.695313.28125-1.316406.566406-2.65625.878906-4.015624.054688-.238282.097656-.480469.128906-.726563l5.339844-40.941406c.054688 2.886719.679688 5.757812 1.875 8.476562 1.089844 2.472657 2.605469 4.671875 4.441406 6.546875-1.5625 1.832032-2.855468 3.945313-3.777343 6.3125-1.617188 4.152344-1.933594 8.59375-.96875 12.847656.050781.402344.121093.808594.238281 1.210938 13.375 46.277344 47.976562 58.675781 61.65625 61.820312l1.109375 11.992188c.015625.144531.03125.285156.050781.429688l1.699219 11.359374c-7.273437-6.597656-16.964844-12.863281-29.570313-16.425781-25.617187-7.238281-28.179687-27.910156-28.289062-28.914062-.40625-4.222657-4.144531-7.328125-8.371094-6.953125-4.25.375-7.386718 4.125-7.011718 8.375.117187 1.308594 3.265624 32.125 39.46875 42.359375 27.292968 7.710937 37.457031 31.414062 37.867187 32.394531.195313.476562.445313.910156.71875 1.328125l.296875 2.003906c-1.464844-1.296875-3.015625-2.5625-4.671875-3.761719-3.453125-2.503906-8.28125-1.734374-10.785156 1.71875-2.507813 3.453126-1.738281 8.285157 1.714843 10.789063 12.1875 8.835937 17.816407 22.539063 17.925782 22.808594.195312.5.457031.957031.742187 1.390625l2.613281 17.464844c.574219 3.832031 3.867188 6.582031 7.628907 6.582031.378906 0 .765625-.027344 1.152343-.085938 4.222657-.632812 7.128907-4.566406 6.5-8.785156zm-51.445312-336.402344c-3.667969 0-6.640625-2.96875-6.640625-6.636719 0-3.664062 2.972656-6.636718 6.640625-6.636718 3.664062 0 6.636719 2.972656 6.636719 6.636718 0 3.667969-2.972657 6.636719-6.636719 6.636719zm10.347656 27.804688c-3.664062 0-6.636718-2.972657-6.636718-6.636719 0-3.667969 2.972656-6.640625 6.636718-6.640625 3.667969 0 6.636719 2.972656 6.636719 6.640625 0 3.664062-2.96875 6.636719-6.636719 6.636719zm-5.679687 111.59375c3.664062 0 6.636719 2.972656 6.636719 6.636719 0 3.667968-2.972657 6.640624-6.636719 6.640624-3.667969 0-6.640625-2.972656-6.640625-6.640624.003906-3.664063 2.976562-6.636719 6.640625-6.636719zm-25.382813-13.335938c3.664063 0 6.636719 2.972657 6.636719 6.636719 0 3.667969-2.972656 6.640625-6.636719 6.640625-3.667968 0-6.640625-2.972656-6.640625-6.640625 0-3.664062 2.972657-6.636719 6.640625-6.636719zm-5.609375 36.398438c0-3.664063 2.972657-6.636719 6.640625-6.636719 3.664063 0 6.636719 2.972656 6.636719 6.636719 0 3.667969-2.972656 6.640625-6.636719 6.640625-3.667968-.003906-6.640625-2.972656-6.640625-6.640625zm8.855469 21.984375c2.273438-.234375 4.523438-.824219 6.675781-1.769532 5.398438-2.375 9.550781-6.710937 11.6875-12.207031.332031-.84375.585938-1.699219.808594-2.5625.988281.132813 1.980469.226563 2.972656.226563 3.019531 0 6.035157-.628906 8.882813-1.878906.386718-.171876.746094-.371094 1.117187-.558594l4.464844 48.214844c-9.695313-3.136719-25.410156-10.871094-36.609375-29.464844zm0 0"/></svg>