<?xml version="1.0" encoding="utf-8"?>
<!-- Generator: Adobe Illustrator 26.0.0, SVG Export Plug-In . SVG Version: 6.00 Build 0)  -->
<svg version="1.1" id="Layer_1" xmlns="http://www.w3.org/2000/svg" xmlns:xlink="http://www.w3.org/1999/xlink" x="0px" y="0px"
	 viewBox="0 0 336 80" style="enable-background:new 0 0 336 80;" xml:space="preserve">
<style type="text/css">
	.st0{fill:#FFFFFF;}
	.st1{fill:#CCBABA;}
	.st2{fill:#D1B667;}
	.st3{fill:none;}
	.st4{fill:#232720;}
	.st5{fill:#BF8047;}
	.st6{opacity:0.53;}
</style>
<g>
	<g>
		<path class="st0" d="M53.3,20.9c0.1,0.1,0.3,0.1,0.4,0c1.2-1.2,2.4-2.3,3.5-3.5c0.3-0.3,0.3-0.9,0-1.2c-5.4-5-15.3-9.8-27.2-7.8
			c-6.1,1.1-11.5,3.7-16.1,7.8c-0.3,0.3-0.4,0.8,0,1.2c1.2,1.2,2.3,2.3,3.5,3.5c0.2,0.2,0.3,0.1,0.5,0c2.1-1.9,4.5-3.5,7.2-4.6
			c2.1-0.9,4.4-1.6,6.7-1.9c0.7-0.1,0.7-0.1,0.7,0.6v50.3c0,0.1,0,0.3,0,0.6v0c0,0,0,0.1,0,0.1c0,0,0,0,0,0.1c0,0,0,0.1,0,0.1
			c0,0.2,0,0.5,0.1,0.7c0,0,0,0,0,0c0,0,0,0,0,0c0,0.1,0,0.2,0,0.2c0,0,0,0,0,0c0,0,0,0,0,0c0,0.1,0,0.3,0.1,0.4c0,0,0,0,0,0
			c0,0,0,0,0,0c0.2,0.9,0.4,1.8,0.9,2.8c0,0,0,0,0,0c0,0,0,0,0,0c0,0.1,0.1,0.2,0.1,0.3c0,0,0,0,0,0c0.2,0.3,0.4,0.7,0.6,1
			c0,0,0,0.1,0.1,0.1c0,0,0,0,0,0c0,0,0,0.1,0.1,0.1c0,0,0,0,0,0c0,0,0,0,0,0c0.1,0.1,0.1,0.2,0.2,0.3c0,0,0,0,0,0c0,0,0,0,0,0
			c0,0.1,0.1,0.1,0.1,0.2c0,0,0,0,0,0c0,0,0,0,0,0c0.1,0.1,0.1,0.1,0.2,0.2l0.4,4l0.5-4c0,0,0,0,0,0c0,0,0.1-0.1,0.1-0.1
			c0,0,0,0,0.1-0.1c0,0,0,0,0.1-0.1c0,0,0.1-0.1,0.1-0.1c0,0,0.1-0.1,0.1-0.2c0,0,0,0,0-0.1c0-0.1,0.1-0.1,0.1-0.2c0,0,0,0,0,0
			c0,0,0,0,0,0c0.1-0.1,0.1-0.2,0.2-0.2c0,0,0,0,0,0c0,0,0-0.1,0.1-0.1c0,0,0.1-0.1,0.1-0.1c0,0,0,0,0-0.1c0-0.1,0.1-0.1,0.1-0.2
			c0,0,0-0.1,0.1-0.1c0,0,0-0.1,0.1-0.1c0,0,0,0,0,0c0,0,0,0,0,0c0,0,0-0.1,0.1-0.1c0,0,0-0.1,0.1-0.1c0,0,0,0,0,0c0,0,0,0,0,0
			c0-0.1,0.1-0.1,0.1-0.2c0,0,0,0,0,0c0-0.1,0.1-0.2,0.1-0.2c0,0,0-0.1,0-0.1c0,0,0,0,0,0c0,0,0,0,0,0c0,0,0-0.1,0-0.1
			c0,0,0-0.1,0-0.1c0-0.1,0.1-0.1,0.1-0.2c0,0,0-0.1,0-0.1c0-0.1,0-0.1,0.1-0.2c0,0,0-0.1,0-0.1c0-0.1,0.1-0.2,0.1-0.2
			c0,0,0,0,0-0.1c0,0,0-0.1,0-0.1c0,0,0-0.1,0-0.1c0-0.1,0-0.2,0.1-0.3c0,0,0-0.1,0-0.1c0,0,0-0.1,0-0.1c0,0,0,0,0-0.1
			c0-0.1,0-0.2,0-0.3c0,0,0,0,0,0c0,0,0,0,0,0c0-0.1,0-0.1,0-0.2c0-0.1,0-0.1,0-0.2c0,0,0,0,0,0c0,0,0,0,0-0.1c0,0,0,0,0-0.1
			c0-0.1,0-0.1,0-0.2c0-0.1,0-0.2,0-0.2c0-0.1,0-0.2,0-0.3c0,0,0-0.1,0-0.1c0,0,0,0,0,0c0,0,0,0,0-0.1c0-0.1,0-0.3,0-0.4
			c0,0,0,0,0,0c0-0.2,0-0.4,0-0.5v-2.3c-1.2-0.7-2.1-3.1-2.1-6c0-2.9,0.9-5.3,2.1-6V15.3c0-0.5,0.4-0.9,0.9-0.8
			c2.3,0.3,4.4,1,6.5,1.9C48.7,17.5,51.1,19,53.3,20.9z M33.5,27.7h0.8V37h-0.8V27.7z M34.4,38.2h-0.8v-0.5h0.8V38.2z M34.4,39.5
			h-0.8V39h0.8V39.5z M34.4,40.8h-0.8v-0.5h0.8V40.8z M34.4,42.1h-0.8v-0.5h0.8V42.1z M34.4,43.6h-0.8v-0.7h0.8V43.6z M34.4,45.5
			h-0.8v-1.4h0.8V45.5z M34.4,49.7h-0.8v-3.6h0.8V49.7z"/>
		<path class="st0" d="M59.8,38.1c0-0.6,0-0.6-0.7-0.6c-3.9,0-7.9,0-11.8,0c-0.5,0-0.6-0.1-0.6-0.6c0-3.4,0-6.8,0-10.2
			c0-0.2,0-0.3,0-0.5c0.1,0,0.1,0,0.1-0.1c0.7,0.7,1.5,1.4,2.2,2.1c1.8,2,3.1,4.2,3.9,6.8c0.1,0.3,0.2,0.4,0.5,0.4
			c1.8,0,3.6,0,5.4,0c0.1,0,0.3,0,0.5,0c-1.4-6-4.5-10.9-9.5-14.5c-2.8-2-5.8-3.4-9.3-4.1V43c0,0.6,0,0.6,0.7,0.6
			c3.9,0,7.7,0,11.6,0h0.6c0.1,3-4.3,10.5-6.7,11.2v-0.5c0-2.7,0-4.1,0-6.8c0-0.4-0.1-0.5-0.5-0.5c-1.7,0-3.4,0-5.1,0c0,0,0,0,0,0
			c-0.3,0-0.5,0.2-0.5,0.5v16.9c0.1,0,0.2,0,0.2,0c8-2.1,12.5-6.7,15.1-10.6v0c0,0,0,0,0,0c0.5-0.7,0.9-1.4,1.2-2.1c0,0,0,0,0,0
			c0-0.1,0.1-0.1,0.1-0.2c0.3-0.5,0.5-1,0.7-1.4c0.3-0.9,0.7-1.9,1-2.8v0c0,0,0,0,0,0c0-0.1,0.1-0.3,0.1-0.4c0-0.1,0-0.1,0-0.2
			c0,0,0,0,0,0c0.3-1.2,0.6-2.4,0.6-3.6C59.9,41.4,59.8,39.8,59.8,38.1z"/>
		<path class="st0" d="M30.1,58C28,57.4,26,56.4,24.3,55c-2.7-2.1-4.7-4.8-5.9-8c-0.4-1.1-0.7-2.2-1-3.3h6.9v4.8
			c0,0.5,0.4,0.8,0.8,0.8h4.4c0.5,0,0.8-0.4,0.8-0.8V16.8c-3,0.6-5.8,1.8-8.4,3.5c-4.9,3.3-8.2,7.8-9.9,13.3c0,0,0,0,0,0
			c-0.1,0.3-0.2,0.5-0.2,0.8c0,0.1,0,0.1,0,0.2c-0.2,0.6-0.3,1.4-0.5,2.4c0,0,0,0.1,0,0.1c0,0,0,0-0.1,0c0,0.2-0.1,0.4-0.1,0.6
			c0,0.1,0,0.2,0,0.2c0,0.4-0.1,0.8-0.1,1.2c0,0.1,0,0.3,0,0.5c0,1.6,0,3.2,0.3,4.8c0,0.1,0,0.2,0,0.3c0,0,0,0,0,0c0,0,0,0,0,0h0
			c0.2,1,0.4,2,0.7,3c0.3,1,0.7,2,1.1,2.9c1.3,3,3.2,5.6,5.6,7.9c2.8,2.6,6.1,4.4,9.7,5.6c0.5,0.2,1.1,0.3,1.8,0.4c0-2.1,0-4.1,0-6
			C30.4,58.2,30.2,58.1,30.1,58z M17.5,37.1c0.6-2.8,1.7-5.4,3.5-7.7c0.9-1.1,1.8-2.1,2.9-3c0.1,0,0.1-0.1,0.2-0.1c0,0,0.1,0,0.1,0
			v8c0,0.9,0,1.9,0,2.8c0,0.3-0.1,0.4-0.4,0.4c-2,0-4.1,0-6.1,0C17.6,37.5,17.5,37.4,17.5,37.1z"/>
	</g>
	<g>
		<path class="st0" d="M85.7,33.1v1.1h-5.4v14H79v-14h-5.3v-1.1H85.7z"/>
		<path class="st0" d="M99,48.2l-1.8-4.6h-7.3L88,48.2h-1.3l6.1-15.1h1.4l6.2,15.1H99z M90.3,42.5h6.4l-1-2.6
			c-0.9-2.3-1.6-4.1-2.2-5.5c-0.4,0.9-0.9,2.3-1.5,4l-0.6,1.5L90.3,42.5z"/>
		<path class="st0" d="M113.4,33.1v1.1H108v14h-1.3v-14h-5.3v-1.1H113.4z"/>
		<path class="st0" d="M129.7,33.1v1.1h-5.4v14H123v-14h-5.3v-1.1H129.7z"/>
		<path class="st0" d="M134.6,46.3c-1.3-1.5-1.9-3.4-1.9-5.7c0-2.3,0.6-4.2,1.9-5.7c1.3-1.5,3-2.2,5.1-2.2c2.1,0,3.8,0.7,5.1,2.2
			c1.3,1.5,1.9,3.4,1.9,5.7c0,2.3-0.6,4.2-1.9,5.7c-1.3,1.5-3,2.2-5.1,2.2C137.5,48.5,135.8,47.8,134.6,46.3z M139.7,47.4
			c1.8,0,3.2-0.6,4.2-1.9c1-1.2,1.5-2.8,1.5-4.9c0-2-0.5-3.7-1.5-4.9c-1-1.2-2.4-1.8-4.2-1.8s-3.1,0.6-4.2,1.8
			c-1,1.3-1.6,2.9-1.6,4.9s0.5,3.6,1.6,4.9C136.5,46.7,137.9,47.4,139.7,47.4z"/>
		<path class="st0" d="M153.6,46.3c-1.3-1.5-1.9-3.4-1.9-5.7c0-2.3,0.6-4.2,1.9-5.7c1.3-1.5,3-2.2,5.1-2.2c2.1,0,3.8,0.7,5.1,2.2
			c1.3,1.5,1.9,3.4,1.9,5.7c0,2.3-0.6,4.2-1.9,5.7c-1.3,1.5-3,2.2-5.1,2.2C156.6,48.5,154.9,47.8,153.6,46.3z M158.8,47.4
			c1.8,0,3.2-0.6,4.2-1.9c1-1.2,1.5-2.8,1.5-4.9c0-2-0.5-3.7-1.5-4.9c-1-1.2-2.4-1.8-4.2-1.8s-3.1,0.6-4.2,1.8
			c-1,1.3-1.6,2.9-1.6,4.9s0.5,3.6,1.6,4.9C155.6,46.7,157,47.4,158.8,47.4z"/>
		<path class="st0" d="M190.5,48.2l-1.8-4.6h-7.3l-1.8,4.6h-1.3l6.1-15.1h1.4l6.2,15.1H190.5z M181.8,42.5h6.4l-1-2.6
			c-0.9-2.3-1.6-4.1-2.2-5.5c-0.4,0.9-0.9,2.3-1.5,4l-0.6,1.5L181.8,42.5z"/>
		<path class="st0" d="M207.5,46.3c0,0.7,0.2,1.3,0.6,1.8h-1.3c-0.3-0.5-0.5-1.1-0.5-1.9l-0.1-1.9c0-1-0.3-1.8-0.8-2.2
			s-1.2-0.7-2.3-0.7h-5.2v6.7h-1.3V33.1h6.2c1.5,0,2.7,0.4,3.6,1.1s1.3,1.7,1.3,3c0,1-0.2,1.8-0.7,2.4c-0.5,0.6-1.2,1.1-2.1,1.3
			c1.6,0.3,2.4,1.3,2.5,3L207.5,46.3z M203,40.3c1.1,0,1.9-0.3,2.5-0.8s0.9-1.3,0.9-2.3c0-1-0.3-1.7-0.9-2.2
			c-0.6-0.5-1.5-0.8-2.7-0.8h-5v6.1H203z"/>
		<path class="st0" d="M223.4,33.1v1.1H218v14h-1.3v-14h-5.3v-1.1H223.4z"/>
		<path class="st0" d="M235.8,43.5h1.3c0.1,2.5,1.7,3.8,4.8,3.8c1.4,0,2.4-0.3,3.1-0.8s1.1-1.3,1.1-2.3c0-0.8-0.3-1.5-0.9-1.9
			c-0.6-0.5-1.6-0.9-3-1.2l-1.5-0.3c-1.5-0.3-2.6-0.8-3.4-1.5s-1.1-1.6-1.1-2.8c0-1.2,0.5-2.1,1.4-2.8c0.9-0.7,2.2-1,3.7-1
			c1.9,0,3.2,0.4,4.2,1.2c0.9,0.8,1.4,1.9,1.4,3.3h-1.3c-0.1-2.2-1.6-3.3-4.3-3.3c-1.2,0-2.2,0.2-2.8,0.7c-0.7,0.5-1,1.1-1,2
			c0,0.8,0.3,1.5,0.8,2c0.6,0.5,1.5,0.8,2.9,1.1l1.5,0.3c1.7,0.3,2.8,0.8,3.6,1.5s1.1,1.6,1.1,2.7c0,1.3-0.5,2.4-1.5,3.1
			s-2.3,1.2-4.1,1.2C237.9,48.5,235.9,46.9,235.8,43.5z"/>
		<path class="st0" d="M262.6,33.1v1.1h-5.4v14H256v-14h-5.3v-1.1H262.6z"/>
		<path class="st0" d="M273,48.5c-1.8,0-3.2-0.5-4.2-1.5c-1-1-1.5-2.4-1.5-4.3v-9.6h1.3v9.6c0,1.6,0.4,2.7,1.2,3.5
			c0.8,0.8,1.9,1.2,3.3,1.2c1.5,0,2.6-0.4,3.4-1.2c0.8-0.8,1.2-2,1.2-3.5v-9.6h1.3v9.6c0,1.9-0.5,3.3-1.5,4.3
			C276.3,48,274.9,48.5,273,48.5z"/>
		<path class="st0" d="M289.5,33.1c2.3,0,4.2,0.7,5.5,2c1.3,1.3,1.9,3.2,1.9,5.5c0,2.3-0.7,4.2-2,5.5c-1.3,1.3-3.2,2-5.5,2h-4.7
			V33.1H289.5z M289.4,47c2,0,3.5-0.6,4.6-1.7c1.1-1.1,1.6-2.7,1.6-4.7s-0.5-3.6-1.6-4.7c-1-1.1-2.5-1.7-4.5-1.7H286V47H289.4z"/>
		<path class="st0" d="M302.5,48.2V33.1h1.3v15.1H302.5z"/>
		<path class="st0" d="M311.2,46.3c-1.3-1.5-1.9-3.4-1.9-5.7c0-2.3,0.6-4.2,1.9-5.7c1.3-1.5,3-2.2,5.1-2.2c2.1,0,3.8,0.7,5.1,2.2
			c1.3,1.5,1.9,3.4,1.9,5.7c0,2.3-0.6,4.2-1.9,5.7c-1.3,1.5-3,2.2-5.1,2.2C314.2,48.5,312.5,47.8,311.2,46.3z M316.3,47.4
			c1.8,0,3.2-0.6,4.2-1.9c1-1.2,1.5-2.8,1.5-4.9c0-2-0.5-3.7-1.5-4.9c-1-1.2-2.4-1.8-4.2-1.8s-3.1,0.6-4.2,1.8
			c-1,1.3-1.6,2.9-1.6,4.9s0.5,3.6,1.6,4.9C313.2,46.7,314.6,47.4,316.3,47.4z"/>
	</g>
</g>
</svg>
