<svg xmlns="http://www.w3.org/2000/svg" viewBox="0 0 312.25 68.61"><defs><style>.cls-1{fill:#fff;}</style></defs><g id="Layer_2" data-name="Layer 2"><g id="Layer_1-2" data-name="Layer 1"><path class="cls-1" d="M42.11,12.91a.43.43,0,0,0,.42,0l3.53-3.5a.82.82,0,0,0,0-1.17,32.53,32.53,0,0,0-43.27,0,.81.81,0,0,0,0,1.18c1.2,1.2,2.35,2.35,3.49,3.51.21.2.31.14.5,0a25.76,25.76,0,0,1,7.18-4.61,25,25,0,0,1,6.7-1.89c.75-.09.74-.12.74.61V57.31c0,.07,0,.29,0,.63v0s0,.08,0,.12v.07s0,.07,0,.11q0,.31.06.72h0v0l0,.23v.06q0,.18.06.39h0a10.94,10.94,0,0,0,.92,2.81h0c0,.09.09.18.14.27l0,.05a9.42,9.42,0,0,0,.63,1l.06.08v0l.07.08h0l.21.25h0l.14.16h0l0,0,.18.18.45,4,.49-4,0,0,.09-.08a.46.46,0,0,1,.07-.07l.07-.07a.6.6,0,0,1,.08-.08l.14-.16,0,0a2.09,2.09,0,0,0,.14-.17h0v0l.19-.24,0,0,.06-.09.09-.13,0-.06.1-.16.07-.12.07-.11h0l0,0,.05-.1.06-.11,0,0v0l.08-.16,0,0c0-.07.07-.15.1-.23a.59.59,0,0,0,0-.08v-.06l0-.08,0-.1a1.67,1.67,0,0,0,.08-.2l0-.09.06-.19,0-.13c0-.09,0-.17.08-.25A.25.25,0,0,1,27,61a1,1,0,0,1,0-.14l0-.14c0-.09.05-.17.07-.26a.36.36,0,0,1,0-.1.43.43,0,0,1,0-.11v0a2.38,2.38,0,0,0,.05-.26v-.07c0-.07,0-.14,0-.21a.88.88,0,0,0,0-.17v-.09a.22.22,0,0,1,0-.08,1.23,1.23,0,0,1,0-.19,1.94,1.94,0,0,0,0-.24l0-.32s0-.06,0-.09h0v0c0-.14,0-.28,0-.43v0c0-.18,0-.35,0-.54V55.12c-1.23-.7-2.14-3.12-2.14-6s.91-5.3,2.14-6V7.23a.82.82,0,0,1,.93-.81A26.09,26.09,0,0,1,35,8.3,26.9,26.9,0,0,1,42.11,12.91ZM22.39,19.7h.84v9.24h-.84Zm.84,10.51h-.84v-.49h.84Zm0,1.25h-.84V31h.84Zm0,1.26h-.84v-.48h.84Zm0,1.33h-.84V33.5h.84Zm0,1.48h-.84v-.7h.84Zm0,2h-.84v-1.4h.84Zm0,4.2h-.84V38.05h.84Z"/><path class="cls-1" d="M48.68,30.11c0-.62,0-.63-.67-.63-3.93,0-7.85,0-11.78,0-.47,0-.63-.11-.63-.61,0-3.38,0-6.77,0-10.16a4.22,4.22,0,0,1,0-.49l.14-.06c.73.71,1.5,1.37,2.17,2.12a17.42,17.42,0,0,1,3.87,6.77.45.45,0,0,0,.52.35c1.81,0,3.63,0,5.44,0,.13,0,.27,0,.46-.05A24.28,24.28,0,0,0,38.8,12.85a23.26,23.26,0,0,0-9.29-4.14V35c0,.64,0,.64.65.64H42.35c.15,3-4.33,10.46-6.74,11.23V46.3c0-2.71,0-4.15,0-6.85,0-.41-.11-.55-.54-.54-1.68,0-3.37,0-5,0h0a.49.49,0,0,0-.48.5V56.29a.86.86,0,0,0,.22,0,25.43,25.43,0,0,0,15.1-10.56h0a22.29,22.29,0,0,0,1.25-2.11l0,0,.13-.17c.26-.51.48-1,.67-1.42.32-.94.69-1.86,1-2.81h0c0-.13.08-.26.11-.4s0-.1,0-.16h0A20.51,20.51,0,0,0,48.65,35C48.77,33.38,48.69,31.74,48.68,30.11Z"/><path class="cls-1" d="M19,50A18.4,18.4,0,0,1,13.15,47a18,18,0,0,1-5.88-8c-.4-1.06-.65-2.17-1-3.34H13.2v4.8a.84.84,0,0,0,.83.84h4.36a.85.85,0,0,0,.84-.84V8.72a22.94,22.94,0,0,0-8.36,3.51A24.14,24.14,0,0,0,1,25.53v0c-.07.25-.15.51-.22.77,0,.06,0,.11,0,.17-.15.6-.34,1.44-.5,2.44,0,.05,0,.09,0,.13L.23,29c0,.18-.06.37-.08.56a.55.55,0,0,1,0,.25C.07,30.2,0,30.59,0,31a2.5,2.5,0,0,1,0,.48,27,27,0,0,0,.26,4.84,2.51,2.51,0,0,1,0,.27h0a25.62,25.62,0,0,0,.7,3,23.73,23.73,0,0,0,1.09,2.91,24.23,24.23,0,0,0,5.64,7.85A24.73,24.73,0,0,0,17.5,56c.55.17,1.13.27,1.75.41,0-2.08,0-4.06,0-6A.43.43,0,0,0,19,50ZM6.41,29.1a18,18,0,0,1,3.52-7.72,18.56,18.56,0,0,1,2.92-3l.19-.13s.06,0,.15,0v8c0,.94,0,1.88,0,2.82,0,.29-.1.39-.38.39H6.71C6.43,29.48,6.35,29.39,6.41,29.1Z"/><path class="cls-1" d="M74.55,25v1.14H69.18v14H67.89v-14H62.55V25Z"/><path class="cls-1" d="M87.87,40.14,86,35.58H78.73l-1.85,4.56H75.55L81.66,25h1.4l6.15,15.1Zm-8.7-5.69h6.39l-1-2.58c-.91-2.27-1.63-4.09-2.16-5.48-.36.95-.87,2.28-1.55,4l-.6,1.49Z"/><path class="cls-1" d="M102.25,25v1.14H96.88v14H95.59v-14H90.25V25Z"/><path class="cls-1" d="M118.56,25v1.14h-5.37v14H111.9v-14h-5.34V25Z"/><path class="cls-1" d="M123.42,38.29a8.27,8.27,0,0,1-1.93-5.7,8.3,8.3,0,0,1,1.93-5.71,7.13,7.13,0,0,1,10.26,0,8.3,8.3,0,0,1,1.93,5.71,8.27,8.27,0,0,1-1.93,5.7,7.1,7.1,0,0,1-10.26,0Zm5.13,1a5.15,5.15,0,0,0,4.2-1.87,7.28,7.28,0,0,0,1.55-4.87,7.43,7.43,0,0,0-1.55-4.9,5.25,5.25,0,0,0-4.2-1.85,5.18,5.18,0,0,0-4.18,1.85,7.44,7.44,0,0,0-1.57,4.9,7.34,7.34,0,0,0,1.57,4.87A5.14,5.14,0,0,0,128.55,39.33Z"/><path class="cls-1" d="M142.51,38.29a8.27,8.27,0,0,1-1.93-5.7,8.3,8.3,0,0,1,1.93-5.71,7.13,7.13,0,0,1,10.26,0,8.3,8.3,0,0,1,1.93,5.71,8.27,8.27,0,0,1-1.93,5.7,7.1,7.1,0,0,1-10.26,0Zm5.13,1a5.15,5.15,0,0,0,4.2-1.87,7.28,7.28,0,0,0,1.55-4.87,7.43,7.43,0,0,0-1.55-4.9,5.25,5.25,0,0,0-4.2-1.85,5.18,5.18,0,0,0-4.18,1.85,7.44,7.44,0,0,0-1.57,4.9,7.34,7.34,0,0,0,1.57,4.87A5.14,5.14,0,0,0,147.64,39.33Z"/><path class="cls-1" d="M179.35,40.14l-1.85-4.56h-7.29l-1.85,4.56H167L173.13,25h1.4l6.15,15.1Zm-8.7-5.69H177l-1-2.58c-.91-2.27-1.63-4.09-2.17-5.48-.35.95-.87,2.28-1.54,4l-.6,1.49Z"/><path class="cls-1" d="M196.4,38.31a3.6,3.6,0,0,0,.55,1.83h-1.31a3.35,3.35,0,0,1-.49-1.87l-.09-1.93a3.2,3.2,0,0,0-.77-2.25,3.3,3.3,0,0,0-2.32-.68h-5.24v6.73h-1.25V25h6.23a5.59,5.59,0,0,1,3.6,1.06,3.6,3.6,0,0,1,1.32,3,3.79,3.79,0,0,1-.74,2.43,3.7,3.7,0,0,1-2.1,1.28,2.93,2.93,0,0,1,2.48,3Zm-4.56-6a3.77,3.77,0,0,0,2.55-.81,2.9,2.9,0,0,0,.93-2.33,2.72,2.72,0,0,0-.94-2.22,4.2,4.2,0,0,0-2.67-.75h-5v6.11Z"/><path class="cls-1" d="M212.25,25v1.14h-5.37v14h-1.29v-14h-5.35V25Z"/><path class="cls-1" d="M224.63,35.51h1.3c.09,2.55,1.7,3.82,4.81,3.82a5.1,5.1,0,0,0,3.14-.84,2.75,2.75,0,0,0,1.1-2.32,2.34,2.34,0,0,0-.88-1.94,7.29,7.29,0,0,0-3-1.15l-1.48-.3a7.09,7.09,0,0,1-3.38-1.47,3.53,3.53,0,0,1-1.1-2.75,3.35,3.35,0,0,1,1.37-2.82,6,6,0,0,1,3.72-1,6.28,6.28,0,0,1,4.18,1.2,4.18,4.18,0,0,1,1.44,3.25h-1.29c-.12-2.2-1.56-3.31-4.33-3.31a4.72,4.72,0,0,0-2.81.73,2.34,2.34,0,0,0-1,2,2.45,2.45,0,0,0,.83,2,6.76,6.76,0,0,0,2.91,1.14l1.48.3a7.32,7.32,0,0,1,3.55,1.52,3.48,3.48,0,0,1,1.08,2.68,3.81,3.81,0,0,1-1.46,3.15,6.41,6.41,0,0,1-4.08,1.16C226.79,40.48,224.76,38.82,224.63,35.51Z"/><path class="cls-1" d="M251.5,25v1.14h-5.36v14h-1.3v-14H239.5V25Z"/><path class="cls-1" d="M261.9,40.46A5.7,5.7,0,0,1,257.68,39a5.79,5.79,0,0,1-1.53-4.33V25h1.25v9.6a4.77,4.77,0,0,0,1.17,3.51,4.45,4.45,0,0,0,3.33,1.18,4.5,4.5,0,0,0,3.35-1.18,4.76,4.76,0,0,0,1.16-3.51V25h1.26v9.6a5.26,5.26,0,0,1-5.77,5.82Z"/><path class="cls-1" d="M278.38,25a7.25,7.25,0,0,1,5.45,2,7.67,7.67,0,0,1,1.93,5.54,7.62,7.62,0,0,1-1.95,5.53,7.38,7.38,0,0,1-5.54,2H273.6V25Zm-.11,14a6,6,0,0,0,4.59-1.67,6.61,6.61,0,0,0,1.58-4.73,6.66,6.66,0,0,0-1.56-4.73,5.84,5.84,0,0,0-4.5-1.68h-3.52V39Z"/><path class="cls-1" d="M291.31,40.14V25h1.26v15.1Z"/><path class="cls-1" d="M300.05,38.29a8.32,8.32,0,0,1-1.93-5.7,8.34,8.34,0,0,1,1.93-5.71,7.14,7.14,0,0,1,10.27,0,8.34,8.34,0,0,1,1.93,5.71,8.32,8.32,0,0,1-1.93,5.7,7.12,7.12,0,0,1-10.27,0Zm5.14,1a5.18,5.18,0,0,0,4.2-1.87,7.27,7.27,0,0,0,1.54-4.87,7.43,7.43,0,0,0-1.54-4.9,5.25,5.25,0,0,0-4.2-1.85A5.17,5.17,0,0,0,301,27.69a7.39,7.39,0,0,0-1.57,4.9A7.29,7.29,0,0,0,301,37.46,5.12,5.12,0,0,0,305.19,39.33Z"/></g></g></svg>